<svg width="213" height="41" viewBox="0 0 213 41" fill="none" xmlns="http://www.w3.org/2000/svg">
<path d="M182.174 0.821022C182.882 1.5999 183.59 2.37878 184.333 3.12225C188.262 7.26445 192.19 11.3713 196.118 15.5135C199.551 19.0892 202.984 22.7358 206.417 26.3115C206.983 26.9134 207.514 27.4444 208.151 28.1171C208.151 23.7625 208.151 19.5141 208.151 15.2302C208.151 10.9464 208.151 6.76881 208.151 2.48498C209.602 2.48498 211.018 2.48498 212.469 2.48498C212.469 14.4868 212.469 26.5239 212.469 38.6319C203.798 29.5332 195.163 20.47 186.457 11.3713C186.457 20.0097 186.457 28.6128 186.457 37.2158C184.97 37.2158 183.519 37.2158 182.104 37.2158C182.104 25.037 182.104 12.929 182.104 0.785622C182.139 0.821025 182.139 0.821022 182.174 0.821022Z" fill="black"/>
<path d="M44.4722 40.8976C43.4105 40.1895 42.3134 39.5168 41.3224 38.7379C37.0401 35.3391 34.3151 30.9845 33.5365 25.5322C32.6163 19.0887 34.4566 13.3887 38.8451 8.64456C42.3488 4.82093 46.7018 2.6613 51.8335 1.91781C60.7166 0.643271 69.4581 4.67932 73.9881 12.3974C75.1914 14.4508 75.97 16.6459 76.4301 19.0179C76.4655 19.1241 76.4655 19.2657 76.4655 19.4782C76.3239 19.4074 76.1824 19.372 76.0762 19.3012C69.4935 16.5396 62.84 16.221 56.3281 19.4074C49.7454 22.5937 45.7463 27.8689 44.543 35.1267C44.2245 37.0031 44.1891 38.9149 44.4722 40.8976Z" fill="black"/>
<path d="M160.092 37.9947C149.829 37.9947 141.76 29.8165 141.901 19.6204C142.008 10.3093 149.864 1.67085 160.199 1.70625C170.426 1.77706 178.531 10.2031 178.354 20.2222C178.177 30.0289 170.32 37.9947 160.092 37.9947ZM174.001 19.6204C173.966 19.2309 173.966 18.6291 173.895 17.9918C173.399 14.1328 171.701 10.9111 168.586 8.57451C165.366 6.13168 161.72 5.3882 157.757 6.02546C154.784 6.52111 152.236 7.79564 150.183 9.99065C146.785 13.6018 145.688 17.921 146.573 22.7359C147.918 30.0644 155.208 35.0916 162.499 33.7463C169.152 32.5072 174.036 26.6656 174.001 19.6204Z" fill="black"/>
<path d="M25.3237 37.2511C23.8727 37.2511 22.4925 37.2511 21.0061 37.2511C21.0061 31.6928 21.0061 26.1698 21.0061 20.5761C15.4851 20.5761 10.0349 20.5761 4.51395 20.5761C4.51395 26.1344 4.51395 31.6574 4.51395 37.2157C3.02754 37.2157 1.6473 37.2157 0.196279 37.2157C0.160888 25.6742 0.160889 14.0973 0.160889 2.52032C1.61191 2.52032 2.99215 2.52032 4.47856 2.52032C4.47856 7.15818 4.47856 11.796 4.47856 16.4693C9.99952 16.4693 15.4497 16.4693 20.9707 16.4693C20.9707 11.8314 20.9707 7.19358 20.9707 2.52032C22.4571 2.52032 23.8373 2.52032 25.3237 2.52032C25.3237 14.0973 25.3237 25.6388 25.3237 37.2511Z" fill="black"/>
<path d="M83.2192 2.5201C83.3254 2.5201 83.4316 2.4847 83.5023 2.4847C86.369 2.5201 89.271 2.5201 92.1377 2.59091C94.1904 2.66172 96.2076 3.08656 97.9418 4.25489C100.985 6.37912 102.259 9.31765 102.153 12.9288C102.083 15.3009 101.233 17.3897 99.6405 19.1953C98.2249 20.7531 96.4554 21.6736 94.4381 22.0277C94.2965 22.0631 94.1196 22.0985 93.9072 22.1339C97.5525 27.1612 101.198 32.1532 104.843 37.2159C104.631 37.2159 104.524 37.2513 104.348 37.2513C102.897 37.2513 101.481 37.2513 99.9945 37.2513C99.6759 37.2513 99.4636 37.1451 99.2866 36.8973C96.0661 32.224 92.8101 27.5861 89.5542 22.9128C89.3772 22.6649 89.2003 22.5587 88.8463 22.5941C88.457 22.6295 87.997 22.5941 87.5015 22.5941C87.5015 27.5153 87.5015 32.3656 87.5015 37.2867C86.0151 37.2867 84.5641 37.2867 83.1484 37.2867C83.2192 25.6389 83.2192 14.0972 83.2192 2.5201ZM87.5723 18.8413C88.7402 18.8413 89.9435 18.9121 91.076 18.8413C92.5978 18.7351 94.0842 18.381 95.4644 17.7084C96.5615 17.1419 97.3401 16.2922 97.7648 15.1239C98.2249 13.8494 98.2603 12.5748 98.048 11.2649C97.7648 9.38846 96.7031 8.07851 94.9336 7.40584C93.4118 6.80397 91.8192 6.52074 90.1912 6.44994C89.3418 6.41453 88.4924 6.44994 87.6077 6.44994C87.5723 10.5922 87.5723 14.7345 87.5723 18.8413Z" fill="black"/>
<path d="M118.541 6.48552C118.541 5.14019 118.541 3.86566 118.541 2.52032C125.902 2.52032 133.264 2.52032 140.696 2.52032C134.856 12.7519 129.017 22.9835 123.142 33.2505C129.017 33.2505 134.821 33.2505 140.66 33.2505C140.66 34.6313 140.66 35.9058 140.66 37.2511C132.45 37.2511 124.274 37.2511 115.993 37.2511C121.868 27.0195 127.707 16.7879 133.582 6.48552C128.557 6.48552 123.567 6.48552 118.541 6.48552Z" fill="black"/>
<path d="M112.42 37.215C110.969 37.215 109.588 37.215 108.102 37.215C108.102 25.6382 108.102 14.0968 108.102 2.4847C109.553 2.4847 110.933 2.4847 112.42 2.4847C112.42 14.0968 112.42 25.6382 112.42 37.215Z" fill="black"/>
</svg>
