<svg width="4" height="7" viewBox="0 0 4 7" fill="none" xmlns="http://www.w3.org/2000/svg">
<path d="M0.324886 3.56078C0.252639 3.48863 0.212004 3.39073 0.211914 3.28862V3.09349C0.213097 2.9916 0.253568 2.89411 0.324886 2.82133L2.96432 0.187032C3.01253 0.138425 3.07816 0.111084 3.14662 0.111084C3.21508 0.111084 3.2807 0.138425 3.32891 0.187032L3.6935 0.551623C3.74181 0.59895 3.76903 0.663727 3.76903 0.731351C3.76903 0.798975 3.74181 0.863752 3.6935 0.911079L1.40839 3.19106L3.6935 5.47104C3.74211 5.51925 3.76945 5.58487 3.76945 5.65333C3.76945 5.72179 3.74211 5.78742 3.6935 5.83563L3.32891 6.19509C3.2807 6.24369 3.21508 6.27103 3.14662 6.27103C3.07816 6.27103 3.01253 6.24369 2.96432 6.19509L0.324886 3.56078Z" fill="black"/>
</svg>
