<svg width="21" height="18" viewBox="0 0 21 18" fill="none" xmlns="http://www.w3.org/2000/svg">
<path fill-rule="evenodd" clip-rule="evenodd" d="M8.44504 0.0882524C8.31672 0.142354 8.14112 0.243529 8.05482 0.313047C7.73619 0.56958 0.324145 8.036 0.219811 8.2055C0.0640908 8.45846 -0.0243464 8.84096 0.0058857 9.13054C0.0628173 9.67592 -0.156448 9.43164 4.17237 13.7716C7.43715 17.0447 8.17603 17.7657 8.36239 17.86C8.68098 18.0214 9.18987 18.0466 9.53068 17.918C9.89951 17.7789 10.1629 17.5459 10.3152 17.2242C10.4321 16.9772 10.4445 16.9133 10.4445 16.5596C10.4445 15.8839 10.5101 15.969 8.13573 13.5624C7.01082 12.4222 5.94099 11.3584 5.75828 11.1985C5.57163 11.0351 5.27132 10.8266 5.07297 10.7227L4.71988 10.5377L12.2649 10.5171L19.8099 10.4965L20.046 10.4011C20.3756 10.2679 20.7001 9.95926 20.8667 9.62043C20.9872 9.37532 21.001 9.31053 21 8.99673C20.999 8.70665 20.9802 8.60651 20.8907 8.41324C20.7461 8.10129 20.483 7.82433 20.1811 7.66634L19.9332 7.53655L12.3135 7.51599L4.69388 7.49544L5.0841 7.29161L5.47432 7.08774L7.84159 4.72217C10.5738 1.99182 10.4445 2.15421 10.4445 1.45211C10.4445 1.08631 10.432 1.01551 10.331 0.809711C10.2685 0.682472 10.1247 0.491552 10.0113 0.385403C9.71565 0.108603 9.49495 0.0212415 9.04796 0.00405703C8.7304 -0.00815301 8.64537 0.00372808 8.44504 0.0882524Z" fill="white"/>
</svg>
