<svg width="4" height="7" viewBox="0 0 4 7" fill="none" xmlns="http://www.w3.org/2000/svg">
<path d="M3.67536 3.56078C3.7476 3.48863 3.78824 3.39073 3.78833 3.28862V3.09349C3.78715 2.9916 3.74668 2.89411 3.67536 2.82133L1.03592 0.187032C0.987713 0.138425 0.922087 0.111084 0.853627 0.111084C0.785167 0.111084 0.719541 0.138425 0.671331 0.187032L0.30674 0.551623C0.258437 0.59895 0.231217 0.663727 0.231217 0.731351C0.231217 0.798975 0.258437 0.863752 0.30674 0.911079L2.59185 3.19106L0.30674 5.47104C0.258133 5.51925 0.230792 5.58487 0.230792 5.65333C0.230792 5.72179 0.258133 5.78742 0.30674 5.83563L0.671331 6.19509C0.719541 6.24369 0.785167 6.27103 0.853627 6.27103C0.922087 6.27103 0.987713 6.24369 1.03592 6.19509L3.67536 3.56078Z" fill="black"/>
</svg>
