<svg width="35" height="29" viewBox="0 0 35 29" fill="none" xmlns="http://www.w3.org/2000/svg">
<path fill-rule="evenodd" clip-rule="evenodd" d="M20.9218 28.8438C21.1263 28.7577 21.4062 28.5965 21.5438 28.4858C22.0517 28.0773 33.8661 16.1862 34.0324 15.9162C34.2807 15.5134 34.4216 14.9042 34.3734 14.443C34.2827 13.5744 34.6322 13.9635 27.7322 7.05168C22.5283 1.83885 21.3506 0.690642 21.0535 0.540379C20.5457 0.283395 19.7346 0.243193 19.1913 0.447995C18.6034 0.669625 18.1836 1.0406 17.9408 1.55293C17.7545 1.9463 17.7347 2.04811 17.7347 2.61151C17.7347 3.6875 17.6302 3.55204 21.4148 7.38487C23.2079 9.20072 24.9131 10.8949 25.2044 11.1496C25.5019 11.4098 25.9805 11.7419 26.2967 11.9074L26.8595 12.202L14.8331 12.2348L2.80664 12.2675L2.43036 12.4195C1.90494 12.6316 1.38776 13.1232 1.12226 13.6628C0.930166 14.0532 0.908101 14.1564 0.909803 14.6561C0.911374 15.1181 0.941228 15.2776 1.08396 15.5854C1.31436 16.0822 1.73372 16.5233 2.21496 16.7749L2.61022 16.9816L14.7556 17.0144L26.901 17.0471L26.279 17.3717L25.657 17.6964L21.8837 21.4638C17.5286 25.8122 17.7347 25.5536 17.7347 26.6717C17.7347 27.2543 17.7546 27.3671 17.9156 27.6948C18.0152 27.8975 18.2445 28.2015 18.4252 28.3706C18.8965 28.8114 19.2483 28.9505 19.9608 28.9779C20.4669 28.9974 20.6025 28.9784 20.9218 28.8438Z" fill="white"/>
</svg>
