<svg width="35" height="30" viewBox="0 0 35 30" fill="none" xmlns="http://www.w3.org/2000/svg">
<path fill-rule="evenodd" clip-rule="evenodd" d="M14.2774 0.98186C14.0729 1.06802 13.793 1.22915 13.6554 1.33987C13.1476 1.74843 1.33308 13.6395 1.16678 13.9094C0.918564 14.3123 0.777599 14.9215 0.825788 15.3827C0.916534 16.2512 0.567035 15.8622 7.46698 22.774C12.6709 27.9868 13.8486 29.135 14.1457 29.2853C14.6535 29.5423 15.4647 29.5825 16.0079 29.3777C16.5958 29.1561 17.0156 28.7851 17.2584 28.2728C17.4447 27.8794 17.4646 27.7776 17.4646 27.2142C17.4646 26.1382 17.569 26.2736 13.7844 22.4408C11.9914 20.625 10.2861 18.9308 9.99486 18.6761C9.69735 18.4159 9.21867 18.0838 8.9025 17.9183L8.33968 17.6236L20.3662 17.5909L32.3926 17.5582L32.7689 17.4062C33.2943 17.1941 33.8115 16.7025 34.077 16.1629C34.2691 15.7725 34.2911 15.6693 34.2894 15.1696C34.2878 14.7076 34.258 14.5481 34.1153 14.2403C33.8849 13.7435 33.4655 13.3024 32.9843 13.0508L32.589 12.8441L20.4436 12.8113L8.29824 12.7786L8.92024 12.454L9.54224 12.1293L13.3156 8.36186C17.6706 4.01349 17.4646 4.27211 17.4646 3.15395C17.4646 2.57137 17.4446 2.45862 17.2836 2.13086C17.184 1.92822 16.9547 1.62416 16.774 1.4551C16.3027 1.01427 15.9509 0.875138 15.2385 0.84777C14.7323 0.828324 14.5968 0.847246 14.2774 0.98186Z" fill="white"/>
</svg>
