<svg width="21" height="18" viewBox="0 0 21 18" fill="none" xmlns="http://www.w3.org/2000/svg">
<path fill-rule="evenodd" clip-rule="evenodd" d="M12.555 17.9117C12.6833 17.8576 12.8589 17.7565 12.9452 17.687C13.2638 17.4304 20.6759 9.964 20.7802 9.79449C20.9359 9.54154 21.0243 9.15904 20.9941 8.86945C20.9372 8.32407 21.1564 8.56836 16.8276 4.22843C13.5628 0.955288 12.824 0.234322 12.6376 0.139973C12.319 -0.0213883 11.8101 -0.0466311 11.4693 0.0819642C11.1005 0.221125 10.8371 0.454062 10.6848 0.775756C10.5679 1.02275 10.5555 1.08668 10.5555 1.44044C10.5555 2.11606 10.4899 2.031 12.8643 4.43764C13.9892 5.57781 15.059 6.64156 15.2417 6.80153C15.4284 6.9649 15.7287 7.17342 15.927 7.27735L16.2801 7.46235L8.73508 7.4829L1.19007 7.50346L0.954008 7.59888C0.624371 7.73208 0.299909 8.04074 0.133345 8.37957C0.0128269 8.62468 -0.00101412 8.68947 5.38299e-05 9.00327C0.00103963 9.29335 0.0197703 9.3935 0.109316 9.58676C0.253864 9.89871 0.516957 10.1757 0.818867 10.3337L1.06684 10.4635L8.68648 10.484L16.3061 10.5046L15.9159 10.7084L15.5257 10.9123L13.1584 13.2778C10.4262 16.0082 10.5555 15.8458 10.5555 16.5479C10.5555 16.9137 10.568 16.9845 10.669 17.1903C10.7315 17.3175 10.8753 17.5084 10.9887 17.6146C11.2844 17.8914 11.5051 17.9788 11.952 17.9959C12.2696 18.0082 12.3546 17.9963 12.555 17.9117Z" fill="white"/>
</svg>
