<svg width="18" height="14" viewBox="0 0 18 14" fill="none" xmlns="http://www.w3.org/2000/svg">
<path fill-rule="evenodd" clip-rule="evenodd" d="M0.529053 7.0625C0.529053 6.807 0.639419 6.56196 0.835871 6.38129C1.03232 6.20062 1.29877 6.09912 1.57659 6.09912L13.7134 6.09912L9.21527 1.9643C9.01857 1.7834 8.90806 1.53805 8.90806 1.28222C8.90806 1.0264 9.01857 0.781048 9.21527 0.600151C9.41197 0.419254 9.67875 0.317627 9.95693 0.317627C10.2351 0.317627 10.5019 0.419254 10.6986 0.600151L16.9838 6.38043C17.0814 6.46992 17.1588 6.57623 17.2116 6.69327C17.2644 6.81031 17.2916 6.93578 17.2916 7.0625C17.2916 7.18922 17.2644 7.31469 17.2116 7.43173C17.1588 7.54877 17.0814 7.65508 16.9838 7.74457L10.6986 13.5249C10.5019 13.7057 10.2351 13.8074 9.95693 13.8074C9.67875 13.8074 9.41197 13.7057 9.21527 13.5249C9.01857 13.344 8.90806 13.0986 8.90806 12.8428C8.90806 12.587 9.01857 12.3416 9.21527 12.1607L13.7134 8.02588L1.57659 8.02588C1.29877 8.02588 1.03232 7.92438 0.835871 7.74371C0.639419 7.56304 0.529053 7.31801 0.529053 7.0625Z" fill="white"/>
</svg>
