<svg width="31" height="31" viewBox="0 0 31 31" fill="none" xmlns="http://www.w3.org/2000/svg">
<circle cx="15.9347" cy="15.3509" r="15.0104" fill="black"/>
<path d="M15.9313 7.96746C18.336 7.96746 18.6209 7.97665 19.5705 8.01998C20.4486 8.06002 20.9255 8.20674 21.2429 8.33007C21.6633 8.49345 21.9633 8.68861 22.2784 9.00375C22.5936 9.31892 22.7887 9.61894 22.9521 10.0393C23.0755 10.3567 23.2222 10.8335 23.2622 11.7116C23.3056 12.6613 23.3147 12.9462 23.3147 15.3509C23.3147 17.7557 23.3056 18.0405 23.2622 18.9902C23.2222 19.8683 23.0755 20.3451 22.9521 20.6625C22.7887 21.0829 22.5936 21.3829 22.2784 21.698C21.9633 22.0132 21.6633 22.2084 21.2429 22.3718C20.9255 22.4951 20.4486 22.6418 19.5705 22.6818C18.621 22.7252 18.3362 22.7344 15.9313 22.7344C13.5263 22.7344 13.2415 22.7252 12.292 22.6818C11.4139 22.6418 10.937 22.4951 10.6197 22.3718C10.1993 22.2084 9.89925 22.0132 9.58411 21.698C9.26898 21.3829 9.07378 21.0829 8.9104 20.6625C8.78706 20.3451 8.64034 19.8683 8.6003 18.9902C8.55698 18.0405 8.54779 17.7557 8.54779 15.3509C8.54779 12.9462 8.55698 12.6613 8.6003 11.7116C8.64034 10.8335 8.78706 10.3567 8.9104 10.0393C9.07378 9.61894 9.26894 9.31892 9.58411 9.00378C9.89925 8.68861 10.1993 8.49345 10.6197 8.33007C10.937 8.20674 11.4139 8.06002 12.292 8.01998C13.2416 7.97665 13.5265 7.96746 15.9313 7.96746ZM15.9313 6.34473C13.4853 6.34473 13.1786 6.35509 12.218 6.39892C11.2594 6.44265 10.6047 6.59491 10.0319 6.81752C9.43961 7.04768 8.93736 7.35563 8.43664 7.85631C7.93596 8.35703 7.62801 8.85928 7.39788 9.45152C7.17523 10.0244 7.02297 10.6791 6.97925 11.6377C6.93542 12.5983 6.92505 12.905 6.92505 15.3509C6.92505 17.7968 6.93542 18.1035 6.97925 19.0642C7.02297 20.0228 7.17523 20.6774 7.39788 21.2503C7.62801 21.8425 7.93596 22.3448 8.43664 22.8455C8.93736 23.3462 9.43961 23.6541 10.0319 23.8843C10.6047 24.1069 11.2594 24.2592 12.218 24.3029C13.1786 24.3467 13.4853 24.3571 15.9313 24.3571C18.3772 24.3571 18.6839 24.3467 19.6445 24.3029C20.6031 24.2592 21.2578 24.1069 21.8307 23.8843C22.4229 23.6541 22.9252 23.3462 23.4259 22.8455C23.9266 22.3448 24.2345 21.8425 24.4647 21.2503C24.6873 20.6774 24.8396 20.0228 24.8833 19.0642C24.9271 18.1035 24.9375 17.7968 24.9375 15.3509C24.9375 12.905 24.9271 12.5983 24.8833 11.6377C24.8396 10.6791 24.6873 10.0244 24.4647 9.45152C24.2345 8.85928 23.9266 8.35703 23.4259 7.85631C22.9252 7.35563 22.4229 7.04768 21.8307 6.81752C21.2578 6.59491 20.6031 6.44265 19.6445 6.39892C18.6839 6.35509 18.3772 6.34473 15.9313 6.34473Z" fill="white"/>
<path d="M15.9364 10.7301C13.3821 10.7301 11.3115 12.8007 11.3115 15.3549C11.3115 17.9091 13.3821 19.9797 15.9364 19.9797C18.4906 19.9797 20.5611 17.9091 20.5611 15.3549C20.5611 12.8007 18.4906 10.7301 15.9364 10.7301ZM15.9364 18.357C14.2783 18.357 12.9343 17.0129 12.9343 15.3549C12.9343 13.6969 14.2783 12.3528 15.9364 12.3528C17.5943 12.3528 18.9384 13.6969 18.9384 15.3549C18.9384 17.0129 17.5943 18.357 15.9364 18.357Z" fill="white"/>
<path d="M21.8285 10.5446C21.8285 11.1415 21.3446 11.6254 20.7477 11.6254C20.1509 11.6254 19.667 11.1415 19.667 10.5446C19.667 9.94775 20.1509 9.46387 20.7477 9.46387C21.3446 9.46387 21.8285 9.94775 21.8285 10.5446Z" fill="white"/>
</svg>
