<svg width="13" height="13" viewBox="0 0 13 13" fill="none" xmlns="http://www.w3.org/2000/svg">
<path fill-rule="evenodd" clip-rule="evenodd" d="M1.64109 0.531888C1.15509 0.661893 0.723228 1.02118 0.501758 1.47973C0.311338 1.87399 0.322859 1.53505 0.330896 6.51128L0.338165 11.0073L0.410114 11.1957C0.514321 11.4685 0.644175 11.6739 0.835993 11.8693C1.02781 12.0647 1.22948 12.197 1.49731 12.3031L1.68224 12.3764H6.13963H10.597L10.789 12.3144C11.306 12.1476 11.7141 11.7454 11.924 11.1957L11.9959 11.0073L12.0036 8.84278C12.0093 7.23737 12.003 6.65783 11.9792 6.59927C11.9249 6.46588 11.8336 6.43911 11.4324 6.43911C11.0406 6.43911 10.9464 6.46669 10.8874 6.59871C10.8668 6.64456 10.8576 7.28227 10.8576 8.6493C10.8576 10.0761 10.8485 10.67 10.8254 10.7637C10.7811 10.9427 10.5884 11.139 10.4127 11.1841C10.2289 11.2312 2.10521 11.2312 1.92146 11.1841C1.74571 11.139 1.55299 10.9427 1.50874 10.7637C1.48477 10.6667 1.47651 9.55679 1.47651 6.43182C1.47651 1.69683 1.46143 2.03281 1.68298 1.83418C1.75537 1.76925 1.85628 1.71088 1.92777 1.69255C2.01165 1.67104 2.65395 1.66134 3.99723 1.66134C5.3393 1.66134 5.96536 1.65193 6.01038 1.63103C6.14009 1.57082 6.16706 1.47504 6.16706 1.0746C6.16706 0.674159 6.14009 0.57838 6.01038 0.518169C5.96512 0.497186 5.30679 0.488413 3.8685 0.489698C2.15039 0.491207 1.76593 0.498499 1.64109 0.531888ZM8.63969 0.558627C8.59429 0.597547 8.54398 0.669968 8.52791 0.71959C8.47157 0.89349 8.51998 0.968425 9.01946 1.48021C9.48187 1.95399 9.4861 1.95946 9.4861 2.08156V2.20478L7.67741 4.04953C6.45686 5.29443 5.86275 5.91926 5.85035 5.97112C5.81719 6.10964 5.86574 6.19592 6.13271 6.4727C6.40419 6.75417 6.49251 6.80443 6.63784 6.7602C6.67309 6.74945 7.51692 5.91216 8.51301 4.89953L10.3241 3.05835H10.4451C10.5649 3.05835 10.5703 3.06265 11.0354 3.53367C11.5379 4.04243 11.6114 4.09175 11.7822 4.03436C11.8309 4.01799 11.902 3.96674 11.9402 3.9205L12.0097 3.8364V2.25711V0.677847L11.9164 0.582851L11.8231 0.487854H10.2727H8.72225L8.63969 0.558627Z" fill="#4F89EF"/>
</svg>
