<svg width="63" height="62" viewBox="0 0 63 62" fill="none" xmlns="http://www.w3.org/2000/svg">
<path d="M62.3962 30.766C62.3962 47.7482 48.6295 61.5149 31.6473 61.5149C14.6652 61.5149 0.898429 47.7482 0.898432 30.766C0.898434 18.1173 14.3663 15.9478 23.9139 9.18755C29.9209 4.93434 36.7061 -0.455043 43.497 2.38345C54.5966 7.02294 62.3962 17.9836 62.3962 30.766Z" fill="#F8F8F8"/>
<path d="M25.3728 31.09C24.4568 31.0931 23.5569 31.332 22.7598 31.7838C23.882 28.8781 25.7432 26.3159 28.1592 24.3508C28.2974 24.2369 28.4119 24.0969 28.496 23.9388C28.5802 23.7806 28.6324 23.6075 28.6496 23.4292C28.6669 23.2509 28.6489 23.0709 28.5966 22.8996C28.5443 22.7282 28.4588 22.5689 28.345 22.4306C28.2311 22.2923 28.0912 22.1778 27.9331 22.0936C27.775 22.0095 27.6019 21.9573 27.4237 21.94C27.2454 21.9227 27.0656 21.9408 26.8943 21.9931C26.723 22.0454 26.5637 22.1309 26.4255 22.2448C21.4719 26.271 19.2676 31.8457 19.2676 35.302C19.2761 36.5241 19.6402 37.7173 20.3153 38.7359C20.9904 39.7544 21.9474 40.5543 23.0694 41.0378C23.7956 41.3897 24.5908 41.5759 25.3976 41.5829C26.1078 41.6175 26.8175 41.5073 27.4839 41.2593C28.1503 41.0112 28.7593 40.6303 29.2741 40.1397C29.7889 39.6492 30.1988 39.0591 30.4788 38.4053C30.7589 37.7516 30.9033 37.0477 30.9033 36.3365C30.9033 35.6252 30.7589 34.9214 30.4788 34.2676C30.1988 33.6138 29.7889 33.0238 29.2741 32.5332C28.7593 32.0426 28.1503 31.6617 27.4839 31.4137C26.8175 31.1656 26.1078 31.0555 25.3976 31.09H25.3728Z" fill="#4F89EF"/>
<path d="M38.5232 31.1411C37.607 31.143 36.7069 31.382 35.9102 31.8348C37.0319 28.9322 38.8882 26.3709 41.2972 24.4018C41.448 24.2931 41.5749 24.1547 41.6702 23.995C41.7655 23.8354 41.8272 23.6579 41.8513 23.4736C41.8755 23.2892 41.8617 23.1019 41.8108 22.9231C41.7599 22.7442 41.6729 22.5777 41.5553 22.4338C41.4376 22.2898 41.2917 22.1715 41.1267 22.0861C40.9616 22.0006 40.7808 21.9499 40.5954 21.937C40.4099 21.924 40.2238 21.9492 40.0485 22.0109C39.8732 22.0726 39.7123 22.1696 39.5759 22.2958C34.6223 26.322 32.418 31.8967 32.418 35.3531C32.4238 36.5613 32.7773 37.7423 33.4361 38.7551C34.0949 39.7678 35.0312 40.5694 36.1331 41.0641C36.8777 41.4263 37.6953 41.6127 38.5232 41.6091C39.2334 41.6437 39.9432 41.5336 40.6095 41.2855C41.2759 41.0374 41.8849 40.6566 42.3998 40.166C42.9146 39.6754 43.3244 39.0853 43.6045 38.4316C43.8845 37.7778 44.0289 37.074 44.0289 36.3627C44.0289 35.6515 43.8845 34.9476 43.6045 34.2938C43.3244 33.6401 42.9146 33.05 42.3998 32.5594C41.8849 32.0689 41.2759 31.688 40.6095 31.4399C39.9432 31.1919 39.2334 31.0817 38.5232 31.1163V31.1411Z" fill="#4F89EF"/>
</svg>
