<svg width="114" height="60" viewBox="0 0 114 60" fill="none" xmlns="http://www.w3.org/2000/svg">
<path d="M1.14671 8.61832C1.05281 4.17912 4.88375 0.451691 9.29684 0.451691C13.5221 0.451691 17.4845 3.87943 17.5409 8.61832C17.5409 13.095 13.8414 16.7849 9.35318 16.7849C4.62084 16.7849 1.07159 12.9639 1.14671 8.61832Z" fill="#1D1D1B"/>
<path d="M33.386 29.8029C33.6114 29.9715 33.7804 30.0652 33.9118 30.1963C34.9447 30.9081 35.4329 31.9195 35.5644 33.1183C35.6583 33.699 35.6019 34.3171 35.5268 34.9352C35.1325 36.8833 33.9682 38.1383 32.0527 38.6627C31.5269 38.8313 30.9823 38.8875 30.4001 38.8875C28.034 38.8875 25.6866 38.8875 23.358 38.8875C23.2641 38.8875 23.1326 38.8875 23.0387 38.8875C22.8134 38.8875 22.7195 38.7564 22.7195 38.5316C22.7195 38.4005 22.7195 38.2694 22.7195 38.0821C22.7195 32.6688 22.7195 27.293 22.7195 21.8797C22.7195 21.8422 22.7195 21.786 22.7195 21.786C22.7195 21.1679 22.757 21.1117 23.3955 21.1117C25.4424 21.1117 27.4894 21.1117 29.5363 21.1117C30.0246 21.1117 30.5128 21.1117 31.0011 21.2053C32.5597 21.4301 33.8555 22.0857 34.7005 23.4718C35.4517 24.7643 35.8085 27.0307 34.4752 28.7165C34.1935 29.1286 33.7804 29.447 33.386 29.8029ZM28.4471 35.6658C28.9729 35.6658 29.5551 35.6658 30.0997 35.6658C31.3015 35.6283 32.0151 34.8229 32.0151 33.6241C32.0151 32.4253 31.264 31.6198 30.0997 31.5824C28.9917 31.5449 27.865 31.5824 26.757 31.5824C26.3626 31.5824 26.3063 31.6198 26.3063 32.0319C26.3063 33.0996 26.3063 34.1673 26.3063 35.2349C26.3063 35.6845 26.3438 35.7219 26.7945 35.7219C27.3391 35.6658 27.9025 35.6658 28.4471 35.6658ZM28.2593 28.2857C28.7851 28.2857 29.2922 28.2857 29.818 28.2857C30.7569 28.2482 31.4142 27.7612 31.6396 26.9933C31.9964 25.9256 31.5457 24.4646 29.7616 24.4084C28.7288 24.3709 27.7523 24.4084 26.7382 24.4084C26.3438 24.4084 26.2875 24.4458 26.2875 24.8017C26.2875 25.8319 26.2875 26.8434 26.2875 27.8174C26.2875 28.2108 26.3251 28.267 26.7382 28.267C27.2452 28.2857 27.7711 28.2857 28.2593 28.2857Z" fill="#1D1D1B"/>
<path d="M47.4147 52.3174C47.2456 52.4485 47.2456 52.6358 47.1517 52.8044C46.4006 54.8836 45.6306 56.9441 44.8795 59.0234C44.6541 59.6041 44.6541 59.6041 44.0344 59.6041C43.5086 59.6041 43.0016 59.6041 42.4758 59.6041C41.7997 59.6041 41.7997 59.6041 41.5931 58.9859C40.4288 55.6142 39.3209 52.2424 38.1566 48.852C38.0251 48.4961 37.8937 48.1027 37.7998 47.7468C37.6683 47.3534 37.7622 47.2598 38.119 47.2598C39.058 47.2598 39.9969 47.2598 40.9734 47.2598C41.3302 47.2598 41.4241 47.4284 41.4993 47.7468C41.8936 49.2079 42.3443 50.6315 42.7387 52.0926C42.9077 52.7669 43.0955 53.3851 43.2645 54.0407C43.302 54.1718 43.302 54.2655 43.4335 54.3966C43.6025 54.3591 43.6025 54.1718 43.6588 54.0407C44.41 51.9989 45.1236 49.9572 45.8936 47.8592C46.1189 47.241 46.1189 47.241 46.7762 47.241C47.2269 47.241 47.6588 47.241 48.1095 47.241C48.6353 47.241 48.6916 47.2785 48.8231 47.7655C49.4428 49.4514 50.0249 51.0998 50.6447 52.7857C50.8137 53.3102 51.039 53.8909 51.2644 54.4715C51.4334 54.3404 51.4334 54.1531 51.4897 54.022C52.0719 52.0739 52.5977 50.107 53.1798 48.1214C53.4427 47.241 53.4427 47.241 54.3817 47.241C55.0953 47.241 55.8089 47.241 56.5225 47.241C57.0108 47.241 57.1047 47.3347 56.9169 47.8217C55.6774 51.6056 54.3817 55.3707 53.1235 59.1545C52.992 59.6041 52.9545 59.6041 52.4474 59.6041C51.8653 59.6041 51.2831 59.6041 50.6634 59.6041C50.1376 59.6041 50.0813 59.5666 49.9123 59.0796C49.3865 57.6185 48.8419 56.1949 48.3161 54.7338C48.0531 53.9845 47.7902 53.2727 47.5085 52.5047C47.5461 52.4485 47.5085 52.3548 47.4147 52.3174Z" fill="#1D1D1B"/>
<path d="M24.6162 59.641C24.1655 59.641 23.6772 59.641 23.2265 59.641C22.7383 59.641 22.7007 59.5473 22.8697 59.1165C23.2265 58.2362 23.5833 57.2996 23.9401 56.4005C25.6302 52.1299 27.3204 47.8781 29.0105 43.6075C29.3297 42.8582 29.1795 42.802 30.1748 42.802C30.663 42.802 31.1513 42.802 31.6959 42.802C32.0902 42.802 32.3156 42.9332 32.447 43.3265C33.6489 46.3421 34.8507 49.3203 36.0526 52.336C36.9352 54.5087 37.7803 56.6815 38.6817 58.873C39.0009 59.6222 39.0009 59.6784 38.1559 59.6784C37.3484 59.6784 36.5596 59.6784 35.7521 59.6784C35.17 59.6784 35.1324 59.6784 34.9446 59.0978C34.7193 58.4797 34.4939 57.8053 34.231 57.1872C34.062 56.7002 34.062 56.7002 33.555 56.7002C31.771 56.7002 29.987 56.7002 28.203 56.7002C27.6772 56.7002 27.6772 56.7002 27.4894 57.2247C27.264 57.8428 27.0011 58.4609 26.7758 59.1352C26.6067 59.6222 26.5504 59.6597 26.0246 59.6597C25.4988 59.641 25.0669 59.641 24.6162 59.641ZM30.8508 48.2339C30.8133 48.3651 30.7569 48.4587 30.7194 48.5524C30.1372 50.0696 29.5551 51.6242 28.9917 53.1227C28.9541 53.2538 28.8978 53.3474 28.8602 53.4785C28.8227 53.6471 28.8602 53.7408 29.0292 53.797C29.1607 53.797 29.2922 53.797 29.386 53.797C30.3626 53.797 31.3391 53.797 32.3156 53.797C32.9916 53.797 32.9916 53.797 32.7663 53.1789C32.2405 51.6617 31.6583 50.2007 31.1137 48.7022C31.0762 48.4962 31.0198 48.3651 30.8508 48.2339Z" fill="#1D1D1B"/>
<path d="M87.6571 58.6105C86.9059 59.2848 86.136 59.5845 85.291 59.6781C84.183 59.8093 83.1126 59.6781 82.0422 59.1911C81.1596 58.7416 80.5211 58.086 80.2206 57.1495C79.9577 56.4752 79.8638 55.7634 79.8263 55.0703C79.7887 53.7404 79.7324 52.3543 79.9201 51.0244C80.0516 49.8631 80.4084 48.8516 81.3849 48.1024C82.1924 47.4843 83.075 47.222 84.0515 47.1284C85.2534 47.0347 86.4177 47.222 87.3942 47.9713C87.4318 48.0087 87.4881 48.0087 87.5632 48.0649C87.6947 47.8964 87.6571 47.6716 87.6571 47.4843C87.6571 46.1918 87.6571 44.8994 87.6571 43.5695C87.6571 43.4384 87.6571 43.3073 87.6571 43.12C87.6571 42.8577 87.7886 42.7266 88.0515 42.7266C88.9341 42.7266 89.873 42.7266 90.7744 42.7266C91.0373 42.7266 91.1688 42.8577 91.1688 43.12C91.1688 43.2885 91.1688 43.4384 91.1688 43.607C91.1688 48.6269 91.1688 53.6468 91.1688 58.6105C91.1688 59.4908 91.1688 59.4908 90.2298 59.4908C89.6101 59.4908 88.9904 59.4908 88.3519 59.4908C87.7322 59.4908 87.7322 59.4534 87.6759 58.8727C87.7134 58.9289 87.6571 58.8353 87.6571 58.6105ZM87.582 53.4595C87.582 53.1036 87.582 52.7102 87.582 52.3543C87.582 51.9048 87.4505 51.474 87.2628 51.0619C87.0374 50.5749 86.6806 50.3127 86.2299 50.1253C85.7041 49.9942 85.1595 49.9568 84.6712 50.1253C83.8262 50.3501 83.5069 51.0057 83.3755 51.8111C83.2065 52.9163 83.2065 53.9839 83.3755 55.0891C83.4694 55.7072 83.6947 56.2504 84.2581 56.6063C85.4975 57.3555 87.0562 56.7374 87.4693 55.3138C87.6196 54.7144 87.6196 54.0963 87.582 53.4595Z" fill="#1D1D1B"/>
<path d="M22.7051 8.46879C22.7051 6.03384 22.7051 3.58016 22.7051 1.08902C22.7051 0.957904 22.7051 0.826789 22.7051 0.639485C22.7051 0.246147 22.7426 0.189957 23.1558 0.152496C23.2496 0.152496 23.3811 0.152496 23.475 0.152496C26.5923 0.152496 29.7472 0.152496 32.8645 0.152496C33.672 0.152496 33.672 0.152494 33.672 0.957901C33.672 1.53854 33.672 2.11919 33.672 2.73729C33.672 3.09317 33.5781 3.18682 33.2213 3.18682C33.0523 3.18682 32.9021 3.18682 32.733 3.18682C30.8176 3.18682 28.9021 3.18682 27.0242 3.18682C26.8928 3.18682 26.7613 3.18682 26.6674 3.18682C26.1416 3.18682 26.0853 3.22428 26.0853 3.76746C26.0853 4.64779 26.0853 5.49066 26.0853 6.38972C26.0853 6.87671 26.1228 6.91417 26.6111 6.91417C28.3012 6.91417 29.9538 6.91417 31.6439 6.91417C31.8129 6.91417 31.9631 6.91417 32.1321 6.91417C32.5265 6.91417 32.6204 6.95163 32.6204 7.40116C32.6204 8.07546 32.6204 8.73102 32.6204 9.34912C32.6204 9.83611 32.5265 9.92976 32.0007 9.92976C30.5359 9.92976 29.0711 9.92976 27.55 9.92976C27.1932 9.92976 26.874 9.92976 26.5172 9.92976C26.1228 9.92976 26.0665 9.96722 26.0665 10.3793C26.0665 11.3533 26.0665 12.3273 26.0665 13.3012C26.0665 13.6946 26.1041 13.7508 26.5548 13.7508C27.5313 13.7508 28.5641 13.7508 29.5406 13.7508C30.7049 13.7508 31.9068 13.7508 33.0523 13.7508C33.5781 13.7508 33.6344 13.7882 33.6344 14.3314C33.6344 15.0057 33.6344 15.6613 33.6344 16.2794C33.6344 16.6727 33.5405 16.7289 33.1462 16.7664C33.0523 16.7664 32.9208 16.7664 32.8269 16.7664C29.7096 16.7664 26.5548 16.7664 23.4374 16.7664C22.6863 16.7664 22.6863 16.7664 22.6863 16.0171C22.7051 13.5447 22.7051 11.0161 22.7051 8.46879Z" fill="#1D1D1B"/>
<path d="M71.4115 5.45272C71.5805 5.45272 71.6744 5.35907 71.7683 5.28415C73.1579 4.17905 75.5992 4.34762 76.8386 5.24669C77.5523 5.73368 77.9466 6.44544 78.2283 7.28832C78.679 8.84296 78.679 12.5703 78.2283 14.1812C77.7776 15.792 76.5757 16.8034 74.8856 16.9346C74.0781 16.972 73.327 16.972 72.5758 16.6723C72.219 16.5412 71.8997 16.279 71.5429 16.0542C71.4115 16.279 71.449 16.4476 71.449 16.6349C71.449 17.8711 71.449 19.1635 71.449 20.4184C71.449 20.5496 71.449 20.6807 71.449 20.868C71.449 21.1302 71.3176 21.2613 71.0547 21.2613C70.2472 21.2613 69.4585 21.2613 68.651 21.2613C68.388 21.2613 68.2566 21.1302 68.2566 20.868C68.2566 20.6994 68.2566 20.5496 68.2566 20.381C68.2566 15.3987 68.2566 10.4725 68.2566 5.50892C68.2566 4.62858 68.2566 4.62858 69.1392 4.62858C69.665 4.62858 70.2096 4.62858 70.7354 4.62858C71.3176 4.62858 71.3176 4.62858 71.3551 5.20923C71.4115 5.28415 71.4115 5.35907 71.4115 5.45272ZM75.4114 10.7909C75.4114 10.0417 75.3739 9.32995 75.1861 8.65565C75.0546 8.1312 74.7354 7.71912 74.2471 7.49436C73.0453 7.00736 71.881 7.58801 71.6181 8.82423C71.3927 9.92933 71.449 11.0906 71.5242 12.1957C71.5617 12.458 71.6181 12.7764 71.6932 13.0386C71.8622 13.5256 72.219 13.844 72.7636 14.0126C73.8715 14.3685 74.8481 13.844 75.1673 12.7202C75.2049 12.5891 75.2049 12.4954 75.2612 12.3643C75.3363 11.8024 75.4114 11.2217 75.4114 10.7909Z" fill="#1D1D1B"/>
<path d="M64.375 58.7981C64.2811 58.8356 64.2436 58.8356 64.206 58.8356C62.6098 59.9969 60.8258 59.9407 59.0418 59.36C57.1263 58.7419 56.1874 56.6066 56.8071 54.7335C57.2014 53.4973 58.1967 52.823 59.3986 52.4671C59.9244 52.336 60.469 52.2424 61.0511 52.2424C61.9901 52.2424 62.929 52.2424 63.8116 52.2424C64.3375 52.2424 64.4314 52.1487 64.3375 51.6242C64.2436 50.5566 63.8116 50.1071 62.6849 49.9385C62.1967 49.8448 61.7084 49.8448 61.2201 49.9385C60.638 50.0321 60.1497 50.2007 59.7554 50.6128C59.3986 50.9312 59.361 50.9312 59.0418 50.6128C58.516 50.1633 58.0089 49.6763 57.4831 49.2267C57.2202 48.9645 57.2202 48.8708 57.4831 48.6461C58.2906 47.9343 59.2108 47.4848 60.2812 47.3162C61.6145 47.1476 62.9478 47.1476 64.2436 47.4098C65.2764 47.6346 66.1966 48.028 66.9102 48.8334C67.5862 49.6388 67.7928 50.5566 67.7928 51.5493C67.7928 53.591 67.7928 55.6888 67.7928 57.7305C67.7928 58.18 67.7928 58.667 67.7928 59.1165C67.7928 59.5661 67.6989 59.641 67.267 59.641C66.5158 59.641 65.7459 59.641 65.0323 59.641C64.4501 59.641 64.4501 59.6035 64.3562 59.0603C64.4314 58.9667 64.375 58.9292 64.375 58.7981ZM62.9478 54.4526C62.591 54.4526 62.1967 54.4526 61.8399 54.4526C61.6145 54.4526 61.3892 54.49 61.1638 54.5462C60.4126 54.6773 60.0558 55.1269 60.0558 55.8761C60.0934 56.4942 60.4502 56.9438 61.1638 57.0374C61.746 57.1311 62.3281 57.1311 62.8915 57.0374C63.5112 56.9063 64.0933 56.5879 64.2248 55.9323C64.3187 55.6139 64.3187 55.3142 64.3562 54.9958C64.3562 54.5462 64.3187 54.5088 63.868 54.5088C63.5863 54.4526 63.2671 54.4526 62.9478 54.4526Z" fill="#1D1D1B"/>
<path d="M86.9054 33.4365C85.835 33.4365 84.727 33.4365 83.6566 33.4365C83.5252 33.4365 83.3937 33.4365 83.2998 33.4365C82.9806 33.474 82.943 33.5301 82.943 33.8298C83.0745 34.8975 83.7505 35.7403 84.6707 36.0026C85.8726 36.321 87.0369 36.1712 88.0509 35.3845C88.1448 35.347 88.2199 35.2534 88.2763 35.1597C88.4453 34.9911 88.6331 34.9911 88.8021 35.1597C89.2903 35.6467 89.8349 36.0962 90.3232 36.5832C90.5861 36.8455 90.5861 36.9391 90.2856 37.2013C89.1777 38.2315 87.9195 38.8496 86.3608 38.9245C85.2904 39.0182 84.22 38.9245 83.2059 38.6061C81.6848 38.1191 80.6144 37.0889 80.0886 35.628C79.3374 33.4927 79.2811 31.3199 80.0886 29.1472C81.0651 26.4313 83.5252 25.4198 86.0603 25.682C88.727 26.0005 90.342 27.8173 90.8302 30.3834C90.9617 31.2263 90.9241 32.0317 90.9241 32.8746C90.9241 33.3241 90.8866 33.3616 90.4359 33.3616C89.2716 33.4365 88.1073 33.4365 86.9054 33.4365ZM85.2153 31.0764C85.835 31.0764 86.511 31.0764 87.1307 31.0764C87.5251 31.0764 87.619 30.9828 87.5815 30.5895C87.45 29.8402 87.1308 29.2034 86.4171 28.8101C85.2153 28.1358 83.3374 28.5478 82.9806 30.4583C82.8867 30.9828 82.943 31.0764 83.4688 31.0764C84.051 31.0764 84.6331 31.0764 85.2153 31.0764Z" fill="#1D1D1B"/>
<path d="M44.9191 37.8761C44.2431 38.4005 43.5858 38.7564 42.8346 38.9437C41.8957 39.1123 41.0131 39.0749 40.168 38.7752C38.6469 38.2507 37.8582 37.0894 37.5389 35.5347C37.445 35.0851 37.4075 34.6543 37.4075 34.2048C37.4075 31.6199 37.4075 29.0912 37.4075 26.525C37.4075 26.4314 37.4075 26.3564 37.4075 26.2628C37.4075 26.0005 37.5389 25.8694 37.8018 25.8694C37.8957 25.8694 38.0272 25.8694 38.1211 25.8694C38.7408 25.8694 39.4168 25.8694 40.0365 25.8694C40.7501 25.8694 40.7501 25.9069 40.7501 26.5812C40.7501 28.8851 40.7501 31.2078 40.7501 33.5117C40.7501 33.8676 40.7877 34.261 40.8816 34.6169C41.1445 35.4972 41.8206 36.003 42.7971 36.003C43.7736 36.003 44.4872 35.5159 44.7501 34.673C44.844 34.3172 44.8815 33.9613 44.8815 33.6054C44.8815 31.3015 44.8815 28.9788 44.8815 26.6749C44.8815 25.9256 44.8815 25.8694 45.689 25.8694C46.2712 25.8694 46.8533 25.8694 47.3792 25.8694C48.2242 25.8694 48.2242 25.8694 48.2242 26.6749C48.2242 29.8217 48.2242 32.9873 48.2242 36.1341C48.2242 36.8459 48.2242 37.5202 48.2242 38.2132C48.2242 38.8313 48.1867 38.8875 47.5482 38.8875C46.8721 38.8875 46.2149 38.8875 45.5951 38.8875C45.013 38.8875 45.013 38.8501 44.9754 38.3069C44.9754 38.1945 44.9191 38.0634 44.9191 37.8761Z" fill="#1D1D1B"/>
<path d="M70.6051 26.7685C70.7741 26.7685 70.9243 26.5999 71.0558 26.5062C72.7834 25.27 75.6003 25.4386 77.0275 27.1244C77.7787 28.0047 78.0979 29.0349 78.0979 30.1962C78.0979 32.3314 78.0979 34.5042 78.0979 36.6395C78.0979 37.1639 78.0979 37.7446 78.0979 38.2878C78.0979 38.7748 78.0604 38.8122 77.5158 38.8122C76.8022 38.8122 76.051 38.8122 75.3374 38.8122C74.7552 38.8122 74.7177 38.7748 74.7177 38.1941C74.7177 36.1525 74.7177 34.0547 74.7177 32.013C74.7177 31.6572 74.7177 31.2638 74.7177 30.9079C74.7177 30.6457 74.6801 30.3835 74.5862 30.1025C74.3609 29.2596 73.6097 28.7165 72.6708 28.679C71.7881 28.679 71.0182 29.166 70.7177 29.9714C70.5863 30.3273 70.5863 30.6832 70.5863 31.0765C70.5863 33.3804 70.5863 35.7029 70.5863 38.0068C70.5863 38.756 70.5863 38.756 69.8351 38.756C69.1591 38.756 68.5018 38.756 67.7882 38.756C67.2999 38.756 67.2624 38.7186 67.2061 38.2316C67.2061 37.8757 67.2061 37.5198 67.2061 37.1639C67.2061 33.6051 67.2061 30.1025 67.2061 26.5437C67.2061 25.7383 67.2061 25.7383 68.0136 25.7383C68.6333 25.7383 69.2154 25.7383 69.8351 25.7383C70.4173 25.7383 70.4548 25.7758 70.5112 26.3564C70.5675 26.5999 70.5299 26.731 70.6051 26.7685Z" fill="#1D1D1B"/>
<path d="M54.9847 25.7004C56.0175 25.7004 56.8626 25.7941 57.7076 26.0189C58.4213 26.1874 59.0973 26.5059 59.6607 26.9929C59.9236 27.2176 59.9236 27.2551 59.6982 27.5735C59.21 28.1542 58.6654 28.6412 58.1771 29.1282C58.0081 29.2968 57.8203 29.2968 57.595 29.1656C56.656 28.5475 55.5856 28.4539 54.5152 28.4913C54.2523 28.4913 53.933 28.585 53.7077 28.7161C53.3133 28.9409 53.088 29.2406 53.1255 29.6901C53.1631 30.1396 53.4448 30.4019 53.8767 30.533C54.4589 30.7016 55.041 30.6641 55.6044 30.7578C56.4119 30.8514 57.2569 30.8889 58.0081 31.2073C59.6607 31.8254 60.4118 33.3426 60.2804 35.0284C60.1489 36.7516 59.1724 37.8755 57.6137 38.4936C56.4494 38.9431 55.2476 39.0742 54.0457 38.9806C53.3697 38.9431 52.7499 38.8869 52.0927 38.7558C51.1162 38.531 50.2711 38.0815 49.5012 37.4259C49.1819 37.1637 49.1819 37.1075 49.5012 36.8078C49.9894 36.2833 50.534 35.7776 51.0598 35.2531C51.3791 34.9347 51.4166 34.9347 51.7359 35.2157C52.9753 36.1522 54.365 36.3208 55.8297 36.0586C56.0926 36.0211 56.318 35.89 56.5433 35.7401C56.9377 35.4779 57.0691 35.122 56.994 34.6725C56.9001 34.2791 56.6372 33.9982 56.2804 33.9233C55.6607 33.7547 55.041 33.7547 54.365 33.6985C53.7452 33.6048 53.1255 33.5674 52.5434 33.4363C50.4589 32.9118 49.6889 31.3571 49.9519 29.4466C50.1772 27.7234 51.2852 26.6932 52.8814 26.1125C53.6138 25.7941 54.365 25.7004 54.9847 25.7004Z" fill="#1D1D1B"/>
<path d="M107.979 25.7004C109.5 25.7379 110.608 25.869 111.679 26.3186C112.073 26.4872 112.43 26.7119 112.787 26.9929C113.106 27.2177 113.106 27.3488 112.824 27.5736C112.336 28.0981 111.791 28.6038 111.265 29.1283C111.096 29.2969 110.946 29.2969 110.74 29.1657C109.801 28.4914 108.73 28.454 107.622 28.4914C107.303 28.4914 107.003 28.6225 106.74 28.8098C106.383 29.0346 106.251 29.3905 106.289 29.7839C106.327 30.1772 106.608 30.4582 106.965 30.5893C107.547 30.7579 108.167 30.7579 108.749 30.8141C109.369 30.9078 110.045 30.9078 110.665 31.0763C112.355 31.5634 113.294 32.5936 113.463 34.3169C113.594 35.7779 113.068 37.2951 111.51 38.1755C110.758 38.6251 109.913 38.8498 109.012 38.9248C107.904 39.0559 106.777 39.0184 105.669 38.8311C104.561 38.6625 103.528 38.213 102.683 37.4075C102.327 37.0891 102.327 37.0516 102.683 36.7332C103.172 36.2087 103.716 35.703 104.242 35.1785C104.505 34.9163 104.561 34.9163 104.862 35.141C106.101 36.0776 107.528 36.2462 109.012 35.9839C109.275 35.9465 109.5 35.8154 109.726 35.6655C110.082 35.4033 110.214 34.9912 110.12 34.5978C110.026 34.2045 109.763 33.9797 109.369 33.8486C108.749 33.7175 108.129 33.68 107.491 33.6238C106.777 33.5301 106.026 33.4927 105.35 33.2679C103.566 32.6872 102.909 31.3199 103.04 29.5778C103.172 27.892 104.148 26.7869 105.669 26.15C106.496 25.8503 107.434 25.7004 107.979 25.7004Z" fill="#1D1D1B"/>
<path d="M96.8019 39.0746C95.9193 38.981 95.0179 38.981 94.1729 38.7562C93.2339 38.5314 92.3889 38.0819 91.6377 37.4263C91.3185 37.1641 91.2809 37.0704 91.6001 36.8082C92.126 36.2837 92.6705 35.7405 93.1964 35.2161C93.4593 34.9538 93.5156 34.9538 93.8161 35.1786C95.0179 36.1152 96.4076 36.2463 97.8723 36.0215C98.1352 35.984 98.3981 35.8904 98.6235 35.7031C99.0178 35.4783 99.2056 35.1224 99.1117 34.6729C99.0742 34.2233 98.7925 33.9611 98.3606 33.8674C97.7409 33.6989 97.1212 33.6989 96.4451 33.6427C95.8254 33.549 95.2057 33.5116 94.6236 33.3804C92.5767 32.856 91.7692 31.3388 91.9945 29.3908C92.2199 27.5739 93.3841 26.5999 95.0179 26.0192C95.9944 25.7008 96.9709 25.6633 97.9474 25.757C99.0179 25.8506 100.088 26.0192 101.027 26.5624C101.29 26.6935 101.515 26.8808 101.778 27.0869C101.947 27.218 101.947 27.3491 101.816 27.5364C101.29 28.0609 100.746 28.6415 100.22 29.1847C100.051 29.3533 99.9005 29.3533 99.6939 29.2222C98.7549 28.6041 97.6845 28.5104 96.6141 28.5479C96.2573 28.5479 95.9381 28.6415 95.6752 28.8663C95.3184 29.1285 95.1494 29.447 95.2245 29.8965C95.2621 30.2898 95.5813 30.5708 95.9381 30.6457C96.5202 30.8143 97.1024 30.7769 97.6658 30.8705C98.2479 30.908 98.8301 30.9642 99.3559 31.0953C100.558 31.3575 101.591 31.9756 102.079 33.1744C102.792 34.9538 102.342 37.1641 100.351 38.2879C99.6376 38.6813 98.8301 38.9061 98.0413 38.9997C97.647 39.0372 97.1963 39.0372 96.8019 39.0746Z" fill="#1D1D1B"/>
<path d="M97.8158 16.0171C97.7219 16.0546 97.6468 16.0546 97.5905 16.1108C96.351 17.0473 94.9238 17.0473 93.4966 16.7289C92.107 16.4105 91.2619 15.4927 90.9051 14.1066C90.7736 13.4885 90.7361 12.8703 90.9051 12.196C91.2243 10.8661 92.107 10.1169 93.3464 9.70479C93.8722 9.57368 94.3792 9.48002 94.9051 9.48002C95.7126 9.48002 96.4637 9.48002 97.2712 9.48002C97.7219 9.48002 97.797 9.38637 97.7595 8.95555C97.7595 8.73078 97.7219 8.50601 97.6656 8.33743C97.5717 7.88789 97.3463 7.58819 96.952 7.40088C96.013 7.04499 95.0741 7.04499 94.1539 7.43834C93.891 7.532 93.7032 7.75677 93.5342 7.92535C93.4027 8.05647 93.2149 8.09393 93.0835 7.96281C92.5577 7.4758 92.0131 6.9326 91.5248 6.4456C91.3558 6.27702 91.3934 6.08971 91.5624 5.95859C92.0506 5.47159 92.6328 5.07824 93.29 4.79727C93.6468 4.66615 94.0412 4.5725 94.4543 4.53504C95.6187 4.44138 96.8205 4.40392 97.966 4.70362C99.9191 5.19062 100.989 6.57672 101.046 8.61839C101.083 9.81718 101.046 11.016 101.046 12.1773C101.046 13.5072 101.046 14.8371 101.046 16.167C101.046 16.7476 101.008 16.7851 100.426 16.7851C99.8064 16.7851 99.1303 16.7851 98.5106 16.7851C97.9848 16.7851 97.9848 16.7851 97.9285 16.2606C97.8534 16.2044 97.8158 16.167 97.8158 16.0171ZM96.4449 11.709C96.0881 11.7465 95.6938 11.709 95.337 11.7465C95.168 11.7465 95.0177 11.7839 94.8487 11.8401C94.2666 11.9712 93.9661 12.3646 93.9098 12.9452C93.8722 13.6196 94.0788 14.0129 94.7173 14.2377C95.4309 14.4625 96.1445 14.4625 96.8581 14.2002C97.2524 14.0691 97.5717 13.7507 97.6656 13.3573C97.7595 13.0014 97.797 12.6081 97.797 12.196C97.797 11.9338 97.6656 11.8027 97.4027 11.8027C97.1022 11.709 96.7454 11.709 96.4449 11.709Z" fill="#1D1D1B"/>
<path d="M97.9093 59.7723C96.3507 59.7723 95.0549 59.6412 93.8531 59.098C93.3648 58.8732 92.9141 58.611 92.4634 58.2551C92.1066 57.9367 92.1066 57.8992 92.4259 57.5808C92.9517 57.0938 93.4963 56.6068 94.0221 56.1198C94.2474 55.9512 94.3789 55.8951 94.6418 56.0824C95.1676 56.4757 95.8061 56.7567 96.4634 56.8878C97.2145 57.0189 98.022 57.0189 98.8295 56.9252C99.1863 56.8878 99.5056 56.7941 99.7685 56.5694C100.388 56.1198 100.294 55.2769 99.5995 54.9773C99.2802 54.8461 98.9234 54.8087 98.623 54.7525C97.8155 54.6588 97.0267 54.6214 96.2192 54.5277C95.4681 54.4341 94.7545 54.2093 94.1347 53.816C93.3836 53.329 92.9704 52.6172 92.839 51.7743C92.5761 49.9949 93.4211 48.534 95.0174 47.7847C95.7685 47.4288 96.6136 47.2603 97.4211 47.1666C98.6605 47.073 99.9563 47.1666 101.158 47.56C101.684 47.7285 102.229 47.9533 102.679 48.3092C103.13 48.6276 103.13 48.6651 102.773 49.0209C102.285 49.4705 101.797 49.9013 101.346 50.3508C101.177 50.5194 100.989 50.5756 100.726 50.4445C99.6558 49.8264 98.4915 49.7702 97.2896 49.8638C97.0267 49.8638 96.7638 49.9949 96.4821 50.1822C96.1629 50.407 96.0878 50.7067 96.0878 51.0626C96.1253 51.4185 96.3507 51.6432 96.6699 51.7369C97.1206 51.9055 97.6089 51.9055 98.0971 51.9616C98.9422 52.0553 99.8248 52.0553 100.689 52.3175C101.759 52.5798 102.642 53.1229 103.13 54.1344C103.806 55.5204 103.618 57.637 101.834 58.7983C101.027 59.3228 100.144 59.5475 99.2427 59.7348C98.792 59.7348 98.1723 59.7723 97.9093 59.7723Z" fill="#1D1D1B"/>
<path d="M106.099 5.45336C106.23 5.49082 106.324 5.35971 106.418 5.32225C107.657 4.44194 109.047 4.2921 110.474 4.74162C111.901 5.19114 112.972 6.65209 113.066 8.30034C113.103 9.01208 113.066 9.68636 113.066 10.3794C113.066 12.2524 113.066 14.1629 113.066 16.0171C113.066 16.1857 113.066 16.3355 113.066 16.5041C113.066 16.7289 112.934 16.86 112.746 16.86C111.939 16.86 111.094 16.86 110.305 16.86C110.08 16.86 109.986 16.7289 109.948 16.5416C109.948 16.373 109.948 16.2232 109.948 16.0546C109.948 13.9755 109.948 11.8778 109.948 9.8362C109.948 9.61144 109.948 9.38668 109.948 9.21811C109.854 8.15049 109.103 7.43875 108.07 7.43875C107 7.43875 106.249 8.15049 106.155 9.21811C106.155 9.44287 106.155 9.66763 106.155 9.8362C106.155 11.9152 106.155 14.013 106.155 16.0546C106.155 16.2232 106.155 16.373 106.155 16.5416C106.155 16.7663 106.023 16.8974 105.798 16.8974C104.991 16.8974 104.202 16.8974 103.394 16.8974C103.131 16.8974 103 16.7663 103 16.5041C103 16.373 103 16.2419 103 16.0546C103 12.5521 103 9.03081 103 5.49082V5.45336C103 4.70416 103.038 4.70416 103.807 4.64797C104.39 4.64797 104.972 4.64797 105.498 4.64797C106.08 4.64797 106.08 4.64797 106.117 5.2286C106.005 5.28479 106.005 5.35971 106.099 5.45336Z" fill="#1D1D1B"/>
<path d="M42.248 15.9796C41.9851 15.9796 41.8912 16.1482 41.7597 16.2418C39.9757 17.4781 36.3701 17.3469 35.3936 14.069C35.2622 13.6756 35.2246 13.2636 35.2246 12.8702C35.2246 10.3415 35.2246 7.81281 35.2246 5.22792C35.2246 4.70345 35.2622 4.64726 35.8068 4.64726C36.4828 4.64726 37.1401 4.64726 37.7598 4.64726C38.3419 4.64726 38.3795 4.68472 38.3795 5.26538C38.3795 7.21342 38.3795 9.18018 38.3795 11.1282C38.3795 11.5216 38.3795 11.9337 38.3795 12.2895C38.4734 13.6756 39.6752 14.4624 41.0085 13.9753C41.6846 13.7131 42.0789 13.2261 42.1728 12.5143C42.2104 12.2521 42.2104 11.9337 42.2104 11.6714C42.2104 9.62973 42.2104 7.6255 42.2104 5.58381C42.2104 5.41523 42.2104 5.26538 42.2104 5.0968C42.248 4.70345 42.3043 4.64726 42.6987 4.60979C43.4123 4.60979 44.1634 4.60979 44.877 4.60979C45.2714 4.60979 45.3653 4.70345 45.3653 5.0968C45.3653 5.22792 45.3653 5.35904 45.3653 5.45269C45.3653 8.95541 45.3653 12.4769 45.3653 15.9421C45.3653 16.0358 45.3653 16.0732 45.3653 16.1669C45.3653 16.6914 45.3277 16.7476 44.7456 16.785C44.1259 16.785 43.5062 16.785 42.8677 16.785C42.2855 16.785 42.2855 16.785 42.248 16.2044C42.2855 16.1669 42.248 16.0732 42.248 15.9796Z" fill="#1D1D1B"/>
<path d="M86.4153 11.7089C85.3824 11.7089 84.3683 11.7089 83.2979 11.7089C82.6782 11.7089 82.5843 11.84 82.7158 12.4207C82.9411 13.3947 83.7486 14.1064 84.7627 14.2001C85.8331 14.2937 86.8472 14.1626 87.6547 13.3572C87.8237 13.1886 87.9739 13.1886 88.143 13.3572C88.6312 13.8067 89.1195 14.2376 89.5702 14.7433C89.7955 14.9681 89.7955 15.0617 89.5326 15.324C88.4622 16.3542 87.1664 16.9723 85.6641 16.9723C84.8566 16.9723 84.0679 16.9723 83.2604 16.8037C81.6642 16.4103 80.4999 15.4176 79.974 13.8817C79.2604 11.84 79.2229 9.74213 80.0116 7.66299C80.7628 5.75243 82.5092 4.59112 84.5561 4.55365C85.7956 4.51619 86.9223 4.77843 87.9364 5.4902C89.1382 6.37056 89.7204 7.56934 89.9833 8.99289C90.1148 9.74213 90.1148 10.5101 90.0772 11.2593C90.0772 11.6527 89.9833 11.7463 89.5514 11.7463C88.5937 11.7089 87.5232 11.7089 86.4153 11.7089ZM84.8566 9.49862C85.3073 9.49862 85.7392 9.49862 86.1899 9.49862C87.1289 9.49862 87.2228 9.36751 86.866 8.46842C86.5092 7.49441 85.6641 7.00741 84.6313 7.08233C83.5233 7.21345 82.9036 7.92523 82.7158 8.95543C82.6219 9.34878 82.7158 9.47989 83.1665 9.47989C83.7486 9.53608 84.2745 9.49862 84.8566 9.49862Z" fill="#1D1D1B"/>
<path d="M66.7018 10.6039C66.7018 11.5405 66.7018 12.4208 66.5328 13.2636C66.1384 15.2116 64.392 16.7662 62.1761 16.8973C61.5563 16.9347 60.9742 16.9347 60.3545 16.8036C58.3076 16.3541 56.8803 14.8931 56.5611 12.8516C56.3358 11.3906 56.3358 9.92966 56.5611 8.44998C56.9555 6.14617 58.8334 4.53538 61.1995 4.49792C62.4014 4.46046 63.5657 4.62903 64.6361 5.34078C65.6126 6.01506 66.2323 6.89538 66.5516 8.05665C66.7018 8.91824 66.7018 9.81728 66.7018 10.6039ZM63.5282 10.6976C63.5282 10.4354 63.5282 10.1732 63.5282 9.8922C63.5282 9.53633 63.4906 9.18046 63.3967 8.82458C63.2277 8.1503 62.8709 7.62586 62.1573 7.40109C60.9554 7.04522 59.885 7.66331 59.6597 8.91823C59.4906 9.8922 59.5282 10.9224 59.5658 11.8963C59.6033 12.2522 59.6597 12.6081 59.7911 12.9265C60.0165 13.4135 60.3169 13.7693 60.824 13.9566C61.9883 14.4062 63.0962 13.7881 63.4155 12.5332C63.5282 11.9338 63.5845 11.3157 63.5282 10.6976Z" fill="#1D1D1B"/>
<path d="M17.8377 51.1186C17.9316 55.3331 14.4951 59.6038 9.33084 59.6413C4.42951 59.6413 0.823935 55.689 0.786377 51.1186C0.786377 46.5856 4.35439 42.5959 9.33084 42.6333C14.7392 42.6333 17.9316 47.0352 17.8377 51.1186ZM9.29328 58.0491C13.0866 58.1802 16.2791 54.9772 16.2791 51.156C16.3166 47.2412 13.0303 44.188 9.36839 44.1318C5.80038 44.0944 2.32626 46.979 2.32626 51.0624C2.34504 55.1458 5.7816 58.124 9.29328 58.0491Z" fill="#1D1D1B"/>
<path d="M17.8378 30.4212C17.9317 34.8979 14.1008 38.9063 9.29331 38.9063C4.61731 38.8688 0.786377 35.0852 0.786377 30.3275C0.786377 25.626 4.61731 21.8424 9.33086 21.8424C14.1571 21.8424 17.988 25.9257 17.8378 30.4212ZM16.3355 30.365C16.3355 26.5438 13.2557 23.397 9.42476 23.397C5.49993 23.397 2.3826 26.4689 2.34504 30.3275C2.34504 34.1861 5.46237 37.2954 9.33086 37.3516C13.1806 37.3516 16.2979 34.2423 16.3355 30.365Z" fill="#1D1D1B"/>
<path d="M73.4961 48.2341C74.2473 47.6159 75.0923 47.2975 76.0313 47.2039C77.2707 47.0727 78.435 47.2413 79.4678 48.0467C79.8622 48.3652 79.8622 48.4026 79.5054 48.7211C78.8857 49.3017 78.266 49.8824 77.6275 50.4443C77.3083 50.7627 77.2707 50.7627 76.9139 50.4818C76.4256 50.0884 75.8435 49.9948 75.2613 50.0322C74.2848 50.1259 73.5337 50.8751 73.4773 51.8491C73.4398 52.5234 73.4773 53.179 73.4773 53.7972C73.4773 55.4829 73.4773 57.1313 73.4773 58.817C73.4773 59.5663 73.4398 59.6225 72.7262 59.6225C72.0501 59.6225 71.3928 59.6225 70.7731 59.6225C70.022 59.6225 70.022 59.585 70.022 58.817C70.022 57.1687 70.022 55.5391 70.022 53.9283C70.022 52.0552 70.022 50.1446 70.022 48.2903C70.022 48.1591 70.022 48.028 70.022 47.8407C70.022 47.3162 70.1159 47.26 70.6041 47.26C71.3553 47.26 72.1252 47.26 72.8388 47.26C73.3646 47.26 73.421 47.2975 73.421 47.8407C73.421 47.9531 73.3646 48.0842 73.4961 48.2341Z" fill="#1D1D1B"/>
<path d="M50.6619 5.54623C51.6384 4.70334 52.7464 4.38491 54.0046 4.47856C54.812 4.51603 55.5256 4.79699 56.1454 5.32146C56.4646 5.5837 56.4646 5.67735 56.1829 5.93959C55.6008 6.52025 54.9811 7.13837 54.3989 7.71904C54.1736 7.94381 54.0421 7.94381 53.8168 7.71904C53.3661 7.36315 52.8778 7.19457 52.352 7.26949C51.4694 7.40061 50.7933 8.07493 50.6994 8.95529C50.6619 9.21752 50.6619 9.53595 50.6619 9.79818C50.6619 11.8399 50.6619 13.8816 50.6619 15.9232C50.6619 16.7287 50.6619 16.7287 49.8544 16.7287C49.2347 16.7287 48.615 16.7287 47.9765 16.7287C47.5258 16.7287 47.4882 16.635 47.4507 16.2417C47.4507 16.1105 47.4507 15.9794 47.4507 15.8858C47.4507 12.4205 47.4507 8.91782 47.4507 5.45258C47.4507 4.57222 47.4507 4.57222 48.3333 4.57222C48.8591 4.57222 49.4037 4.57222 49.9295 4.57222C50.5117 4.57222 50.5117 4.60968 50.5492 5.15288C50.568 5.32146 50.5304 5.41512 50.6619 5.54623Z" fill="#1D1D1B"/>
<path d="M65.0501 32.3691C65.0501 34.2421 65.0501 36.0964 65.0501 37.9694C65.0501 38.0631 65.0501 38.138 65.0501 38.2317C65.0501 38.8498 65.0126 38.906 64.3741 38.906C63.6605 38.906 62.9469 38.906 62.2332 38.906C61.6511 38.906 61.6135 38.8685 61.6135 38.2879C61.6135 36.7332 61.6135 35.1786 61.6135 33.624C61.6135 31.3201 61.6135 28.9976 61.6135 26.6937C61.6135 25.8883 61.6511 25.8883 62.421 25.8883C63.0971 25.8883 63.7544 25.8883 64.3741 25.8883C64.9562 25.8883 64.9938 25.9258 64.9938 26.5626C65.0501 28.4544 65.0501 30.4211 65.0501 32.3691Z" fill="#1D1D1B"/>
<path d="M63.3592 23.8451C62.9648 23.8451 62.5516 23.8451 62.1196 23.8451C61.7253 23.8451 61.6313 23.7514 61.6313 23.3582C61.6313 22.7403 61.6313 22.1223 61.6313 21.4857C61.6313 21.1299 61.7252 21.0363 62.0821 21.0363C62.9272 21.0363 63.7723 21.0363 64.5799 21.0363C64.9743 21.0363 65.0682 21.1299 65.0682 21.5606C65.0682 22.1411 65.0682 22.7215 65.0682 23.3395C65.0682 23.7889 64.9743 23.8263 64.5799 23.8263C64.1479 23.8451 63.7535 23.8451 63.3592 23.8451Z" fill="#1D1D1B"/>
<path d="M112.202 48.6639C111.977 49.2819 111.751 49.8998 111.526 50.5365C111.488 50.6301 111.488 50.7612 111.432 50.8548C111.338 51.0795 111.301 51.3417 111.038 51.3417C110.718 51.3417 110.681 51.0795 110.643 50.8548C110.418 50.2369 110.193 49.6189 110.024 48.9823C109.986 48.8886 109.93 48.8137 109.892 48.589C109.855 49.3942 109.798 50.0496 109.761 50.6675C109.761 50.7612 109.761 50.8923 109.761 50.9859C109.761 51.2106 109.629 51.3417 109.404 51.3417C109.178 51.3042 109.141 51.1731 109.141 50.9484C109.178 50.499 109.178 50.0683 109.235 49.6189C109.272 49.001 109.329 48.3831 109.366 47.7464C109.404 47.3906 109.723 47.2595 110.042 47.3906C110.211 47.4842 110.268 47.6153 110.305 47.7838C110.531 48.4018 110.756 49.0197 110.981 49.6564C111.019 49.7875 111.019 49.9185 111.15 50.0122C111.319 49.9747 111.319 49.7875 111.376 49.6564C111.601 48.9823 111.864 48.3643 112.089 47.7089C112.183 47.4842 112.315 47.3532 112.54 47.3532C112.859 47.3532 112.991 47.4468 112.991 47.7464C113.085 48.7763 113.122 49.7875 113.216 50.8174C113.216 50.911 113.216 50.9484 113.216 51.0421C113.216 51.2106 113.122 51.3042 112.953 51.3042C112.784 51.3042 112.634 51.2668 112.634 51.0795C112.596 50.911 112.596 50.7237 112.596 50.5552C112.559 49.9373 112.503 49.2631 112.503 48.6452C112.24 48.6639 112.24 48.6639 112.202 48.6639Z" fill="#1D1D1B"/>
<path d="M107.341 47.3908C107.698 47.3908 108.092 47.3908 108.449 47.3908C108.618 47.3908 108.768 47.4844 108.768 47.6529C108.768 47.8776 108.637 47.9151 108.449 47.9151C108.412 47.9151 108.355 47.9151 108.355 47.9151C107.642 47.9525 107.642 47.9525 107.642 48.6641C107.642 49.3382 107.642 49.9936 107.642 50.7052C107.642 50.8362 107.642 50.9673 107.642 51.0609C107.642 51.2295 107.51 51.2856 107.322 51.2856C107.153 51.2856 107.059 51.192 107.059 51.0235C107.059 50.8924 107.059 50.7613 107.059 50.6677C107.059 49.9561 107.059 49.2446 107.059 48.533C107.059 47.9525 107.059 47.9525 106.477 47.9151C106.383 47.9151 106.308 47.9151 106.214 47.9151C106.045 47.9151 105.895 47.8215 105.895 47.5967C105.895 47.4282 106.026 47.372 106.158 47.3346C106.421 47.3346 106.74 47.3346 107.003 47.3346C107.135 47.3346 107.21 47.3346 107.341 47.3908C107.341 47.3346 107.341 47.3908 107.341 47.3908Z" fill="#1D1D1B"/>
</svg>
