<svg width="96" height="31" viewBox="0 0 96 31" fill="none" xmlns="http://www.w3.org/2000/svg">
<path d="M30.9084 1.26538H21.9406L0.277344 30.2538H9.24551L30.9084 1.26538Z" fill="#271D67"/>
<path d="M43.4047 1.26538H34.4386L12.7754 30.2538H21.7414L43.4047 1.26538Z" fill="#271D67"/>
<path d="M89.2079 1.26538H83.4815C81.5808 1.26538 79.9275 2.54035 79.4835 4.34738L73.1318 30.2538H82.1L89.2079 1.26538Z" fill="#271D67"/>
<path d="M40.7782 9.87427L34.7986 17.8772L35.933 20.4366H32.8857L28.1748 26.741H38.7278L40.2859 30.2538H49.2537L40.7782 9.87427Z" fill="#271D67"/>
<path d="M95.4012 2.61852C95.4012 2.98245 95.3106 3.32011 95.1233 3.63359C94.9386 3.94848 94.6858 4.19612 94.3639 4.37651C94.0448 4.55865 93.6978 4.64867 93.3258 4.64867C92.9544 4.64867 92.6103 4.55865 92.2884 4.37651C91.9697 4.19612 91.7137 3.94848 91.5321 3.63359C91.3445 3.32011 91.2539 2.98245 91.2539 2.61852C91.2539 2.256 91.3445 1.91834 91.5321 1.60485C91.7137 1.28856 91.9701 1.04232 92.2884 0.861936C92.6103 0.679798 92.9544 0.588379 93.3258 0.588379C93.6978 0.588379 94.0452 0.680148 94.3639 0.861936C94.6858 1.04232 94.9386 1.28856 95.1233 1.60485C95.3106 1.91834 95.4012 2.25635 95.4012 2.61852ZM95.0012 2.61852C95.0012 2.16598 94.8387 1.78068 94.5107 1.46124C94.1823 1.14005 93.7884 0.979625 93.3254 0.979625C92.8631 0.979625 92.4692 1.14005 92.1409 1.46124C91.8129 1.78068 91.6503 2.16598 91.6503 2.61852C91.6503 3.06966 91.8129 3.45636 92.1409 3.7772C92.4692 4.09665 92.8631 4.25742 93.3254 4.25742C93.7884 4.25742 94.1823 4.097 94.5107 3.7772C94.8387 3.45636 95.0012 3.06966 95.0012 2.61852ZM92.3847 1.5334H93.3788C93.6566 1.5334 93.86 1.58979 93.9882 1.70013C94.1135 1.81151 94.1787 1.96002 94.1787 2.14636C94.1787 2.29172 94.1286 2.41712 94.0319 2.52395C93.9349 2.62938 93.782 2.70609 93.5786 2.75477C93.6631 2.78525 93.7254 2.82063 93.7658 2.85565C93.8221 2.90469 93.8815 2.97965 93.941 3.07597C93.9442 3.08332 94.0659 3.29278 94.3005 3.70295H93.6506C93.4375 3.29138 93.2943 3.0455 93.2223 2.96423C93.1471 2.88332 93.0787 2.84374 93.0039 2.84374C92.9913 2.84374 92.9663 2.84514 92.9376 2.85005V3.7033H92.3844V1.5334H92.3847ZM92.938 2.45495H93.1754C93.3347 2.45495 93.4475 2.42903 93.513 2.37859C93.5789 2.32675 93.6101 2.2637 93.6101 2.18279C93.6101 2.10328 93.5789 2.03743 93.5163 1.98699C93.454 1.93656 93.3505 1.91063 93.1972 1.91063H92.9376V2.45495H92.938Z" fill="#271D67"/>
<path d="M73.0402 1.26538H60.3244H57.9488H54.5983C52.6976 1.26538 51.0454 2.53895 50.6021 4.34738L47.3604 17.5696L52.6349 30.2538H53.2164L58.5927 8.32396L66.1539 8.28088C67.1508 8.27492 67.9293 9.11731 67.823 10.0865L67.4824 13.1899C67.3231 14.6512 66.0633 15.7598 64.5598 15.7598H60.0372L58.4025 21.6838H69.4082C71.224 21.6838 72.8311 20.5248 73.3686 18.8281L76.4538 4.60272C76.4535 2.75927 74.928 1.26538 73.0402 1.26538Z" fill="#271D67"/>
</svg>
