<svg width="106" height="24" viewBox="0 0 106 24" fill="none" xmlns="http://www.w3.org/2000/svg">
<path d="M31.3181 14.299C30.9186 13.7435 30.224 13.2922 29.3731 13.2922C27.8101 13.2922 26.6987 14.4725 26.6987 16.0869C26.6987 17.7012 27.8275 18.8816 29.3731 18.8816C30.1024 18.8816 30.7797 18.5691 31.127 18.2567C31.1444 18.2393 31.1618 18.2046 31.1618 18.1699V17.302C31.1618 17.2499 31.1097 17.1978 31.0576 17.1978H29.0605C28.9736 17.1978 28.9215 17.1284 28.9215 17.0589V15.7571C28.9215 15.6703 28.991 15.6182 29.0605 15.6182H32.6552V13.6914L31.4917 14.3337C31.457 14.3684 31.3701 14.351 31.3181 14.299ZM14.473 15.2016H16.609C17.2168 15.2016 17.5989 14.8544 17.5989 14.3163C17.5989 13.7956 17.2168 13.431 16.609 13.431H14.473C14.4035 13.431 14.3341 13.4831 14.3341 13.5699V15.0974C14.3514 15.1495 14.4035 15.2016 14.473 15.2016ZM23.1734 20.2182C23.1734 20.2876 23.1213 20.3397 23.0518 20.3397H21.4715C21.402 20.3397 21.3499 20.2876 21.3499 20.2182V11.9382C21.3499 11.8688 21.402 11.8167 21.4715 11.8167H23.0518C23.1213 11.8167 23.1734 11.8688 23.1734 11.9382V20.2182ZM32.2211 0.394837L16.609 11.8167H17.0084C18.6235 11.8167 19.457 12.8582 19.457 13.9865C19.457 14.8718 18.9882 15.5314 18.3803 15.8091C18.2762 15.8612 18.2762 16.0001 18.3803 16.0521C19.1097 16.3472 19.6133 17.1284 19.6133 18.031C19.6133 19.3155 18.7798 20.3397 17.1474 20.3397H12.6669C12.5975 20.3397 12.528 20.2876 12.528 20.2008V14.8023L0.944842 23.2733C0.719084 23.4295 0.840646 23.794 1.1185 23.794H32.3774C32.5337 23.794 32.6552 23.6725 32.6552 23.5163V19.2287C31.8217 20.0099 30.7102 20.4959 29.3731 20.4959C26.8723 20.4959 24.8405 18.7774 24.8405 16.0869C24.8405 13.3963 26.8897 11.6778 29.3731 11.6778C30.9534 11.6778 31.9953 12.3895 32.6552 13.2574V0.637854C32.6726 0.394836 32.4121 0.273328 32.2211 0.394837ZM14.473 18.7427H16.6785C17.3558 18.7427 17.7552 18.3782 17.7552 17.7706C17.7552 17.2325 17.3731 16.7986 16.6785 16.7986H14.473C14.4035 16.7986 14.3341 16.8506 14.3341 16.9374V18.6038C14.3514 18.6906 14.4035 18.7427 14.473 18.7427ZM41.7377 18.4823L40.7652 17.9789C40.6957 17.9442 40.6263 17.9616 40.5915 18.031C40.1747 18.6733 39.4106 19.1593 38.5944 19.1593C36.962 19.1593 35.7638 17.8574 35.7638 16.0869C35.7638 14.2816 36.962 13.0144 38.5944 13.0144C39.428 13.0144 40.1747 13.4831 40.5915 14.1427C40.6263 14.2122 40.7131 14.2295 40.7652 14.1948L41.7377 13.674C41.8071 13.6393 41.8419 13.5352 41.7898 13.4657C41.182 12.4937 40.1574 11.6952 38.5771 11.6952C36.1458 11.6952 34.2703 13.4657 34.2703 16.1042C34.2703 18.7254 36.1458 20.5133 38.5771 20.5133C40.1574 20.5133 41.1646 19.6801 41.7898 18.7254C41.8419 18.6212 41.8245 18.517 41.7377 18.4823ZM46.8259 19.1593C45.1588 19.1593 44.0995 17.8401 44.0995 16.0869C44.0995 14.3337 45.1588 13.0144 46.8259 13.0144C48.4757 13.0144 49.5524 14.3337 49.5524 16.0869C49.5524 17.8227 48.4757 19.1593 46.8259 19.1593ZM45.6624 11.8167C43.839 12.3027 42.6233 13.9518 42.6233 16.0695C42.6233 18.6038 44.3599 20.4786 46.8259 20.4786C48.9272 20.4786 50.5075 19.1072 50.9243 17.1284C51.5842 13.8997 48.7536 11.0008 45.6624 11.8167ZM61.2397 11.8167H59.3642C59.2774 11.8167 59.2079 11.8688 59.1732 11.9382L56.9156 17.788L54.6406 11.9382C54.6059 11.8688 54.5365 11.8167 54.4496 11.8167H52.5741C52.522 11.8167 52.4699 11.8688 52.4699 11.9208V20.2355C52.4699 20.2876 52.522 20.3397 52.5741 20.3397H53.8592C53.9113 20.3397 53.9634 20.2876 53.9634 20.2355V13.7608L56.5683 20.2876C56.5856 20.3223 56.603 20.3397 56.6377 20.3397H57.1761C57.2108 20.3397 57.2282 20.3223 57.2456 20.2876L59.8331 13.7608V20.2355C59.8331 20.2876 59.8852 20.3397 59.9373 20.3397H61.2224C61.2745 20.3397 61.3266 20.2876 61.3266 20.2355V11.9208C61.3439 11.8688 61.2918 11.8167 61.2397 11.8167ZM80.325 11.8167H74.8026C74.7158 11.8167 74.6463 11.8861 74.6463 11.9729V20.1835C74.6463 20.2703 74.7158 20.3397 74.8026 20.3397H80.325C80.4119 20.3397 80.4813 20.2703 80.4813 20.1835V19.1767C80.4813 19.0899 80.4119 19.0204 80.325 19.0204H76.2961C76.2093 19.0204 76.1398 18.951 76.1398 18.8642V16.7986C76.1398 16.7118 76.2093 16.6423 76.2961 16.6423H80.2382C80.325 16.6423 80.3945 16.5729 80.3945 16.4861V15.4793C80.3945 15.3925 80.325 15.3231 80.2382 15.3231H76.2961C76.2093 15.3231 76.1398 15.2537 76.1398 15.1669V13.2748C76.1398 13.188 76.2093 13.1186 76.2961 13.1186H80.325C80.4119 13.1186 80.4813 13.0491 80.4813 12.9623V11.9556C80.4813 11.8861 80.4119 11.8167 80.325 11.8167ZM86.1427 15.8439H84.2497C84.1629 15.8439 84.0935 15.7744 84.0935 15.6876V13.2922C84.0935 13.2054 84.1629 13.1359 84.2497 13.1359H86.1427C86.9762 13.1359 87.6014 13.6567 87.6014 14.4725C87.6014 15.3057 86.9936 15.8439 86.1427 15.8439ZM87.3235 16.9374C88.2787 16.6944 89.1296 15.8786 89.1296 14.4725C89.1296 12.8929 88.0182 11.7993 86.3337 11.7993H82.7563C82.6694 11.7993 82.6 11.8688 82.6 11.9556V20.1661C82.6 20.2529 82.6694 20.3223 82.7563 20.3223H83.9372C84.024 20.3223 84.0935 20.2529 84.0935 20.1661V17.302C84.0935 17.2152 84.1629 17.1457 84.2497 17.1457H85.5001C85.5522 17.1457 85.6043 17.1805 85.639 17.2152L87.4277 20.2355C87.4625 20.2876 87.4972 20.305 87.5667 20.305H88.9386C89.0601 20.305 89.1296 20.1661 89.0601 20.0793C88.6607 19.4544 87.584 17.7186 87.2367 17.1457C87.1672 17.0763 87.2193 16.9721 87.3235 16.9374ZM100.852 13.1359H104.881C104.967 13.1359 105.037 13.0665 105.037 12.9797V11.9729C105.037 11.8861 104.967 11.8167 104.881 11.8167H99.3582C99.2714 11.8167 99.2019 11.8861 99.2019 11.9729V20.1835C99.2019 20.2703 99.2714 20.3397 99.3582 20.3397H104.881C104.967 20.3397 105.037 20.2703 105.037 20.1835V19.1767C105.037 19.0899 104.967 19.0204 104.881 19.0204H100.852C100.765 19.0204 100.695 18.951 100.695 18.8642V16.7986C100.695 16.7118 100.765 16.6423 100.852 16.6423H104.794C104.881 16.6423 104.95 16.5729 104.95 16.4861V15.4793C104.95 15.3925 104.881 15.3231 104.794 15.3231H100.852C100.765 15.3231 100.695 15.2537 100.695 15.1669V13.2748C100.695 13.2054 100.765 13.1359 100.852 13.1359ZM97.6911 18.4476L96.7186 17.9442C96.6491 17.9095 96.5796 17.9269 96.5449 17.9963C96.1281 18.6386 95.364 19.1246 94.5478 19.1246C92.9154 19.1246 91.7171 17.8227 91.7171 16.0521C91.7171 14.2469 92.9154 12.9797 94.5478 12.9797C95.3814 12.9797 96.1281 13.4484 96.5449 14.108C96.5796 14.1774 96.6665 14.1948 96.7186 14.1601L97.6911 13.6393C97.7605 13.6046 97.7953 13.5005 97.7432 13.431C97.1353 12.459 96.1107 11.6605 94.5304 11.6605C92.0992 11.6605 90.2237 13.431 90.2237 16.0695C90.2237 18.6906 92.0992 20.4786 94.5304 20.4786C96.1107 20.4786 97.118 19.6453 97.7432 18.6906C97.7953 18.5865 97.7605 18.4823 97.6911 18.4476ZM72.2672 11.8167H70.3916C70.3048 11.8167 70.2354 11.8688 70.2006 11.9382L67.943 17.788L65.6681 11.9382C65.6333 11.8688 65.5639 11.8167 65.4771 11.8167H63.6015C63.5494 11.8167 63.4973 11.8688 63.4973 11.9208V20.2355C63.4973 20.2876 63.5494 20.3397 63.6015 20.3397H64.8866C64.9387 20.3397 64.9908 20.2876 64.9908 20.2355V13.7608L67.5957 20.2876C67.6131 20.3223 67.6304 20.3397 67.6652 20.3397H68.2035C68.2383 20.3397 68.2556 20.3223 68.273 20.2876L70.8605 13.7608V20.2355C70.8605 20.2876 70.9126 20.3397 70.9647 20.3397H72.2498C72.3019 20.3397 72.354 20.2876 72.354 20.2355V11.9208C72.354 11.8688 72.3193 11.8167 72.2672 11.8167Z" fill="#34313F"/>
</svg>
