<svg width="1162" height="605" viewBox="0 0 1162 605" fill="none" xmlns="http://www.w3.org/2000/svg">
<path d="M1121.75 0.935547H40.582C18.4906 0.935547 0.582031 18.8441 0.582031 40.9355V564.763C0.582031 586.854 18.4907 604.763 40.5821 604.763H1121.75C1143.84 604.763 1161.75 586.854 1161.75 564.763V40.9355C1161.75 18.8442 1143.84 0.935547 1121.75 0.935547Z" fill="white"/>
<path d="M595.149 2.41586H594.51V106.321H595.149V2.41586Z" fill="#1869FF"/>
<path d="M581.917 2.41586H581.277V106.321H581.917V2.41586Z" fill="#1869FF"/>
<path d="M568.682 2.41586H568.043V106.321H568.682V2.41586Z" fill="#1869FF"/>
<path d="M103.898 571.662C81.807 571.662 63.8984 553.754 63.8984 531.662V73.4885C63.8984 51.3971 81.807 33.4884 103.898 33.4884H1059.31C1081.4 33.4884 1099.31 51.3971 1099.31 73.4884V531.662C1099.31 553.754 1081.4 571.662 1059.31 571.662H103.898ZM104.806 34.1714C82.7148 34.1714 64.8062 52.0801 64.8062 74.1714V530.941C64.8062 553.032 82.7148 570.941 104.806 570.941H1058.39C1080.48 570.941 1098.39 553.032 1098.39 530.941V74.1714C1098.39 52.08 1080.48 34.1714 1058.39 34.1714H104.806Z" fill="#1869FF"/>
<path d="M104.531 113.063V62.9958H152.949V63.9036H105.439V113.063H104.531Z" fill="#1869FF"/>
<path d="M104.979 60.8224C105.503 60.8226 106.015 60.9792 106.45 61.2721C106.884 61.5651 107.221 61.981 107.418 62.4668C107.615 62.9525 107.663 63.4859 107.555 63.9988C107.447 64.5117 107.188 64.9807 106.812 65.3458C106.436 65.7109 105.96 65.9555 105.444 66.0483C104.928 66.1411 104.396 66.0778 103.916 65.8667C103.437 65.6555 103.031 65.306 102.751 64.863C102.471 64.4199 102.33 63.9033 102.345 63.3794C102.362 62.6932 102.647 62.041 103.139 61.5628C103.632 61.0847 104.292 60.8188 104.979 60.8224Z" fill="#1869FF"/>
<path d="M75.4297 521.468V84.3084H113.785V72.8708H92.4979V54.5937H117.467V70.1292H135.162V45.0607H1022.62V47.8119H138.819V72.8708H117.467V87.0885H79.1118V521.468H75.4297ZM96.1417 57.316V70.1292H113.811V57.316H96.1417Z" fill="#1869FF"/>
<path d="M1006.72 63.8583V62.9506H1055.13V113.017H1054.21V63.8583H1006.72Z" fill="#1869FF"/>
<path d="M1054.68 60.7771C1054.15 60.7773 1053.64 60.9339 1053.2 61.2269C1052.77 61.5198 1052.43 61.9358 1052.24 62.4215C1052.04 62.9072 1051.99 63.4407 1052.1 63.9536C1052.21 64.4664 1052.47 64.9354 1052.84 65.3005C1053.22 65.6656 1053.69 65.9102 1054.21 66.003C1054.73 66.0958 1055.26 66.0326 1055.74 65.8214C1056.22 65.6103 1056.62 65.2608 1056.9 64.8177C1057.18 64.3746 1057.32 63.8581 1057.31 63.3342C1057.29 62.648 1057.01 61.9957 1056.51 61.5176C1056.02 61.0394 1055.36 60.7736 1054.68 60.7771Z" fill="#1869FF"/>
<path d="M133.336 47.8119V45.0607H1024.46V70.1292H1042.13V54.5648H1067.12V72.8419H1045.84V84.3084H1084.2V521.468H1080.54V87.0885H1042.13V72.8708H1020.85V47.86L133.336 47.8119ZM1045.84 57.316V70.1292H1063.51V57.316H1045.84Z" fill="#1869FF"/>
<path d="M104.531 544.843V507.163H105.439V544.16H152.949V544.843H104.531Z" fill="#1869FF"/>
<path d="M104.977 546.478C105.501 546.49 106.017 546.383 106.461 546.173C106.904 545.962 107.253 545.657 107.464 545.296C107.675 544.935 107.739 544.535 107.646 544.147C107.553 543.758 107.308 543.4 106.943 543.117C106.578 542.834 106.109 542.64 105.596 542.558C105.084 542.477 104.55 542.513 104.064 542.661C103.579 542.809 103.163 543.063 102.87 543.39C102.577 543.717 102.42 544.102 102.42 544.496C102.416 545.013 102.682 545.51 103.16 545.88C103.639 546.251 104.291 546.466 104.977 546.478Z" fill="#1869FF"/>
<path d="M75.4688 522.843V520.073H117.468V534.281H138.819V559.35H1026.33V562.101H135.201V537.051H117.468V552.606H92.4986V534.329H113.812V522.843H75.4688ZM96.1424 537.051V549.894H113.812V537.051H96.1424Z" fill="#1869FF"/>
<path d="M1010.38 544.843V544.16H1057.88V507.163H1058.79V544.843H1010.38Z" fill="#1869FF"/>
<path d="M1058.33 546.478C1057.81 546.478 1057.3 546.362 1056.87 546.144C1056.43 545.926 1056.1 545.617 1055.9 545.255C1055.7 544.893 1055.65 544.494 1055.75 544.11C1055.85 543.726 1056.1 543.372 1056.47 543.095C1056.84 542.818 1057.31 542.629 1057.82 542.553C1058.33 542.477 1058.86 542.516 1059.34 542.666C1059.82 542.816 1060.23 543.07 1060.52 543.396C1060.81 543.721 1060.96 544.105 1060.96 544.496C1060.97 544.757 1060.9 545.015 1060.77 545.256C1060.64 545.497 1060.44 545.716 1060.2 545.901C1059.95 546.085 1059.66 546.231 1059.34 546.33C1059.02 546.429 1058.68 546.479 1058.33 546.478Z" fill="#1869FF"/>
<path d="M136.939 562.12V559.369H1024.5V534.3H1045.84V520.073H1084.19V522.824H1049.5V534.281H1070.82V552.558H1045.84V537.051H1028.16V562.12H136.939ZM1049.44 537.051V549.894H1067.11V537.051H1049.44Z" fill="#1869FF"/>
<path d="M568.682 508.058H568.043V602.926H568.682V508.058Z" fill="#1869FF"/>
<path d="M581.917 502.363H581.277V602.916H581.917V502.363Z" fill="#1869FF"/>
<path d="M595.149 508.058H594.51V602.926H595.149V508.058Z" fill="#1869FF"/>
<path d="M609.788 481.104L629.477 495.918L609.788 510.732L590.086 495.918L609.788 481.104ZM627.687 495.918L609.788 482.451L591.889 495.918L609.788 509.386L627.687 495.918Z" fill="#1869FF"/>
<path d="M590.994 481.104L610.683 495.918L590.994 510.732L571.305 495.918L590.994 481.104ZM608.893 495.918L590.994 482.451L573.095 495.918L590.994 509.386L608.893 495.918Z" fill="#1869FF"/>
<path d="M572.212 481.104L591.901 495.918L572.212 510.732L552.459 495.918L572.212 481.104ZM590.111 495.918L572.212 482.451L554.313 495.918L572.212 509.386L590.111 495.918Z" fill="#1869FF"/>
<path d="M553.42 481.104L573.109 495.918L553.42 510.732L533.73 495.918L553.42 481.104ZM571.319 495.918L553.42 482.451L535.52 495.918L553.42 509.386L571.319 495.918Z" fill="#1869FF"/>
</svg>
