<svg width="38" height="34" viewBox="0 0 38 34" fill="none" xmlns="http://www.w3.org/2000/svg">
<path fill-rule="evenodd" clip-rule="evenodd" d="M1.58441 0.862546C1.21191 0.969179 0.932477 1.14189 0.658415 1.43489C-0.363197 2.52697 0.257206 4.31058 1.74277 4.55237C2.07952 4.60719 2.51259 4.53649 2.80072 4.37966C3.08965 4.22242 3.64 3.64369 3.71408 3.41926L3.77103 3.24674L4.63397 3.26392C5.41462 3.27947 5.51723 3.29105 5.70975 3.38523C6.55991 3.80121 7.31134 5.13624 7.64403 6.82178C7.92355 8.23779 8.82061 13.1196 9.61372 17.5407C10.1223 20.3758 10.2196 20.9271 10.4517 22.2867C10.5669 22.9616 10.7022 23.6492 10.7524 23.8147C11.0338 24.7417 11.7877 25.5442 12.714 25.9025C13.2278 26.1014 13.6285 26.1191 17.9291 26.1339C22.6972 26.1502 24.607 26.1365 24.6879 26.0853C24.7631 26.0377 24.7653 26.0465 24.4934 25.3311L24.357 24.9722H18.9389H13.5207L13.2008 24.8041C13.0247 24.7116 12.8 24.5575 12.7012 24.4617C12.5159 24.2819 12.1876 23.7437 12.1876 23.6198C12.1876 23.526 12.226 23.5226 16.7484 23.2153C21.4083 22.8985 23.6513 22.7348 23.6788 22.7094C23.7084 22.6819 23.3411 21.4324 23.2877 21.379C23.2739 21.3653 22.4741 21.4079 21.5103 21.4738C20.5465 21.5396 19.2996 21.6237 18.7394 21.6606C18.1791 21.6975 16.6373 21.8001 15.313 21.8886C11.4953 22.144 11.8809 22.1313 11.8493 22.0029C11.795 21.7821 10.4142 14.1217 9.66799 9.90087L9.33234 8.00248L9.54455 7.96799C9.66127 7.94905 15.2783 7.9209 22.0268 7.90548L34.2969 7.87742L34.5747 8.00207C35.144 8.25747 35.5204 8.65581 35.688 9.17981C35.7514 9.37803 35.7622 9.51985 35.7395 9.85119C35.7081 10.31 35.3552 13.2269 34.9436 16.4295C34.5961 19.1329 34.6193 18.8699 34.7204 18.9605C34.8139 19.0442 35.7239 19.5086 35.7946 19.5086C35.9508 19.5086 36.1472 18.273 36.7002 13.8134C37.219 9.62889 37.2404 9.38317 37.1301 8.87491C36.8789 7.71703 35.9646 6.75089 34.9683 6.59036C34.2935 6.48164 31.4006 6.45414 20.4966 6.45279L9.05763 6.45136L8.90493 5.92157C8.47677 4.43661 7.84664 3.38939 6.9951 2.74774C6.30274 2.22605 6.08911 2.16739 4.70652 2.11923L3.77719 2.08687L3.67139 1.8874C3.51952 1.60111 2.98269 1.10059 2.67788 0.961077C2.36798 0.81916 1.88714 0.775822 1.58441 0.862546ZM21.3958 10.151C21.3418 10.1948 21.2976 10.2815 21.2976 10.3438C21.2976 10.6252 22.2183 12.5369 22.3783 12.5877C22.514 12.6308 22.6982 12.4938 22.6982 12.35C22.6982 12.2847 22.6381 12.0821 22.5646 11.8996C22.4084 11.5116 21.9097 10.4745 21.7792 10.2663C21.6673 10.088 21.5262 10.0455 21.3958 10.151ZM25.2527 10.3792C25.1058 10.526 24.4577 12.4069 24.4577 12.6862C24.4577 12.7634 24.4948 12.8112 24.5797 12.8434C24.7565 12.9107 24.9053 12.7947 25.0437 12.4818C25.1986 12.1317 25.5594 11.0752 25.6377 10.7426C25.697 10.4908 25.6953 10.4671 25.6119 10.3837C25.4996 10.2714 25.3622 10.2697 25.2527 10.3792ZM18.4648 12.8212C18.3364 12.9497 18.3751 13.1066 18.5657 13.2294C18.7845 13.3704 20.2916 13.9366 20.564 13.9801C20.7972 14.0175 20.8924 13.94 20.8924 13.713C20.8924 13.5421 20.7897 13.4795 20.0695 13.2119C18.7792 12.7326 18.5977 12.6884 18.4648 12.8212ZM27.2821 13.5288C25.9197 14.1628 25.7668 14.2724 25.8846 14.5311C25.9611 14.699 26.1474 14.6817 26.6703 14.4584C27.3343 14.1747 28.1741 13.7434 28.2702 13.6368C28.3564 13.5411 28.3459 13.3978 28.2431 13.2694C28.1566 13.1613 27.9547 13.2158 27.2821 13.5288ZM23.0369 14.7146C22.8665 14.7887 22.7445 14.9942 22.7445 15.207C22.7445 15.4182 23.4863 17.9068 24.9514 22.6108C26.038 26.0998 26.2942 26.8516 26.4337 26.9613C26.5612 27.0617 26.7867 27.0835 26.9713 27.0133C27.1169 26.958 27.4145 26.4885 28.0892 25.25C28.3875 24.7025 28.649 24.2366 28.6703 24.2148C28.7136 24.1704 29.3887 25.0038 30.5217 26.5002C31.4754 27.7598 31.7434 28.0664 31.9837 28.1727C32.2499 28.2905 32.4287 28.2301 32.9218 27.8557C34.0279 27.0162 34.5131 26.5672 34.5733 26.3274C34.6131 26.1688 34.531 26.0433 33.5872 24.8213C32.2319 23.0663 31.4503 22.034 31.4498 21.9982C31.449 21.9451 31.7295 21.8155 32.6763 21.4312C33.7826 20.9821 33.9714 20.881 34.063 20.6878C34.2373 20.3206 34.0943 20.0893 33.485 19.7526C32.6455 19.2888 23.3553 14.6468 23.2701 14.6487C23.223 14.6497 23.118 14.6794 23.0369 14.7146ZM19.8738 15.9372C18.9633 16.351 18.248 16.7376 18.2006 16.8414C18.1704 16.9078 18.1712 16.9837 18.203 17.0674C18.2902 17.2968 18.5462 17.2301 19.6663 16.686C20.4009 16.3292 20.7072 16.1311 20.7072 16.0128C20.7072 15.952 20.4509 15.7098 20.3911 15.714C20.374 15.7152 20.1412 15.8157 19.8738 15.9372ZM28.5671 18.5905C30.4874 19.56 32.0413 20.3694 32.0202 20.3892C31.9991 20.409 31.6276 20.5651 31.1947 20.7361C29.9483 21.2284 29.825 21.3108 29.8151 21.6567C29.8083 21.8969 29.9136 22.0476 31.5658 24.1619C32.1031 24.8495 32.6645 25.5746 32.8135 25.7731L33.0844 26.1342L32.9035 26.3196C32.6848 26.5439 32.3032 26.7961 32.241 26.7576C32.2161 26.7423 31.6491 26.0062 30.9808 25.1217C29.2317 22.8071 28.9754 22.4902 28.8034 22.4302C28.3539 22.2735 28.2496 22.3869 27.4442 23.9073C27.2216 24.3275 27.0129 24.7092 26.9805 24.7556C26.9138 24.8509 26.8707 24.7307 26.1528 22.4488C25.113 19.1432 24.3651 16.6871 24.3651 16.5776C24.3651 16.4737 24.5371 16.5562 28.5671 18.5905ZM21.6838 17.5986C21.564 17.697 21.2929 18.3185 21.0426 19.0687C20.803 19.7867 20.7757 19.9409 20.8714 20.0365C20.9851 20.1503 21.193 20.1302 21.2803 19.997C21.4612 19.7209 22.05 18.0521 22.05 17.8154C22.05 17.7091 22.0183 17.6395 21.9471 17.5897C21.8179 17.4992 21.8043 17.4997 21.6838 17.5986ZM14.1201 28.725C12.9676 28.8627 12.0887 29.9116 12.0845 31.1545C12.0811 32.1569 12.5828 32.9768 13.459 33.4009C14.1682 33.7442 14.9005 33.7499 15.5943 33.4175C15.997 33.2246 16.5866 32.6271 16.7825 32.2136C16.9329 31.8959 16.9336 31.891 16.9336 31.1767V30.459L16.76 30.0954C16.2942 29.1199 15.2692 28.5878 14.1201 28.725ZM28.0333 28.814C27.3385 29.064 26.7542 29.6847 26.5301 30.4108C26.3915 30.86 26.3915 31.4934 26.5301 31.9427C26.8031 32.8274 27.5312 33.4533 28.4774 33.6166C29.548 33.8013 30.6317 33.2187 31.1212 32.1954L31.2873 31.8481V31.1536V30.459L31.1132 30.1105C30.7899 29.4632 30.3357 29.0616 29.6766 28.8403C29.2203 28.6872 28.4213 28.6743 28.0333 28.814ZM15.0446 29.9835C15.4298 30.1619 15.8441 30.7606 15.845 31.1402C15.8463 31.6192 15.3968 32.2606 14.9576 32.4064C14.299 32.6252 13.5318 32.2309 13.3227 31.5661C12.9825 30.4846 14.036 29.5163 15.0446 29.9835ZM29.3426 29.9484C29.6603 30.0782 29.9875 30.4637 30.1258 30.8712C30.2601 31.2669 30.0969 31.7945 29.7405 32.1164C29.149 32.6509 28.2494 32.5356 27.7931 31.867C27.6615 31.6741 27.6355 31.5903 27.6168 31.2993C27.5924 30.9184 27.6373 30.7361 27.8309 30.4314C28.1433 29.9397 28.8042 29.7285 29.3426 29.9484Z" fill="black"/>
</svg>
