<svg width="79" height="34" viewBox="0 0 79 34" fill="none" xmlns="http://www.w3.org/2000/svg">
<path d="M10.1431 8.04257C4.6217 8.04257 0.0205078 10.4803 0.0205078 17.834C0.0205078 23.6597 3.11452 27.3285 10.2856 27.3285C18.7269 27.3285 19.2679 21.5428 19.2679 21.5428H15.1777C15.1777 21.5428 14.3011 24.6579 10.0363 24.6579C6.56286 24.6579 4.06447 22.2164 4.06447 18.7945H19.6959V16.6469C19.6959 13.2615 17.6304 8.0423 10.1433 8.0423L10.1431 8.04257ZM10.0005 10.7873C13.3071 10.7873 15.561 12.895 15.561 16.0541H4.15534C4.15534 12.7004 7.09711 10.7873 10.0005 10.7873Z" fill="#E53037"/>
<path d="M19.694 0.921204V23.635C19.694 24.9242 19.6055 26.7346 19.6055 26.7346H23.5066C23.5066 26.7346 23.6466 25.4345 23.6466 24.246C23.6466 24.246 25.5739 27.3837 30.8146 27.3837C36.3333 27.3837 40.0817 23.397 40.0817 17.6852C40.0817 12.3714 36.6386 8.09777 30.8234 8.09777C25.378 8.09777 23.686 11.1574 23.686 11.1574V0.921204H19.694ZM29.8166 10.9072C33.5641 10.9072 35.9471 13.8014 35.9471 17.6852C35.9471 21.8496 33.1949 24.5743 29.8435 24.5743C25.8436 24.5743 23.686 21.3247 23.686 17.7221C23.686 14.3655 25.6219 10.9072 29.8166 10.9072Z" fill="#0064D3"/>
<path d="M49.7759 8.0423C41.4691 8.0423 40.9365 12.7754 40.9365 13.5316H45.071C45.071 13.5316 45.2878 10.7683 49.4907 10.7683C52.2221 10.7683 54.3382 12.0692 54.3382 14.57V15.4601H49.4907C43.0554 15.4601 39.6533 17.4191 39.6533 21.3942C39.6533 25.3062 42.7967 27.435 47.0448 27.435C52.8341 27.435 54.699 24.1064 54.699 24.1064C54.699 25.4301 54.7972 26.7348 54.7972 26.7348H58.4727C58.4727 26.7348 58.3302 25.1176 58.3302 24.083V15.1401C58.3302 9.27666 53.7849 8.0423 49.7759 8.0423ZM54.3382 18.1305V19.3173C54.3382 20.8652 53.4203 24.7133 48.0159 24.7133C45.0567 24.7133 43.7879 23.1768 43.7879 21.3942C43.7879 18.1514 48.0609 18.1305 54.3382 18.1305Z" fill="#F5AF01"/>
<path d="M56.1016 8.78448H60.7529L67.4284 22.7004L74.0888 8.78448H78.3022L66.1706 33.5594H61.7511L65.2517 26.6532L56.1016 8.78448Z" fill="#86B817"/>
</svg>
