<svg width="31" height="30" viewBox="0 0 31 30" fill="none" xmlns="http://www.w3.org/2000/svg">
<circle cx="15.5037" cy="15.1273" r="14.7884" fill="black"/>
<path fill-rule="evenodd" clip-rule="evenodd" d="M11.6414 7.94339C11.6414 8.86404 10.9404 9.6091 9.84416 9.6091C8.79063 9.6091 8.08964 8.86404 8.11133 7.94339C8.08964 6.978 8.79061 6.25464 9.86516 6.25464C10.9404 6.25464 11.6204 6.978 11.6414 7.94339ZM8.19947 21.6487V10.925H11.5322V21.648H8.19947V21.6487Z" fill="white"/>
<path fill-rule="evenodd" clip-rule="evenodd" d="M14.2029 14.347C14.2029 13.0094 14.1588 11.8691 14.1147 10.9261H17.0096L17.1634 12.3952H17.2292C17.6678 11.7152 18.7641 10.6854 20.5403 10.6854C22.7328 10.6854 24.3775 12.1328 24.3775 15.2893V21.6498H21.0447V15.7069C21.0447 14.3246 20.5627 13.3823 19.3566 13.3823C18.4353 13.3823 17.8875 14.0182 17.6685 14.6317C17.5804 14.8514 17.537 15.1578 17.537 15.4656V21.6498H14.2042V14.347H14.2029Z" fill="white"/>
</svg>
