<svg width="601" height="1037" viewBox="0 0 601 1037" fill="none" xmlns="http://www.w3.org/2000/svg">
<path d="M600.857 532.217L600.857 531.578L496.952 531.578L496.952 532.217L600.857 532.217Z" fill="#1869FF"/>
<path d="M600.857 518.983L600.857 518.344L496.952 518.344L496.952 518.983L600.857 518.983Z" fill="#1869FF"/>
<path d="M600.857 505.751L600.857 505.112L496.952 505.112L496.952 505.751L600.857 505.751Z" fill="#1869FF"/>
<path d="M31.6112 40.9662C31.6112 18.8748 49.5198 0.96624 71.6112 0.966241L529.785 0.966261C551.877 0.966262 569.785 18.8749 569.785 40.9663L569.785 996.375C569.785 1018.47 551.876 1036.38 529.785 1036.38L71.6111 1036.38C49.5197 1036.38 31.6111 1018.47 31.6111 996.375L31.6112 40.9662ZM569.102 41.874C569.102 19.7826 551.194 1.87401 529.102 1.87401L72.3326 1.87399C50.2412 1.87399 32.3326 19.7826 32.3326 41.874L32.3326 995.455C32.3326 1017.55 50.2412 1035.45 72.3326 1035.45L529.102 1035.45C551.194 1035.45 569.102 1017.55 569.102 995.455L569.102 41.874Z" fill="#1869FF"/>
<path d="M490.211 41.5981L540.277 41.5981L540.277 90.0156L539.37 90.0156L539.37 42.5058L490.211 42.5058L490.211 41.5981Z" fill="#1869FF"/>
<path d="M542.451 42.0455C542.451 42.5696 542.294 43.0817 542.001 43.5164C541.708 43.951 541.292 44.2883 540.807 44.4852C540.321 44.6821 539.788 44.7296 539.275 44.6216C538.762 44.5136 538.293 44.255 537.928 43.879C537.563 43.5029 537.318 43.0265 537.225 42.5106C537.132 41.9948 537.196 41.463 537.407 40.9833C537.618 40.5036 537.967 40.0978 538.411 39.8178C538.854 39.5378 539.37 39.3965 539.894 39.4117C540.58 39.4284 541.233 39.7137 541.711 40.2062C542.189 40.6987 542.455 41.3591 542.451 42.0455V42.0455Z" fill="#1869FF"/>
<path d="M81.8059 12.4985L518.965 12.4985L518.965 50.8541L530.403 50.8541L530.403 29.5667L548.68 29.5667L548.68 54.5362L533.144 54.5362L533.144 72.2309L558.213 72.2309L558.213 959.69L555.462 959.69L555.462 75.8875L530.403 75.8875L530.403 54.5362L516.185 54.5362L516.185 16.1806L81.8059 16.1806L81.8059 12.4985ZM545.958 33.2105L533.144 33.2105L533.144 50.8797L545.958 50.8797L545.958 33.2105Z" fill="#1869FF"/>
<path d="M539.415 943.785L540.322 943.785L540.322 992.202L490.255 992.202L490.255 991.282L539.415 991.282L539.415 943.785Z" fill="#1869FF"/>
<path d="M542.496 991.742C542.496 991.218 542.339 990.706 542.046 990.272C541.753 989.837 541.337 989.5 540.852 989.303C540.366 989.106 539.832 989.058 539.32 989.166C538.807 989.274 538.338 989.533 537.973 989.909C537.608 990.285 537.363 990.761 537.27 991.277C537.177 991.793 537.241 992.325 537.452 992.805C537.663 993.284 538.012 993.69 538.455 993.97C538.899 994.25 539.415 994.391 539.939 994.376C540.625 994.359 541.277 994.074 541.756 993.582C542.234 993.089 542.5 992.429 542.496 991.742V991.742Z" fill="#1869FF"/>
<path d="M555.462 70.4028L558.213 70.4028L558.213 961.531L533.144 961.531L533.144 979.2L548.709 979.2L548.709 1004.18L530.432 1004.18L530.432 982.908L518.965 982.908L518.965 1021.26L81.8058 1021.26L81.8058 1017.61L516.185 1017.61L516.185 979.2L530.403 979.2L530.403 957.913L555.414 957.913L555.462 70.4028ZM545.958 982.908L533.144 982.908L533.144 1000.58L545.958 1000.58L545.958 982.908Z" fill="#1869FF"/>
<path d="M58.4297 41.5981L96.1094 41.5981L96.1094 42.5058L59.1127 42.5058L59.1127 90.0156L58.4297 90.0156L58.4297 41.5981Z" fill="#1869FF"/>
<path d="M56.7954 42.0448C56.784 42.5687 56.8903 43.0852 57.101 43.5283C57.3116 43.9714 57.6169 44.3209 57.9779 44.5321C58.3388 44.7432 58.7389 44.8064 59.1271 44.7137C59.5152 44.6209 59.8736 44.3763 60.1566 44.0112C60.4395 43.6461 60.634 43.1771 60.7153 42.6642C60.7966 42.1513 60.7608 41.6179 60.6127 41.1321C60.4645 40.6464 60.2108 40.2305 59.8837 39.9375C59.5567 39.6446 59.1714 39.488 58.7771 39.4878C58.2606 39.4842 57.7637 39.7501 57.3932 40.2282C57.0227 40.7063 56.808 41.3586 56.7954 42.0448Z" fill="#1869FF"/>
<path d="M80.4307 12.5366L83.2012 12.5366L83.2012 54.5359L68.9931 54.5359L68.9931 75.8872L43.9246 75.8872L43.9246 963.397L41.1734 963.397L41.1735 72.269L66.2227 72.269L66.2227 54.5359L50.6679 54.5359L50.6679 29.5664L68.945 29.5664L68.945 50.8794L80.4307 50.8794L80.4307 12.5366ZM66.2227 33.2102L53.3806 33.2102L53.3806 50.8794L66.2227 50.8794L66.2227 33.2102Z" fill="#1869FF"/>
<path d="M58.4297 947.442L59.1127 947.442L59.1127 994.952L96.1094 994.952L96.1094 995.859L58.4297 995.859L58.4297 947.442Z" fill="#1869FF"/>
<path d="M56.7946 995.399C56.7946 994.878 56.9108 994.369 57.1286 993.936C57.3463 993.502 57.6558 993.165 58.0179 992.966C58.38 992.766 58.7784 992.714 59.1628 992.816C59.5472 992.917 59.9003 993.168 60.1774 993.537C60.4545 993.905 60.6433 994.374 60.7197 994.885C60.7962 995.396 60.7569 995.925 60.607 996.407C60.457 996.888 60.203 997.299 59.8772 997.589C59.5513 997.878 59.1682 998.033 58.7762 998.033C58.5156 998.034 58.2574 997.967 58.0164 997.836C57.7754 997.704 57.5564 997.51 57.3722 997.265C57.1879 997.02 57.0419 996.729 56.9428 996.409C56.8437 996.088 56.7933 995.745 56.7946 995.399V995.399Z" fill="#1869FF"/>
<path d="M41.1542 74.0073L43.9054 74.0073L43.9054 961.568L68.9739 961.568L68.9739 982.907L83.2011 982.907L83.2011 1021.26L80.45 1021.26L80.45 986.564L68.9931 986.564L68.9931 1007.89L50.716 1007.89L50.716 982.907L66.2226 982.907L66.2226 965.225L41.1542 965.225L41.1542 74.0073ZM66.2226 986.512L53.3806 986.512L53.3806 1004.18L66.2226 1004.18L66.2226 986.512Z" fill="#1869FF"/>
<path d="M95.2148 505.751L95.2148 505.112L0.347023 505.112L0.347023 505.751L95.2148 505.751Z" fill="#1869FF"/>
<path d="M100.91 518.983L100.91 518.344L0.357216 518.344L0.357216 518.983L100.91 518.983Z" fill="#1869FF"/>
<path d="M95.2148 532.217L95.2148 531.578L0.347023 531.578L0.347023 532.217L95.2148 532.217Z" fill="#1869FF"/>
<path d="M122.17 546.857L107.356 566.546L92.5418 546.857L107.356 527.155L122.17 546.857ZM107.356 564.756L120.823 546.857L107.356 528.957L93.8885 546.857L107.356 564.756Z" fill="#1869FF"/>
<path d="M122.17 528.062L107.356 547.751L92.5418 528.062L107.356 508.372L122.17 528.062ZM107.356 545.961L120.823 528.062L107.356 510.162L93.8885 528.062L107.356 545.961Z" fill="#1869FF"/>
<path d="M122.17 509.28L107.356 528.969L92.5418 509.28L107.356 489.527L122.17 509.28ZM107.356 527.179L120.823 509.28L107.356 491.381L93.8885 509.28L107.356 527.179Z" fill="#1869FF"/>
<path d="M122.17 490.486L107.356 510.176L92.5418 490.486L107.356 470.797L122.17 490.486ZM107.356 508.386L120.823 490.486L107.356 472.587L93.8885 490.486L107.356 508.386Z" fill="#1869FF"/>
</svg>
