<svg width="1037" height="601" viewBox="0 0 1037 601" fill="none" xmlns="http://www.w3.org/2000/svg">
<path d="M532.149 0.415771H531.51V104.321H532.149V0.415771Z" fill="#1869FF"/>
<path d="M518.917 0.415771H518.277V104.321H518.917V0.415771Z" fill="#1869FF"/>
<path d="M505.682 0.415771H505.043V104.321H505.682V0.415771Z" fill="#1869FF"/>
<path d="M40.8984 569.662C18.807 569.662 0.898438 551.754 0.898438 529.662V71.4884C0.898438 49.397 18.807 31.4884 40.8984 31.4884H996.308C1018.4 31.4884 1036.31 49.397 1036.31 71.4884V529.662C1036.31 551.754 1018.4 569.662 996.308 569.662H40.8984ZM41.8062 32.1713C19.7148 32.1713 1.80619 50.08 1.80619 72.1713V528.941C1.80619 551.032 19.7148 568.941 41.8062 568.941H995.387C1017.48 568.941 1035.39 551.032 1035.39 528.941V72.1713C1035.39 50.08 1017.48 32.1713 995.387 32.1713H41.8062Z" fill="#1869FF"/>
<path d="M41.5312 111.063V60.9958H89.9488V61.9035H42.439V111.063H41.5312Z" fill="#1869FF"/>
<path d="M41.9786 58.8223C42.5027 58.8225 43.0149 58.9791 43.4495 59.272C43.8841 59.565 44.2215 59.9809 44.4184 60.4667C44.6153 60.9524 44.6627 61.4858 44.5547 61.9987C44.4467 62.5116 44.1882 62.9806 43.8121 63.3457C43.4361 63.7108 42.9596 63.9554 42.4438 64.0482C41.9279 64.141 41.3961 64.0777 40.9164 63.8666C40.4367 63.6554 40.0309 63.306 39.751 62.8629C39.471 62.4198 39.3296 61.9032 39.3449 61.3793C39.3616 60.6931 39.6469 60.0409 40.1393 59.5627C40.6318 59.0846 41.2922 58.8187 41.9786 58.8223V58.8223Z" fill="#1869FF"/>
<path d="M12.4297 519.468V82.3083H50.7853V70.8707H29.4979V52.5936H54.4674V68.1291H72.1621V43.0607H959.621V45.8118H75.8187V70.8707H54.4674V85.0884H16.1118V519.468H12.4297ZM33.1417 55.3159V68.1291H50.8109V55.3159H33.1417Z" fill="#1869FF"/>
<path d="M943.717 61.8582V60.9505H992.134V111.017H991.214V61.8582H943.717Z" fill="#1869FF"/>
<path d="M991.676 58.777C991.151 58.7773 990.639 58.9339 990.205 59.2268C989.77 59.5197 989.433 59.9357 989.236 60.4214C989.039 60.9071 988.992 61.4406 989.1 61.9535C989.207 62.4663 989.466 62.9353 989.842 63.3004C990.218 63.6655 990.695 63.9101 991.21 64.0029C991.726 64.0957 992.258 64.0325 992.738 63.8213C993.217 63.6102 993.623 63.2607 993.903 62.8176C994.183 62.3745 994.325 61.858 994.309 61.3341C994.293 60.6479 994.007 59.9956 993.515 59.5175C993.022 59.0393 992.362 58.7735 991.676 58.777V58.777Z" fill="#1869FF"/>
<path d="M70.3359 45.8118V43.0607H961.464V68.1291H979.133V52.5647H1004.12V70.8418H982.841V82.3083H1021.2V519.468H1017.54V85.0884H979.133V70.8707H957.846V45.8599L70.3359 45.8118ZM982.841 55.3159V68.1291H1000.51V55.3159H982.841Z" fill="#1869FF"/>
<path d="M41.5312 542.843V505.163H42.439V542.16H89.9488V542.843H41.5312Z" fill="#1869FF"/>
<path d="M41.977 544.478C42.5009 544.489 43.0174 544.383 43.4605 544.172C43.9036 543.962 44.2531 543.657 44.4643 543.296C44.6754 542.935 44.7386 542.535 44.6458 542.146C44.5531 541.758 44.3085 541.4 43.9434 541.117C43.5783 540.834 43.1093 540.639 42.5964 540.558C42.0835 540.477 41.5501 540.513 41.0643 540.661C40.5786 540.809 40.1626 541.063 39.8697 541.39C39.5768 541.717 39.4202 542.102 39.42 542.496C39.4164 543.013 39.6823 543.51 40.1604 543.88C40.6385 544.251 41.2908 544.465 41.977 544.478Z" fill="#1869FF"/>
<path d="M12.4688 520.843V518.073H54.4681V532.281H75.8194V557.349H963.329V560.101H72.2012V535.051H54.4681V550.606H29.4986V532.329H50.8116V520.843H12.4688ZM33.1424 535.051V547.893H50.8116V535.051H33.1424Z" fill="#1869FF"/>
<path d="M947.375 542.843V542.16H994.885V505.163H995.793V542.843H947.375Z" fill="#1869FF"/>
<path d="M995.331 544.478C994.81 544.478 994.301 544.362 993.868 544.144C993.435 543.926 993.097 543.617 992.898 543.255C992.698 542.893 992.646 542.494 992.748 542.11C992.85 541.725 993.1 541.372 993.469 541.095C993.837 540.818 994.306 540.629 994.817 540.553C995.328 540.476 995.858 540.516 996.339 540.666C996.82 540.816 997.231 541.07 997.521 541.395C997.81 541.721 997.965 542.104 997.965 542.496C997.966 542.757 997.899 543.015 997.768 543.256C997.636 543.497 997.442 543.716 997.197 543.9C996.952 544.085 996.661 544.231 996.341 544.33C996.021 544.429 995.677 544.479 995.331 544.478V544.478Z" fill="#1869FF"/>
<path d="M73.9395 560.12V557.369H961.501V532.3H982.839V518.073H1021.19V520.824H986.496V532.281H1007.82V550.558H982.839V535.051H965.157V560.12H73.9395ZM986.445 535.051V547.893H1004.11V535.051H986.445Z" fill="#1869FF"/>
<path d="M505.682 506.058H505.043V600.926H505.682V506.058Z" fill="#1869FF"/>
<path d="M518.917 500.363H518.277V600.916H518.917V500.363Z" fill="#1869FF"/>
<path d="M532.149 506.058H531.51V600.926H532.149V506.058Z" fill="#1869FF"/>
<path d="M546.788 479.104L566.477 493.918L546.788 508.732L527.086 493.918L546.788 479.104ZM564.687 493.918L546.788 480.451L528.889 493.918L546.788 507.386L564.687 493.918Z" fill="#1869FF"/>
<path d="M527.994 479.104L547.683 493.918L527.994 508.732L508.305 493.918L527.994 479.104ZM545.893 493.918L527.994 480.451L510.095 493.918L527.994 507.386L545.893 493.918Z" fill="#1869FF"/>
<path d="M509.212 479.104L528.901 493.918L509.212 508.732L489.459 493.918L509.212 479.104ZM527.111 493.918L509.212 480.451L491.313 493.918L509.212 507.386L527.111 493.918Z" fill="#1869FF"/>
<path d="M490.42 479.104L510.109 493.918L490.42 508.732L470.73 493.918L490.42 479.104ZM508.319 493.918L490.42 480.451L472.52 493.918L490.42 507.386L508.319 493.918Z" fill="#1869FF"/>
</svg>
