<svg width="104" height="25" viewBox="0 0 104 25" fill="none" xmlns="http://www.w3.org/2000/svg">
<g clip-path="url(#clip0_66_407)">
<path fill-rule="evenodd" clip-rule="evenodd" d="M0.984756 1.20288C0.714757 1.48648 0.55957 1.92299 0.55957 2.49021V22.6658C0.55957 23.233 0.714757 23.6695 0.99485 23.9433L1.06803 24.0037L12.6351 12.6988V12.4448L1.05793 1.14246L0.984756 1.20288Z" fill="url(#paint0_linear_66_407)"/>
<path fill-rule="evenodd" clip-rule="evenodd" d="M16.4842 16.4819L12.626 12.7099V12.446L16.4855 8.67406L16.5687 8.72461L21.1335 11.2598C22.4406 11.9799 22.4406 13.1662 21.1335 13.8961L16.5687 16.4313C16.5675 16.4313 16.4842 16.4819 16.4842 16.4819Z" fill="url(#paint1_linear_66_407)"/>
<path fill-rule="evenodd" clip-rule="evenodd" d="M16.5661 16.4313L12.6246 12.578L0.984375 23.9543C1.40956 24.4007 2.12493 24.4513 2.92484 24.0147L16.5661 16.4313Z" fill="url(#paint2_linear_66_407)"/>
<path fill-rule="evenodd" clip-rule="evenodd" d="M16.5661 8.72598L2.92484 1.15243C2.12619 0.706054 1.40956 0.766475 0.984375 1.21285L12.6234 12.5781L16.5661 8.72598Z" fill="url(#paint3_linear_66_407)"/>
<path opacity="0.2" fill-rule="evenodd" clip-rule="evenodd" d="M16.4815 16.35L2.93363 23.873C2.17662 24.2984 1.50162 24.2688 1.06634 23.8829L0.993164 23.9544L1.06634 24.0148C1.50162 24.3996 2.17662 24.4304 2.93363 24.005L16.5749 16.4314L16.4815 16.35Z" fill="black"/>
<path opacity="0.12" fill-rule="evenodd" clip-rule="evenodd" d="M21.1327 13.7642L16.4746 16.35L16.5579 16.4313L21.1226 13.8961C21.7762 13.5311 22.0979 13.0552 22.0979 12.578C22.0563 13.0145 21.7245 13.43 21.1327 13.7642Z" fill="black"/>
<path opacity="0.25" fill-rule="evenodd" clip-rule="evenodd" d="M2.92522 1.28426L21.1312 11.393C21.723 11.7173 22.0548 12.1427 22.1065 12.5792C22.1065 12.1033 21.7848 11.6261 21.1312 11.2611L2.92522 1.15233C1.61812 0.422345 0.55957 1.03025 0.55957 2.49021V2.62215C0.55957 1.16219 1.61812 0.564149 2.92522 1.28426Z" fill="white"/>
<path fill-rule="evenodd" clip-rule="evenodd" d="M26.5523 11.9381C26.5523 8.70617 29.3318 6.07478 32.6387 6.07478C34.4668 6.07478 35.7676 6.7764 36.7492 7.69011L35.5935 8.81961C34.892 8.17594 33.9407 7.67655 32.6374 7.67655C30.2226 7.67655 28.3351 9.57672 28.3351 11.9368C28.3351 14.2969 30.2226 16.1996 32.6361 16.1996C34.2019 16.1996 35.0926 15.5855 35.6642 15.0257C36.1323 14.5682 36.4388 13.911 36.5574 13.0096H32.6387V11.4115H38.1547C38.2128 11.6976 38.243 12.0404 38.243 12.4116C38.243 13.6113 37.9062 15.0997 36.8224 16.1589C35.7676 17.2317 34.4227 17.8038 32.6374 17.8038C29.3293 17.8038 26.5498 15.1749 26.5498 11.9405L26.5523 11.9381ZM42.7018 10.2512C40.5658 10.2512 38.8222 11.8394 38.8222 14.0257C38.8222 16.2008 40.5645 17.8001 42.7018 17.8001C44.8391 17.8001 46.579 16.1983 46.579 14.0244C46.579 11.8382 44.8378 10.25 42.7018 10.2512ZM42.7018 16.3155C41.5322 16.3155 40.5216 15.3722 40.5216 14.0269C40.5216 12.668 41.531 11.7383 42.7018 11.7383C43.8714 11.7383 44.8807 12.6668 44.8807 14.0269C44.8807 15.3709 43.8727 16.3155 42.7018 16.3155ZM51.1614 10.2512C49.0254 10.2512 47.2842 11.8394 47.2842 14.0257C47.2842 16.2008 49.0254 17.8001 51.1614 17.8001C53.2974 17.8001 55.0385 16.1983 55.0385 14.0244C55.0385 11.8382 53.2987 10.25 51.1614 10.2512ZM51.1614 16.3155C49.9918 16.3155 48.9812 15.3722 48.9812 14.0269C48.9812 12.668 49.9905 11.7383 51.1614 11.7383C52.3309 11.7383 53.3416 12.6668 53.3416 14.0269C53.3416 15.3709 52.3309 16.3155 51.1614 16.3155ZM61.5437 10.4806V11.0946H61.4857C61.1059 10.6495 60.3742 10.25 59.4531 10.25C57.5215 10.25 55.7488 11.9097 55.7488 14.0417C55.7488 16.1564 57.5202 17.8026 59.4531 17.8026C60.3742 17.8026 61.1059 17.403 61.4857 16.9456H61.5437V17.4881C61.5437 18.9321 60.7539 19.7052 59.4809 19.7052C58.4413 19.7052 57.7978 18.9752 57.5341 18.3624L56.0554 18.9629C56.4793 19.9629 57.6073 21.1935 59.4796 21.1935C61.468 21.1935 63.1511 20.048 63.1511 17.26V10.4793L61.5437 10.4806ZM59.5982 16.3155C58.4286 16.3155 57.4458 15.3561 57.4458 14.0417C57.4458 12.7124 58.4274 11.7395 59.5982 11.7395C60.7539 11.7395 61.6611 12.7112 61.6611 14.0417C61.6623 15.3561 60.7552 16.3155 59.5982 16.3155ZM64.3232 6.47553H66.0214V17.5732H64.3232V6.47553ZM70.6758 16.3155C69.8128 16.3155 69.1971 15.9283 68.8047 15.1724L73.97 13.0824L73.7921 12.6532C73.4716 11.8111 72.4901 10.2512 70.4852 10.2512C68.4956 10.2512 66.8415 11.7815 66.8415 14.0269C66.8415 16.1416 68.4804 17.8013 70.6758 17.8013C72.4472 17.8013 73.4716 16.7446 73.8956 16.128L72.5784 15.2711C72.138 15.9012 71.5375 16.3167 70.6758 16.3155ZM70.5433 11.7099C71.2158 11.7099 71.786 12.0392 71.9766 12.5102L68.5221 13.9122C68.4792 12.4535 69.679 11.7099 70.5433 11.7099Z" fill="#808285"/>
<path fill-rule="evenodd" clip-rule="evenodd" d="M81.4214 6.47551H77.3613V17.5732H79.0558V13.3696H81.4227C83.3013 13.3696 85.1484 12.0404 85.1484 9.92195C85.1484 7.80723 83.3026 6.47674 81.4252 6.47674L81.4214 6.47551ZM81.4656 11.8246H79.0558V8.01932H81.4656C82.7323 8.01932 83.454 9.04647 83.454 9.92195C83.454 10.7826 82.7323 11.8246 81.4656 11.8246ZM87.7765 17.5732V6.47551H86.0821V17.5732H87.7765ZM95.3882 17.5535V13.2993C95.3882 11.3289 93.8818 10.2302 91.9375 10.2302C90.7124 10.2302 89.4419 10.7592 88.9158 11.9294L90.4197 12.5422C90.7414 11.9294 91.3395 11.7284 91.9691 11.7284C92.8447 11.7284 93.7354 12.2426 93.7493 13.1575V13.2722C93.4427 13.1008 92.7866 12.8431 91.9817 12.8431C90.3604 12.8431 88.7101 13.7137 88.7101 15.3413C88.7101 16.8272 90.04 17.7828 91.53 17.7828C92.6706 17.7828 93.2976 17.2834 93.6913 16.6989H93.7493V17.5559H95.387L95.3882 17.5535ZM91.7357 16.313C91.1805 16.313 90.4058 16.0417 90.4058 15.3721C90.4058 14.5152 91.371 14.1847 92.2037 14.1847C92.9494 14.1847 93.2989 14.3413 93.7531 14.5559C93.6231 15.5522 92.7614 16.3007 91.7357 16.313ZM101.347 10.4731L99.4041 15.2834H99.3461L97.3299 10.4731H95.5043L98.5273 17.1983L96.8026 20.9382H98.5702L103.23 10.4731H101.347Z" fill="#808285"/>
</g>
<defs>
<linearGradient id="paint0_linear_66_407" x1="11.5964" y1="2.27334" x2="-6.87456" y2="7.30912" gradientUnits="userSpaceOnUse">
<stop stop-color="#00A0FF"/>
<stop offset="0.007" stop-color="#00A1FF"/>
<stop offset="0.26" stop-color="#00BEFF"/>
<stop offset="0.512" stop-color="#00D2FF"/>
<stop offset="0.76" stop-color="#00DFFF"/>
<stop offset="1" stop-color="#00E3FF"/>
</linearGradient>
<linearGradient id="paint1_linear_66_407" x1="22.8344" y1="12.5785" x2="0.24286" y2="12.5785" gradientUnits="userSpaceOnUse">
<stop stop-color="#FFE000"/>
<stop offset="0.409" stop-color="#FFBD00"/>
<stop offset="0.775" stop-color="#FFA500"/>
<stop offset="1" stop-color="#FF9C00"/>
</linearGradient>
<linearGradient id="paint2_linear_66_407" x1="14.4228" y1="14.6742" x2="0.0467893" y2="39.4313" gradientUnits="userSpaceOnUse">
<stop stop-color="#FF3A44"/>
<stop offset="1" stop-color="#C31162"/>
</linearGradient>
<linearGradient id="paint3_linear_66_407" x1="-1.94576" y1="-5.50839" x2="4.46771" y2="5.54831" gradientUnits="userSpaceOnUse">
<stop stop-color="#32A071"/>
<stop offset="0.069" stop-color="#2DA771"/>
<stop offset="0.476" stop-color="#15CF74"/>
<stop offset="0.801" stop-color="#06E775"/>
<stop offset="1" stop-color="#00F076"/>
</linearGradient>
<clipPath id="clip0_66_407">
<rect width="102.937" height="23.6919" fill="white" transform="translate(0.425781 0.734009)"/>
</clipPath>
</defs>
</svg>
