<svg width="100" height="33" viewBox="0 0 100 33" fill="none" xmlns="http://www.w3.org/2000/svg">
<path d="M38.377 9.86599C37.8633 9.86599 37.3944 9.93644 36.9705 10.0773C36.5595 10.207 36.1992 10.4253 35.8896 10.7322C35.5923 11.0265 35.3521 11.4095 35.1691 11.8811C34.9976 12.3521 34.9003 12.9143 34.8772 13.5679C34.8412 14.6282 34.8412 15.6885 34.8772 16.7488C34.9003 17.4083 34.9976 17.9705 35.1691 18.4355C35.3521 18.9065 35.5923 19.2954 35.8896 19.6024C36.1979 19.8967 36.5582 20.115 36.9705 20.2572C37.3944 20.3868 37.8633 20.4517 38.377 20.4517C38.8818 20.4517 39.3507 20.3812 39.7835 20.2403C40.2164 20.0869 40.5883 19.864 40.8991 19.5716C41.2202 19.2653 41.4726 18.8764 41.6563 18.4048C41.8393 17.9338 41.9309 17.3802 41.9309 16.7439V15.8429H38.9416C38.6898 15.8429 38.5639 15.7107 38.5639 15.4461V15.198C38.5639 14.9334 38.6898 14.8011 38.9416 14.8011H42.612C42.8689 14.8011 42.9973 14.9334 42.9973 15.198V16.7528C42.9973 17.4605 42.8946 18.1088 42.689 18.6975C42.4835 19.2749 42.1804 19.7763 41.7796 20.2016C41.3911 20.625 40.9042 20.9547 40.3192 21.1909C39.7412 21.4144 39.0893 21.5262 38.3636 21.5262C37.6198 21.5262 36.968 21.4144 36.4079 21.1909C35.8473 20.9554 35.3727 20.6313 34.9841 20.2185C34.6065 19.8064 34.3149 19.3176 34.1094 18.752C33.9148 18.1746 33.8062 17.5383 33.7837 16.8431C33.7606 16.3139 33.7491 15.7543 33.7491 15.1643C33.7491 14.569 33.7606 14.0094 33.7837 13.4855C33.8069 12.791 33.9212 12.1606 34.1267 11.5944C34.3322 11.0169 34.6238 10.5222 35.0014 10.1101C35.39 9.69798 35.8646 9.37982 36.4253 9.15558C36.986 8.9201 37.632 8.80236 38.3636 8.80236C39.1535 8.80236 39.8285 8.92606 40.3885 9.17344C40.9492 9.42083 41.4068 9.71849 41.7613 10.0664C42.1158 10.4084 42.3792 10.7679 42.5513 11.1449C42.7227 11.522 42.8143 11.8342 42.8258 12.0816C42.8374 12.1874 42.8085 12.2757 42.7391 12.3465C42.6704 12.406 42.5789 12.4358 42.4646 12.4358H42.0869C41.9842 12.4358 41.9097 12.4126 41.8634 12.3663C41.8185 12.3068 41.7729 12.2125 41.7266 12.0835C41.6354 11.819 41.507 11.5544 41.3413 11.2898C41.1807 11.0252 40.9643 10.7897 40.692 10.5833C40.4178 10.3717 40.0918 10.2007 39.7142 10.0704C39.3365 9.94074 38.8902 9.87591 38.3751 9.87591L38.377 9.86599ZM46.477 13.3813C46.888 12.5677 47.6657 12.1609 48.8102 12.1609H49.446C49.6978 12.1609 49.8237 12.2906 49.8237 12.5499V12.7979C49.8237 13.0572 49.6978 13.1869 49.446 13.1869H48.7081C48.0209 13.1869 47.4776 13.3929 47.0781 13.805C46.678 14.2171 46.4779 14.7767 46.4779 15.4838V20.9607C46.4779 21.0784 46.4378 21.1727 46.3575 21.2434C46.2888 21.3142 46.1973 21.3496 46.0829 21.3496H45.8084C45.5566 21.3496 45.4307 21.22 45.4307 20.9607V12.5667C45.4307 12.449 45.4651 12.3547 45.5338 12.284C45.6025 12.2013 45.6941 12.1599 45.8084 12.1599H46.0829C46.1973 12.1599 46.2888 12.2013 46.3575 12.284C46.4378 12.3547 46.4779 12.449 46.4779 12.5667V13.3803L46.477 13.3813ZM57.0739 21.3546C56.8221 21.3546 56.6963 21.2249 56.6963 20.9656V20.1352C56.5935 20.3005 56.4564 20.4659 56.2849 20.6313C56.1243 20.7966 55.9243 20.9438 55.6847 21.0728C55.4445 21.2024 55.1555 21.3083 54.8177 21.3903C54.4857 21.4842 54.0971 21.5312 53.652 21.5312C53.241 21.5312 52.846 21.4663 52.4671 21.3367C52.101 21.1958 51.7751 21.0073 51.4893 20.7712C51.2151 20.5357 50.9922 20.2589 50.8207 19.9407C50.6602 19.6232 50.5799 19.2759 50.5799 18.8989C50.5799 18.4987 50.6602 18.1392 50.8207 17.8204C50.9922 17.5029 51.2266 17.2261 51.524 16.9899C51.8213 16.7425 52.1759 16.5424 52.5875 16.3896C53.0114 16.2243 53.4748 16.1065 53.9777 16.0364L56.6885 15.6475V15.0294C56.6885 14.393 56.4997 13.8983 56.1221 13.545C55.756 13.1918 55.1671 13.0152 54.3553 13.0152C53.715 13.0152 53.2173 13.1448 52.8621 13.4041C52.5191 13.6515 52.3027 13.9227 52.2128 14.2177C52.1678 14.3586 52.1107 14.4588 52.0413 14.5184C51.9835 14.5647 51.9032 14.5878 51.8005 14.5878H51.5596C51.4569 14.5878 51.3654 14.5524 51.2851 14.4817C51.2164 14.399 51.182 14.3047 51.182 14.1989C51.182 14.0335 51.2392 13.8275 51.3535 13.5808C51.4678 13.3334 51.6508 13.0919 51.9026 12.8565C52.1595 12.621 52.4912 12.4209 52.8977 12.2562C53.2979 12.0796 53.7847 11.9913 54.3582 11.9913C55.0325 11.9913 55.5874 12.0855 56.0229 12.274C56.4686 12.4626 56.8176 12.7099 57.07 13.0162C57.3218 13.3105 57.4933 13.6403 57.5845 14.0054C57.6872 14.3705 57.7386 14.73 57.7386 15.0839V20.9676C57.7386 21.2269 57.6127 21.3565 57.361 21.3565H57.0691L57.0739 21.3546ZM53.8312 20.5062C54.2198 20.5062 54.5859 20.4414 54.9295 20.3118C55.284 20.1709 55.5929 19.9648 55.8562 19.6936C56.1131 19.4291 56.3186 19.0874 56.4728 18.6687C56.6218 18.2566 56.6963 17.7737 56.6963 17.2201V16.6198L54.4834 16.9373C52.585 17.2019 51.6357 17.8263 51.6357 18.8106C51.6357 19.1049 51.6987 19.3583 51.8246 19.5706C51.9614 19.7823 52.1328 19.9589 52.339 20.1004C52.5445 20.2413 52.7789 20.3472 53.0422 20.4179C53.2991 20.4775 53.5625 20.5072 53.8322 20.5072L53.8312 20.5062ZM64.3858 21.5312C63.6652 21.5312 63.0763 21.3989 62.619 21.1343C62.1617 20.8697 61.7899 20.54 61.5034 20.1451V24.3321C61.5034 24.5914 61.3775 24.7211 61.1258 24.7211H60.8339C60.5821 24.7211 60.4562 24.5914 60.4562 24.3321V12.5499C60.4562 12.2906 60.5821 12.1609 60.8339 12.1609H61.1258C61.3775 12.1609 61.5034 12.2906 61.5034 12.5499V13.3803C61.7892 12.9801 62.1611 12.6504 62.619 12.3911C63.0763 12.1265 63.6652 11.9942 64.3858 11.9942C65.0492 11.9942 65.6096 12.1179 66.0668 12.3653C66.5357 12.6008 66.9133 12.919 67.1998 13.3198C67.4855 13.7087 67.6911 14.1566 67.8163 14.6632C67.9531 15.158 68.0334 15.6647 68.0571 16.1833C68.0687 16.3599 68.0745 16.5543 68.0745 16.7667C68.0745 16.9783 68.0687 17.1728 68.0571 17.3501C68.034 17.87 67.9537 18.3826 67.8163 18.888C67.6904 19.3827 67.4849 19.8306 67.1998 20.2314C66.914 20.6203 66.5363 20.9385 66.0668 21.1859C65.6096 21.4214 65.0492 21.5391 64.3858 21.5391V21.5312ZM61.5034 16.1237C61.4919 16.3003 61.4861 16.5299 61.4861 16.8123C61.4861 17.0948 61.4919 17.3243 61.5034 17.5009C61.515 17.8541 61.5721 18.2136 61.6749 18.5794C61.7892 18.9326 61.9607 19.2508 62.1893 19.5339C62.418 19.8163 62.707 20.0518 63.0563 20.2403C63.3993 20.4169 63.811 20.5052 64.2914 20.5052C64.7962 20.5052 65.2136 20.4169 65.5437 20.2403C65.8867 20.0637 66.1612 19.8282 66.3674 19.5339C66.5845 19.2276 66.7386 18.8804 66.8298 18.4921C66.9326 18.0919 66.9955 17.6795 67.0186 17.2548C67.0302 16.9241 67.0302 16.5944 67.0186 16.2656C66.9955 15.8423 66.9326 15.4355 66.8298 15.0452C66.7386 14.6563 66.5845 14.3146 66.3674 14.0203C66.1619 13.714 65.8873 13.4726 65.5437 13.296C65.2117 13.1075 64.7942 13.0132 64.2914 13.0132C63.7994 13.0132 63.382 13.1075 63.039 13.296C62.6961 13.4845 62.407 13.7319 62.172 14.0382C61.9549 14.3325 61.7889 14.6622 61.6739 15.0274C61.5712 15.3925 61.514 15.7576 61.5025 16.1227L61.5034 16.1237ZM71.4578 13.3813C71.7661 12.9692 72.1379 12.6335 72.5734 12.3742C73.0062 12.115 73.5952 11.9853 74.3402 11.9853C74.9233 11.9853 75.4323 12.0855 75.8671 12.2859C76.2999 12.4864 76.6602 12.7632 76.948 13.1164C77.2453 13.4696 77.4682 13.888 77.6165 14.3715C77.7655 14.8544 77.84 15.3786 77.84 15.9441V20.9626C77.84 21.2219 77.7142 21.3516 77.4624 21.3516H77.1734C76.9216 21.3516 76.7958 21.2219 76.7958 20.9626V16.0315C76.7958 15.0889 76.5729 14.3527 76.1272 13.8228C75.6815 13.2804 75.0296 13.0092 74.1716 13.0092C73.3482 13.0092 72.6906 13.2738 72.1986 13.803C71.7067 14.3322 71.4607 15.0753 71.4607 16.0325V20.9636C71.4607 21.2229 71.3348 21.3526 71.0831 21.3526H70.7912C70.5394 21.3526 70.4135 21.2229 70.4135 20.9636V9.1913C70.4135 8.93201 70.5394 8.80236 70.7912 8.80236H71.0831C71.3348 8.80236 71.4607 8.93201 71.4607 9.1913V13.3783L71.4578 13.3813ZM84.8388 8.80534C85.5023 8.80534 86.1085 8.90555 86.6577 9.10597C87.2068 9.3064 87.6756 9.61265 88.0642 10.0247C88.4643 10.4249 88.7732 10.9316 88.9909 11.5448C89.2196 12.1454 89.3454 12.8581 89.3686 13.6829C89.3917 14.2121 89.4032 14.7069 89.4032 15.1673C89.4032 15.6263 89.3917 16.1211 89.3686 16.6516C89.3108 18.3363 88.8933 19.5732 88.1162 20.3624L89.2144 21.9529C89.226 21.9767 89.2375 21.9998 89.2491 22.0223C89.2607 22.0461 89.2664 22.0875 89.2664 22.1463C89.2664 22.2403 89.2321 22.3229 89.1634 22.3944C89.0946 22.4652 89.0144 22.5005 88.9225 22.5005H88.5449C88.419 22.5005 88.3105 22.4476 88.2193 22.3418C88.1281 22.2479 88.0536 22.1652 87.9958 22.0937L87.2386 21.0152C86.5514 21.3572 85.7505 21.5282 84.836 21.5282C83.4063 21.5282 82.3026 21.1336 81.5249 20.3445C80.7587 19.5554 80.3525 18.3244 80.3062 16.6516C80.2831 16.1224 80.2716 15.6276 80.2716 15.1673C80.2716 14.7082 80.2831 14.2134 80.3062 13.6829C80.3294 12.8581 80.4495 12.1454 80.6665 11.5448C80.8952 10.9323 81.2041 10.4256 81.5933 10.0247C81.9934 9.61265 82.4622 9.3064 82.9998 9.10597C83.5489 8.90555 84.161 8.80534 84.836 8.80534H84.8388ZM84.8388 9.86698C84.3584 9.86698 83.9121 9.94371 83.4998 10.0972C83.0887 10.2381 82.7284 10.4676 82.4189 10.7858C82.1106 11.1033 81.8646 11.5101 81.681 12.0061C81.5095 12.5009 81.4122 13.0896 81.3891 13.7722C81.3775 14.0368 81.3659 14.2842 81.3544 14.5144C81.3544 14.738 81.3544 14.9563 81.3544 15.1692C81.3544 15.3809 81.3544 15.6038 81.3544 15.838C81.3659 16.0616 81.3775 16.303 81.3891 16.5623C81.4122 17.2568 81.5095 17.8521 81.681 18.3482C81.864 18.8311 82.1042 19.2313 82.4015 19.5488C82.7098 19.8663 83.0701 20.1018 83.4824 20.2552C83.8935 20.3961 84.3443 20.4666 84.835 20.4666C85.3269 20.4666 85.7778 20.3961 86.1875 20.2552C86.5986 20.1018 86.9531 19.8663 87.2511 19.5488C87.5594 19.2313 87.7996 18.8311 87.9717 18.3482C88.1547 17.8535 88.2575 17.2581 88.28 16.5623C88.2915 16.303 88.2973 16.0616 88.2973 15.838C88.2973 15.6025 88.2973 15.3796 88.2973 15.1692C88.2973 14.9576 88.2973 14.7393 88.2973 14.5144C88.2973 14.2908 88.2915 14.0434 88.28 13.7722C88.2568 13.089 88.1541 12.5003 87.9717 12.0061C87.8002 11.5114 87.56 11.1046 87.2511 10.7858C86.9428 10.4683 86.5825 10.2387 86.1702 10.0972C85.7592 9.94371 85.3128 9.86698 84.8311 9.86698H84.8388ZM93.2133 20.2909H99.1322C99.3891 20.2909 99.5175 20.4232 99.5175 20.6878V20.9527C99.5175 21.212 99.3891 21.3417 99.1322 21.3417H92.5101C92.2583 21.3417 92.1324 21.212 92.1324 20.9527V9.3699C92.1324 9.11061 92.2583 8.98096 92.5101 8.98096H92.8357C93.0874 8.98096 93.2133 9.11061 93.2133 9.3699V20.2899V20.2909ZM2.56228 25.2648L1.40625 24.5762L14.2941 1.58716L15.4501 2.27574L2.56228 25.2648Z" fill="#E10098"/>
<path d="M1.14746 22.7407H26.9231V24.1169H1.14746V22.7407Z" fill="#E10098"/>
<path d="M14.5508 31.1803L1.65723 23.5137L2.3258 22.323L15.2184 29.9877L14.5508 31.1803ZM25.7508 11.1976L12.8582 3.53194L13.5268 2.34131L26.4194 10.008L25.7508 11.1976Z" fill="#E10098"/>
<path d="M2.3297 11.1936L1.66113 10.0029L14.5643 2.34521L15.2329 3.53584L2.3297 11.1936Z" fill="#E10098"/>
<path d="M25.5101 25.2648L12.6214 2.27574L13.7774 1.58716L26.6652 24.5762L25.5101 25.2648ZM2.16699 9.0901H3.50124V24.4234H2.16699V9.0901ZM24.5708 9.0901H25.907V24.4234H24.5699L24.5708 9.0901Z" fill="#E10098"/>
<path d="M14.324 30.5977L13.7402 29.5559L24.9537 22.8884L25.5375 23.9302L14.324 30.5977Z" fill="#E10098"/>
<path d="M27.678 24.8709C27.305 25.5354 26.6913 26.0202 25.9715 26.2191C25.2518 26.418 24.4848 26.3145 23.839 25.9316C23.1939 25.5474 22.7231 24.9153 22.53 24.174C22.3369 23.4327 22.4373 22.6428 22.8092 21.9777C23.1821 21.3132 23.7959 20.8284 24.5156 20.6295C25.2354 20.4306 26.0024 20.5341 26.6482 20.917C28.0007 21.7108 28.4593 23.4967 27.6789 24.8709H27.678ZM5.25871 11.5359C4.88573 12.2003 4.27199 12.6852 3.55224 12.8841C2.83248 13.0829 2.06552 12.9795 1.41973 12.5965C0.77458 12.2124 0.303794 11.5803 0.110715 10.839C-0.082364 10.0977 0.0180436 9.30777 0.389896 8.64265C0.762877 7.97819 1.37661 7.49332 2.09637 7.29446C2.81612 7.0956 3.58308 7.19902 4.22888 7.582C5.57276 8.37575 6.03036 10.1617 5.25967 11.5359H5.25871ZM0.398567 24.8709C-0.374047 23.4868 0.0845117 21.7217 1.42936 20.917C2.77324 20.1213 4.48706 20.5936 5.26834 21.9787C6.04096 23.3628 5.5824 25.1279 4.23755 25.9326C2.88499 26.7283 1.17118 26.256 0.398567 24.8709ZM22.8188 11.5359C22.0462 10.1518 22.5047 8.38666 23.8496 7.582C25.1935 6.78626 26.9073 7.25854 27.6886 8.64364C28.4612 10.0277 28.0026 11.7929 26.6578 12.5975C26.012 12.9805 25.245 13.0839 24.5253 12.8851C23.8055 12.6862 23.1918 12.2013 22.8188 11.5369V11.5359ZM14.0359 32.988C12.4829 32.988 11.2277 31.6952 11.2277 30.0958C11.2277 28.4964 12.4858 27.2036 14.0359 27.2036C15.5859 27.2036 16.8441 28.4964 16.8441 30.0958C16.8428 30.8625 16.5465 31.5973 16.0201 32.1395C15.4938 32.6816 14.7803 32.9867 14.0359 32.988ZM14.0359 6.31596C12.4829 6.31596 11.2277 5.02314 11.2277 3.42373C11.2277 1.82432 12.4858 0.531494 14.0359 0.531494C15.5859 0.531494 16.8441 1.82432 16.8441 3.42373C16.8447 3.80373 16.7725 4.18011 16.6316 4.53131C16.4907 4.88251 16.2839 5.20161 16.023 5.4703C15.7621 5.739 15.4523 5.95202 15.1113 6.09714C14.7703 6.24225 14.4048 6.31662 14.0359 6.31596Z" fill="#E10098"/>
</svg>
