<svg width="31" height="34" viewBox="0 0 31 34" fill="none" xmlns="http://www.w3.org/2000/svg">
<g clip-path="url(#clip0_67_386)">
<path d="M15.2752 11.861C16.0585 11.861 16.7031 11.456 16.7902 10.933L17.5639 2.23806C17.5639 1.37846 16.552 0.672913 15.2781 0.672913C14.006 0.672913 12.9951 1.37846 12.9951 2.23806L13.7669 10.933C13.853 11.456 14.4976 11.861 15.2781 11.861H15.275" fill="#FDBB30"/>
<path d="M10.5477 14.5767C10.9408 13.9035 10.9102 13.1457 10.4971 12.81L3.30864 7.79695C2.56164 7.36715 1.44072 7.88535 0.804705 8.98174C0.166771 10.0762 0.279633 11.3 1.02563 11.7298L8.98398 15.4145C9.48227 15.598 10.1604 15.2452 10.5506 14.572L10.5475 14.5765" fill="#FDBB30"/>
<path d="M20.002 14.572C20.3941 15.2452 21.0693 15.598 21.5676 15.4145L29.5269 11.7298C30.2768 11.3 30.3839 10.0762 29.7507 8.98174C29.1119 7.88539 27.989 7.36714 27.244 7.79694L20.0555 12.81C19.6443 13.1457 19.6137 13.9035 20.0049 14.5767L20.0018 14.5722" fill="#FDBB30"/>
<path d="M15.2752 22.7213C16.0585 22.7213 16.7031 23.1235 16.7902 23.6465L17.5639 32.3404C17.5639 33.2019 16.552 33.9065 15.2781 33.9065C14.006 33.9065 12.9951 33.2019 12.9951 32.3404L13.7669 23.6465C13.853 23.1235 14.4976 22.7213 15.2781 22.7213H15.275" fill="#FDBB30"/>
<path d="M20.002 20.0053C20.3941 19.3312 21.0693 18.9803 21.5676 19.1667L29.5269 22.8475C30.2768 23.2783 30.3839 24.503 29.7507 25.5994C29.1119 26.6919 27.989 27.2111 27.244 26.7823L20.0555 21.774C19.6443 21.4345 19.6137 20.6767 20.0049 20.0044L20.0018 20.0052" fill="#FDBB30"/>
<path d="M10.5477 20.0044C10.9408 20.6767 10.9102 21.4345 10.4971 21.774L3.30864 26.7823C2.56167 27.2112 1.44075 26.692 0.804734 25.5994C0.166765 24.503 0.279627 23.2783 1.02563 22.8475L8.98398 19.1667C9.48227 18.9803 10.1604 19.3312 10.5506 20.0053L10.5475 20.0046" fill="#FDBB30"/>
</g>
<defs>
<clipPath id="clip0_67_386">
<rect width="30.054" height="33.3934" fill="white" transform="translate(0.258789 0.543823)"/>
</clipPath>
</defs>
</svg>
