<svg width="117" height="115" viewBox="0 0 117 115" fill="none" xmlns="http://www.w3.org/2000/svg">
<path d="M59.2099 56.0999C58.5291 56.0999 57.9844 56.6445 57.9844 57.3253C57.9844 58.0061 58.5291 58.5508 59.2099 58.5508C59.8907 58.5508 60.4353 58.0061 60.4353 57.3253C60.4353 56.6445 59.8907 56.0999 59.2099 56.0999Z" fill="white"/>
<path d="M1.02757 3.2909C0.868045 3.45042 0.868045 3.70906 1.02757 3.86858L3.62712 6.46814C3.78665 6.62766 4.04528 6.62766 4.2048 6.46814C4.36432 6.30862 4.36432 6.04998 4.2048 5.89046L1.89409 3.57974L4.2048 1.26903C4.36432 1.1095 4.36432 0.850868 4.2048 0.691346C4.04528 0.531824 3.78665 0.531824 3.62712 0.691346L1.02757 3.2909ZM58.3929 57.3253C58.3929 57.2123 58.415 57.1065 58.4543 57.0108L57.6987 56.7003C57.6193 56.8935 57.576 57.1048 57.576 57.3253H58.3929ZM58.8954 56.5697C58.991 56.5304 59.0969 56.5084 59.2099 56.5084V55.6914C58.9893 55.6914 58.778 55.7347 58.5848 55.8141L58.8954 56.5697ZM59.2099 56.5084C59.3229 56.5084 59.4287 56.5304 59.5244 56.5697L59.8349 55.8141C59.6417 55.7347 59.4304 55.6914 59.2099 55.6914V56.5084ZM59.9655 57.0108C60.0048 57.1065 60.0268 57.2123 60.0268 57.3253H60.8438C60.8438 57.1048 60.8005 56.8935 60.7211 56.7003L59.9655 57.0108ZM60.0268 57.3253C60.0268 57.4383 60.0048 57.5442 59.9655 57.6398L60.7211 57.9504C60.8005 57.7572 60.8438 57.5459 60.8438 57.3253H60.0268ZM59.5244 58.0809C59.4287 58.1202 59.3229 58.1423 59.2099 58.1423V58.9592C59.4304 58.9592 59.6417 58.9159 59.8349 58.8365L59.5244 58.0809ZM59.2099 58.1423C59.0969 58.1423 58.991 58.1202 58.8954 58.0809L58.5848 58.8365C58.778 58.9159 58.9893 58.9592 59.2099 58.9592V58.1423ZM58.4543 57.6398C58.415 57.5442 58.3929 57.4383 58.3929 57.3253H57.576C57.576 57.5459 57.6193 57.7572 57.6987 57.9504L58.4543 57.6398ZM1.31641 3.98822H2.10438V3.17126H1.31641V3.98822ZM3.68031 3.98822H5.25625V3.17126H3.68031V3.98822ZM6.83219 3.98822H8.40813V3.17126H6.83219V3.98822ZM9.98407 3.98822H11.56V3.17126H9.98407V3.98822ZM13.1359 3.98822H13.9239V3.17126H13.1359V3.98822ZM13.9239 3.98822C14.1863 3.98822 14.4471 3.99456 14.7063 4.00709L14.7457 3.19108C14.4734 3.17792 14.1994 3.17126 13.9239 3.17126V3.98822ZM16.2628 4.15865C16.7827 4.23512 17.2943 4.33669 17.7965 4.46209L17.9944 3.66947C17.4663 3.53759 16.9283 3.43078 16.3817 3.35039L16.2628 4.15865ZM19.2925 4.91535C19.7855 5.09177 20.2673 5.29182 20.7365 5.51413L21.0863 4.77585C20.5929 4.54208 20.0863 4.3317 19.5678 4.14615L19.2925 4.91535ZM22.1147 6.25228C22.5626 6.52129 22.9961 6.81171 23.414 7.12212L23.9012 6.46631C23.462 6.14003 23.0062 5.83475 22.5354 5.55194L22.1147 6.25228ZM24.6223 8.11482C25.0086 8.46519 25.3777 8.83427 25.7281 9.22061L26.3332 8.6718C25.965 8.26576 25.5771 7.87788 25.1711 7.50966L24.6223 8.11482ZM26.7208 10.4289C27.0312 10.8467 27.3216 11.2803 27.5906 11.7282L28.2909 11.3075C28.0081 10.8367 27.7029 10.3809 27.3766 9.94169L26.7208 10.4289ZM28.3288 13.1064C28.5511 13.5756 28.7511 14.0574 28.9275 14.5504L29.6967 14.2751C29.5112 13.7566 29.3008 13.25 29.067 12.7566L28.3288 13.1064ZM29.3808 16.0464C29.5062 16.5486 29.6078 17.0602 29.6842 17.5801L30.4925 17.4612C30.4121 16.9146 30.3053 16.3766 30.1734 15.8485L29.3808 16.0464ZM29.8358 19.1366C29.8483 19.3958 29.8547 19.6566 29.8547 19.919H30.6716C30.6716 19.6435 30.665 19.3695 30.6518 19.0972L29.8358 19.1366ZM29.8547 19.919V20.7968H30.6716V19.919H29.8547ZM29.8547 22.5524V24.308H30.6716V22.5524H29.8547ZM29.8547 26.0635V27.8191H30.6716V26.0635H29.8547ZM29.8547 29.5747V31.3303H30.6716V29.5747H29.8547ZM29.8547 33.0859V34.8415H30.6716V33.0859H29.8547ZM29.8547 36.5971V38.3527H30.6716V36.5971H29.8547ZM29.8547 40.1083V40.9861H30.6716V40.1083H29.8547ZM29.8547 40.9861C29.8547 41.2616 29.8613 41.5356 29.8745 41.8079L30.6905 41.7684C30.678 41.5092 30.6716 41.2484 30.6716 40.9861H29.8547ZM30.0338 43.4439C30.1142 43.9904 30.221 44.5285 30.3529 45.0566L31.1455 44.8586C31.0201 44.3565 30.9185 43.8448 30.8421 43.325L30.0338 43.4439ZM30.8296 46.6299C31.0151 47.1484 31.2255 47.6551 31.4593 48.1485L32.1975 47.7987C31.9752 47.3295 31.7752 46.8477 31.5988 46.3547L30.8296 46.6299ZM32.2353 49.5975C32.5182 50.0684 32.8234 50.5241 33.1497 50.9634L33.8055 50.4762C33.4951 50.0583 33.2047 49.6247 32.9357 49.1769L32.2353 49.5975ZM34.1931 52.2333C34.5613 52.6393 34.9492 53.0272 35.3552 53.3954L35.904 52.7902C35.5177 52.4399 35.1486 52.0708 34.7982 51.6844L34.1931 52.2333ZM36.6251 54.4387C37.0643 54.765 37.5201 55.0703 37.9909 55.3531L38.4116 54.6528C37.9637 54.3838 37.5301 54.0933 37.1123 53.7829L36.6251 54.4387ZM39.44 56.1292C39.9334 56.363 40.44 56.5734 40.9585 56.7589L41.2338 55.9897C40.7408 55.8133 40.259 55.6132 39.7898 55.3909L39.44 56.1292ZM42.5319 57.2356C43.06 57.3675 43.598 57.4743 44.1446 57.5547L44.2635 56.7464C43.7436 56.6699 43.232 56.5684 42.7298 56.443L42.5319 57.2356ZM45.7806 57.714C46.0529 57.7271 46.3269 57.7338 46.6024 57.7338V56.9168C46.34 56.9168 46.0792 56.9105 45.82 56.898L45.7806 57.714ZM46.6024 57.7338H47.5509V56.9168H46.6024V57.7338ZM49.4479 57.7338H51.3449V56.9168H49.4479V57.7338ZM53.2419 57.7338H55.1389V56.9168H53.2419V57.7338ZM57.0359 57.7338H57.9844V56.9168H57.0359V57.7338Z" fill="#2D70E6"/>
<path d="M59.2518 56.1003C58.571 56.1003 58.0264 56.6449 58.0264 57.3257C58.0264 58.0065 58.571 58.5512 59.2518 58.5512C59.9326 58.5512 60.4773 58.0065 60.4773 57.3257C60.4773 56.6449 59.9326 56.1003 59.2518 56.1003Z" fill="white"/>
<path d="M116.572 111.36C116.732 111.201 116.732 110.942 116.572 110.782L113.973 108.183C113.813 108.023 113.555 108.023 113.395 108.183C113.236 108.342 113.236 108.601 113.395 108.761L115.706 111.071L113.395 113.382C113.236 113.542 113.236 113.8 113.395 113.96C113.555 114.119 113.813 114.119 113.973 113.96L116.572 111.36ZM60.8857 57.3257C60.8857 57.1052 60.8424 56.8939 60.763 56.7007L60.0074 57.0112C60.0467 57.1069 60.0688 57.2128 60.0688 57.3257H60.8857ZM59.8769 55.8145C59.6837 55.7351 59.4724 55.6918 59.2518 55.6918V56.5088C59.3648 56.5088 59.4707 56.5308 59.5663 56.5701L59.8769 55.8145ZM59.2518 55.6918C59.0313 55.6918 58.82 55.7351 58.6268 55.8145L58.9373 56.5701C59.033 56.5308 59.1388 56.5088 59.2518 56.5088V55.6918ZM57.7406 56.7007C57.6612 56.8939 57.6179 57.1052 57.6179 57.3257H58.4348C58.4348 57.2128 58.4569 57.1069 58.4962 57.0112L57.7406 56.7007ZM57.6179 57.3257C57.6179 57.5463 57.6612 57.7576 57.7406 57.9508L58.4962 57.6402C58.4569 57.5446 58.4348 57.4387 58.4348 57.3257H57.6179ZM58.6268 58.837C58.82 58.9164 59.0313 58.9596 59.2518 58.9596V58.1427C59.1388 58.1427 59.033 58.1206 58.9373 58.0813L58.6268 58.837ZM59.2518 58.9596C59.4724 58.9596 59.6837 58.9164 59.8769 58.837L59.5663 58.0813C59.4707 58.1206 59.3648 58.1427 59.2518 58.1427V58.9596ZM60.763 57.9508C60.8424 57.7576 60.8857 57.5463 60.8857 57.3257H60.0688C60.0688 57.4387 60.0467 57.5446 60.0074 57.6402L60.763 57.9508ZM60.4773 57.7342H61.3899V56.9172H60.4773V57.7342ZM63.215 57.7342H65.0402V56.9172H63.215V57.7342ZM66.8654 57.7342H68.6906V56.9172H66.8654V57.7342ZM70.5158 57.7342H71.4284V56.9172H70.5158V57.7342ZM71.4284 57.7342C71.6908 57.7342 71.9516 57.7405 72.2108 57.7531L72.2502 56.9371C71.9779 56.9239 71.7039 56.9172 71.4284 56.9172V57.7342ZM73.7673 57.9046C74.2872 57.9811 74.7988 58.0827 75.301 58.2081L75.4989 57.4154C74.9708 57.2836 74.4328 57.1768 73.8862 57.0964L73.7673 57.9046ZM76.797 58.6613C77.29 58.8378 77.7718 59.0378 78.241 59.2601L78.5908 58.5218C78.0974 58.2881 77.5908 58.0777 77.0723 57.8921L76.797 58.6613ZM79.6192 59.9983C80.0671 60.2673 80.5007 60.5577 80.9185 60.8681L81.4057 60.2123C80.9665 59.886 80.5107 59.5807 80.0399 59.2979L79.6192 59.9983ZM82.1268 61.8608C82.5131 62.2112 82.8822 62.5803 83.2326 62.9666L83.8377 62.4178C83.4695 62.0117 83.0816 61.6239 82.6756 61.2556L82.1268 61.8608ZM84.2253 64.1749C84.5357 64.5927 84.8261 65.0263 85.0951 65.4742L85.7955 65.0535C85.5127 64.5827 85.2074 64.1269 84.8811 63.6877L84.2253 64.1749ZM85.8333 66.8523C86.0556 67.3216 86.2556 67.8034 86.4321 68.2964L87.2013 68.0211C87.0157 67.5026 86.8053 66.9959 86.5716 66.5025L85.8333 66.8523ZM86.8853 69.7924C87.0107 70.2946 87.1123 70.8062 87.1888 71.326L87.997 71.2072C87.9166 70.6606 87.8098 70.1226 87.6779 69.5945L86.8853 69.7924ZM87.3403 72.8826C87.3528 73.1418 87.3592 73.4026 87.3592 73.665H88.1761C88.1761 73.3895 88.1695 73.1155 88.1563 72.8432L87.3403 72.8826ZM87.3592 73.665V74.5428H88.1761V73.665H87.3592ZM87.3592 76.2983V78.0539H88.1761V76.2983H87.3592ZM87.3592 79.8095V81.5651H88.1761V79.8095H87.3592ZM87.3592 83.3207V85.0763H88.1761V83.3207H87.3592ZM87.3592 86.8319V88.5875H88.1761V86.8319H87.3592ZM87.3592 90.3431V92.0987H88.1761V90.3431H87.3592ZM87.3592 93.8543V94.732H88.1761V93.8543H87.3592ZM87.3592 94.732C87.3592 95.0075 87.3658 95.2815 87.379 95.5538L88.195 95.5144C88.1825 95.2552 88.1761 94.9944 88.1761 94.732H87.3592ZM87.5383 97.1899C87.6187 97.7364 87.7255 98.2744 87.8574 98.8025L88.65 98.6046C88.5246 98.1024 88.423 97.5908 88.3466 97.071L87.5383 97.1899ZM88.3341 100.376C88.5196 100.894 88.73 101.401 88.9638 101.894L89.7021 101.545C89.4797 101.075 89.2797 100.594 89.1033 100.101L88.3341 100.376ZM89.7399 103.343C90.0227 103.814 90.328 104.27 90.6542 104.709L91.3101 104.222C90.9996 103.804 90.7092 103.371 90.4402 102.923L89.7399 103.343ZM91.6976 105.979C92.0658 106.385 92.4537 106.773 92.8597 107.141L93.4085 106.536C93.0222 106.186 92.6531 105.817 92.3028 105.43L91.6976 105.979ZM94.1296 108.185C94.5688 108.511 95.0246 108.816 95.4955 109.099L95.9161 108.399C95.4682 108.13 95.0347 107.839 94.6168 107.529L94.1296 108.185ZM96.9445 109.875C97.4379 110.109 97.9445 110.319 98.463 110.505L98.7383 109.736C98.2453 109.559 97.7635 109.359 97.2943 109.137L96.9445 109.875ZM100.036 110.982C100.565 111.113 101.103 111.22 101.649 111.301L101.768 110.492C101.248 110.416 100.737 110.314 100.234 110.189L100.036 110.982ZM103.285 111.46C103.557 111.473 103.831 111.48 104.107 111.48V110.663C103.845 110.663 103.584 110.656 103.325 110.644L103.285 111.46ZM104.107 111.48H104.868V110.663H104.107V111.48ZM106.39 111.48H107.912V110.663H106.39V111.48ZM109.434 111.48H110.956V110.663H109.434V111.48ZM112.478 111.48H114V110.663H112.478V111.48ZM115.522 111.48H116.284V110.663H115.522V111.48Z" fill="#2D70E6"/>
<path d="M59.2096 56.1003C58.5288 56.1003 57.9841 56.6449 57.9841 57.3257C57.9841 58.0065 58.5288 58.5512 59.2096 58.5512C59.8904 58.5512 60.435 58.0065 60.435 57.3257C60.435 56.6449 59.8904 56.1003 59.2096 56.1003Z" fill="white"/>
<path d="M2.06761 110.782C1.90808 110.942 1.90808 111.201 2.06761 111.36L4.66716 113.96C4.82668 114.119 5.08532 114.119 5.24484 113.96C5.40436 113.8 5.40436 113.542 5.24484 113.382L2.93412 111.071L5.24484 108.761C5.40436 108.601 5.40436 108.342 5.24484 108.183C5.08532 108.023 4.82668 108.023 4.66716 108.183L2.06761 110.782ZM58.3926 57.3257C58.3926 57.2128 58.4147 57.1069 58.454 57.0112L57.6983 56.7007C57.6189 56.8939 57.5756 57.1052 57.5756 57.3257H58.3926ZM58.8951 56.5701C58.9907 56.5308 59.0966 56.5088 59.2096 56.5088V55.6918C58.989 55.6918 58.7777 55.7351 58.5845 55.8145L58.8951 56.5701ZM59.2096 56.5088C59.3225 56.5088 59.4284 56.5308 59.5241 56.5701L59.8346 55.8145C59.6414 55.7351 59.4301 55.6918 59.2096 55.6918V56.5088ZM59.9652 57.0112C60.0045 57.1069 60.0265 57.2128 60.0265 57.3257H60.8435C60.8435 57.1052 60.8002 56.8939 60.7208 56.7007L59.9652 57.0112ZM60.0265 57.3257C60.0265 57.4387 60.0045 57.5446 59.9652 57.6402L60.7208 57.9508C60.8002 57.7576 60.8435 57.5463 60.8435 57.3257H60.0265ZM59.5241 58.0813C59.4284 58.1206 59.3225 58.1427 59.2096 58.1427V58.9596C59.4301 58.9596 59.6414 58.9164 59.8346 58.837L59.5241 58.0813ZM59.2096 58.1427C59.0966 58.1427 58.9907 58.1206 58.8951 58.0813L58.5845 58.837C58.7777 58.9164 58.989 58.9596 59.2096 58.9596V58.1427ZM58.454 57.6402C58.4147 57.5446 58.3926 57.4387 58.3926 57.3257H57.5756C57.5756 57.5463 57.6189 57.7576 57.6983 57.9508L58.454 57.6402ZM2.35645 111.48H3.1119V110.663H2.35645V111.48ZM4.62282 111.48H6.13374V110.663H4.62282V111.48ZM7.64465 111.48H9.15557V110.663H7.64465V111.48ZM10.6665 111.48H12.1774V110.663H10.6665V111.48ZM13.6883 111.48H14.4438V110.663H13.6883V111.48ZM14.4438 111.48C14.7193 111.48 14.9933 111.473 15.2656 111.46L15.2261 110.644C14.9669 110.656 14.7061 110.663 14.4438 110.663V111.48ZM16.9016 111.301C17.4481 111.22 17.9861 111.113 18.5143 110.982L18.3163 110.189C17.8142 110.314 17.3025 110.416 16.7827 110.492L16.9016 111.301ZM20.0876 110.505C20.6061 110.319 21.1128 110.109 21.6062 109.875L21.2564 109.137C20.7872 109.359 20.3054 109.559 19.8124 109.736L20.0876 110.505ZM23.0552 109.099C23.5261 108.816 23.9818 108.511 24.421 108.185L23.9339 107.529C23.516 107.839 23.0824 108.13 22.6346 108.399L23.0552 109.099ZM25.6909 107.141C26.097 106.773 26.4849 106.385 26.8531 105.979L26.2479 105.43C25.8976 105.817 25.5285 106.186 25.1421 106.536L25.6909 107.141ZM27.8964 104.709C28.2227 104.27 28.528 103.814 28.8108 103.343L28.1105 102.923C27.8415 103.371 27.551 103.804 27.2406 104.222L27.8964 104.709ZM29.5869 101.894C29.8207 101.401 30.031 100.894 30.2166 100.376L29.4474 100.101C29.271 100.594 29.0709 101.075 28.8486 101.545L29.5869 101.894ZM30.6933 98.8025C30.8252 98.2744 30.932 97.7364 31.0124 97.1899L30.2041 97.071C30.1276 97.5908 30.0261 98.1024 29.9007 98.6046L30.6933 98.8025ZM31.1717 95.5538C31.1848 95.2815 31.1915 95.0075 31.1915 94.732H30.3745C30.3745 94.9944 30.3682 95.2552 30.3557 95.5144L31.1717 95.5538ZM31.1915 94.732V93.8543H30.3745V94.732H31.1915ZM31.1915 92.0987V90.3431H30.3745V92.0987H31.1915ZM31.1915 88.5875V86.8319H30.3745V88.5875H31.1915ZM31.1915 85.0763V83.3207H30.3745V85.0763H31.1915ZM31.1915 81.5651V79.8095H30.3745V81.5651H31.1915ZM31.1915 78.0539V76.2983H30.3745V78.0539H31.1915ZM31.1915 74.5428V73.665H30.3745V74.5428H31.1915ZM31.1915 73.665C31.1915 73.4026 31.1978 73.1418 31.2104 72.8826L30.3943 72.8432C30.3812 73.1155 30.3745 73.3895 30.3745 73.665H31.1915ZM31.3619 71.326C31.4384 70.8062 31.54 70.2946 31.6654 69.7924L30.8727 69.5945C30.7409 70.1226 30.6341 70.6606 30.5537 71.2072L31.3619 71.326ZM32.1186 68.2964C32.295 67.8034 32.4951 67.3216 32.7174 66.8523L31.9791 66.5025C31.7453 66.9959 31.535 67.5026 31.3494 68.0211L32.1186 68.2964ZM33.4555 65.4742C33.7246 65.0263 34.015 64.5927 34.3254 64.1749L33.6696 63.6877C33.3433 64.1269 33.038 64.5827 32.7552 65.0535L33.4555 65.4742ZM35.3181 62.9666C35.6685 62.5803 36.0375 62.2112 36.4239 61.8608L35.8751 61.2556C35.469 61.6239 35.0812 62.0118 34.7129 62.4178L35.3181 62.9666ZM37.6321 60.8681C38.05 60.5577 38.4836 60.2673 38.9315 59.9983L38.5108 59.2979C38.04 59.5807 37.5842 59.886 37.145 60.2123L37.6321 60.8681ZM40.3096 59.2601C40.7788 59.0378 41.2606 58.8378 41.7536 58.6613L41.4784 57.8921C40.9599 58.0777 40.4532 58.2881 39.9598 58.5218L40.3096 59.2601ZM43.2497 58.2081C43.7518 58.0827 44.2635 57.9811 44.7833 57.9046L44.6644 57.0964C44.1179 57.1768 43.5799 57.2836 43.0518 57.4154L43.2497 58.2081ZM46.3399 57.7531C46.5991 57.7405 46.8599 57.7342 47.1222 57.7342V56.9172C46.8467 56.9172 46.5728 56.9239 46.3005 56.9371L46.3399 57.7531ZM47.1222 57.7342H48.0274V56.9172H47.1222V57.7342ZM49.8377 57.7342H51.648V56.9172H49.8377V57.7342ZM53.4583 57.7342H55.2687V56.9172H53.4583V57.7342ZM57.079 57.7342H57.9841V56.9172H57.079V57.7342Z" fill="#2D70E6"/>
<path d="M59.2518 56.0998C58.571 56.0998 58.0264 56.6445 58.0264 57.3253C58.0264 58.0061 58.571 58.5507 59.2518 58.5507C59.9326 58.5507 60.4773 58.0061 60.4773 57.3253C60.4773 56.6445 59.9326 56.0998 59.2518 56.0998Z" fill="white"/>
<path d="M116.568 3.86198C116.728 3.70245 116.728 3.44382 116.568 3.2843L113.969 0.684739C113.809 0.525217 113.551 0.525217 113.391 0.684739C113.232 0.844261 113.232 1.1029 113.391 1.26242L115.702 3.57314L113.391 5.88385C113.232 6.04337 113.232 6.30201 113.391 6.46153C113.551 6.62105 113.809 6.62105 113.969 6.46153L116.568 3.86198ZM60.8857 57.3253C60.8857 57.1047 60.8424 56.8934 60.763 56.7002L60.0074 57.0108C60.0467 57.1064 60.0688 57.2123 60.0688 57.3253H60.8857ZM59.8769 55.8141C59.6837 55.7347 59.4724 55.6914 59.2518 55.6914V56.5083C59.3648 56.5083 59.4707 56.5304 59.5663 56.5697L59.8769 55.8141ZM59.2518 55.6914C59.0313 55.6914 58.82 55.7347 58.6268 55.8141L58.9373 56.5697C59.033 56.5304 59.1388 56.5083 59.2518 56.5083V55.6914ZM57.7406 56.7002C57.6612 56.8934 57.6179 57.1047 57.6179 57.3253H58.4348C58.4348 57.2123 58.4569 57.1064 58.4962 57.0108L57.7406 56.7002ZM57.6179 57.3253C57.6179 57.5458 57.6612 57.7571 57.7406 57.9503L58.4962 57.6398C58.4569 57.5441 58.4348 57.4383 58.4348 57.3253H57.6179ZM58.6268 58.8365C58.82 58.9159 59.0313 58.9592 59.2518 58.9592V58.1422C59.1388 58.1422 59.033 58.1202 58.9373 58.0809L58.6268 58.8365ZM59.2518 58.9592C59.4724 58.9592 59.6837 58.9159 59.8769 58.8365L59.5663 58.0809C59.4707 58.1202 59.3648 58.1422 59.2518 58.1422V58.9592ZM60.763 57.9503C60.8424 57.7571 60.8857 57.5458 60.8857 57.3253H60.0688C60.0688 57.4383 60.0467 57.5441 60.0074 57.6398L60.763 57.9503ZM60.4773 57.7338H61.3897V56.9168H60.4773V57.7338ZM63.2146 57.7338H65.0394V56.9168H63.2146V57.7338ZM66.8643 57.7338H68.6892V56.9168H66.8643V57.7338ZM70.514 57.7338H71.4265V56.9168H70.514V57.7338ZM71.4265 57.7338C71.702 57.7338 71.976 57.7271 72.2483 57.7139L72.2088 56.8979C71.9496 56.9105 71.6888 56.9168 71.4265 56.9168V57.7338ZM73.8843 57.5546C74.4308 57.4742 74.9689 57.3674 75.497 57.2356L75.299 56.4429C74.7969 56.5683 74.2852 56.6699 73.7654 56.7464L73.8843 57.5546ZM77.0703 56.7589C77.5888 56.5733 78.0955 56.3629 78.5889 56.1292L78.2391 55.3909C77.7699 55.6132 77.2881 55.8133 76.7951 55.9897L77.0703 56.7589ZM80.0379 55.3531C80.5088 55.0703 80.9645 54.765 81.4038 54.4387L80.9166 53.7829C80.4987 54.0933 80.0651 54.3837 79.6173 54.6527L80.0379 55.3531ZM82.6737 53.3954C83.0797 53.0271 83.4676 52.6393 83.8358 52.2332L83.2306 51.6844C82.8803 52.0708 82.5112 52.4398 82.1248 52.7902L82.6737 53.3954ZM84.8792 50.9633C85.2054 50.5241 85.5107 50.0683 85.7935 49.5975L85.0932 49.1768C84.8242 49.6247 84.5338 50.0583 84.2233 50.4762L84.8792 50.9633ZM86.5696 48.1485C86.8034 47.6551 87.0138 47.1484 87.1993 46.6299L86.4301 46.3547C86.2537 46.8477 86.0536 47.3294 85.8313 47.7987L86.5696 48.1485ZM87.676 45.0565C87.8079 44.5284 87.9147 43.9904 87.9951 43.4439L87.1868 43.325C87.1103 43.8448 87.0088 44.3564 86.8834 44.8586L87.676 45.0565ZM88.1544 41.8078C88.1675 41.5355 88.1742 41.2615 88.1742 40.986H87.3572C87.3572 41.2484 87.3509 41.5092 87.3384 41.7684L88.1544 41.8078ZM88.1742 40.986V40.108H87.3572V40.986H88.1742ZM88.1742 38.3518V36.5957H87.3572V38.3518H88.1742ZM88.1742 34.8396V33.0834H87.3572V34.8396H88.1742ZM88.1742 31.3273V29.5711H87.3572V31.3273H88.1742ZM88.1742 27.815V26.0589H87.3572V27.815H88.1742ZM88.1742 24.3027V22.5466H87.3572V24.3027H88.1742ZM88.1742 20.7904V19.9124H87.3572V20.7904H88.1742ZM88.1742 19.9124C88.1742 19.65 88.1805 19.3892 88.1931 19.13L87.3771 19.0906C87.3639 19.3629 87.3572 19.6369 87.3572 19.9124H88.1742ZM88.3446 17.5734C88.4211 17.0536 88.5227 16.542 88.6481 16.0398L87.8554 15.8419C87.7236 16.37 87.6168 16.908 87.5364 17.4546L88.3446 17.5734ZM89.1013 14.5438C89.2778 14.0508 89.4778 13.569 89.7001 13.0997L88.9618 12.7499C88.7281 13.2433 88.5177 13.75 88.3321 14.2685L89.1013 14.5438ZM90.4383 11.7216C90.7073 11.2737 90.9977 10.8401 91.3081 10.4223L90.6523 9.93508C90.326 10.3743 90.0207 10.8301 89.7379 11.3009L90.4383 11.7216ZM92.3008 9.214C92.6512 8.82766 93.0203 8.45859 93.4066 8.10821L92.8578 7.50305C92.4518 7.87127 92.0639 8.25915 91.6956 8.66519L92.3008 9.214ZM94.6149 7.11551C95.0327 6.8051 95.4663 6.51468 95.9142 6.24567L95.4935 5.54533C95.0227 5.82814 94.5669 6.13343 94.1277 6.4597L94.6149 7.11551ZM97.2923 5.50753C97.7616 5.28521 98.2434 5.08517 98.7364 4.90874L98.4611 4.13955C97.9426 4.32509 97.4359 4.53547 96.9426 4.76924L97.2923 5.50753ZM100.232 4.45548C100.735 4.33008 101.246 4.22851 101.766 4.15205L101.647 3.34378C101.101 3.42418 100.563 3.53098 100.034 3.66286L100.232 4.45548ZM103.323 4.00048C103.582 3.98795 103.843 3.98162 104.105 3.98162V3.16465C103.829 3.16465 103.555 3.17131 103.283 3.18447L103.323 4.00048ZM104.105 3.98162H104.866V3.16465H104.105V3.98162ZM106.388 3.98162H107.91V3.16465H106.388V3.98162ZM109.431 3.98162H110.953V3.16465H109.431V3.98162ZM112.475 3.98162H113.997V3.16465H112.475V3.98162ZM115.519 3.98162H116.28V3.16465H115.519V3.98162Z" fill="#2D70E6"/>
</svg>
