<svg width="63" height="25" viewBox="0 0 63 25" fill="none" xmlns="http://www.w3.org/2000/svg">
<path d="M54.3948 0.629672C49.5826 0.629672 46.4404 3.90799 46.4404 9.32815C46.4404 16.0596 51.2526 17.9829 54.7024 17.9829C57.2952 17.9829 59.7562 16.9338 61.5361 15.0761L59.3168 12.8687C58.1302 13.9178 56.7679 14.5516 54.7463 14.5516C52.0656 14.5516 50.2638 12.9999 50.2638 10.858H62.2173C62.1953 10.8361 64.2827 0.629672 54.3948 0.629672ZM50.2638 7.92939C50.2638 5.04447 52.4611 3.66759 54.8123 3.66759C57.1634 3.66759 59.2948 5.08818 59.2948 7.92939H50.2638Z" fill="#00DC06"/>
<path d="M10.3821 7.64561C8.844 7.44891 4.42737 7.6238 4.42737 5.61306C4.42737 4.43287 6.2951 3.7772 7.98704 3.7772C9.78885 3.75531 11.5467 4.25803 13.0409 5.21967L15.3481 2.94669C14.6669 2.4003 12.14 0.630016 7.98704 0.630016C4.20764 0.630016 0.801776 2.59701 0.801776 5.74419C0.801776 10.5742 6.66865 10.5743 9.10768 10.8147C10.6019 10.9676 11.9422 11.0551 11.9422 12.4975C11.9422 13.8526 9.87675 14.5956 8.2727 14.5956C5.65787 14.5956 4.09777 13.7433 2.55964 12.3664L0.0986328 14.8361C2.23004 16.8905 5.10854 18.0051 8.07494 17.9832C12.4696 17.9832 15.6557 16.06 15.6557 12.1915C15.6557 9.63446 13.9198 8.10458 10.3821 7.64561Z" fill="#00DC06"/>
<path d="M22.9948 0.629706C20.5558 0.607816 18.1607 1.43836 16.249 2.94638L18.5562 5.24121C19.8527 4.27957 21.4128 3.77689 23.0168 3.79874C25.9393 3.79874 26.8182 4.95708 26.8182 6.26841V7.90757H21.6105C19.6769 7.90757 15.8975 8.3884 15.8975 12.6065C15.8975 15.71 17.6773 17.9829 21.9401 17.9829C24.0715 17.9829 25.6975 17.3054 26.8182 15.9722V17.6551H30.5976V6.53068C30.5976 2.64041 28.2025 0.629706 22.9948 0.629706ZM26.8402 11.5793C26.8402 14.792 24.533 14.6172 22.4894 14.6172C20.4459 14.6172 19.0836 14.0708 19.0836 12.6283C19.0836 11.2952 20.1603 10.8362 22.4016 10.8362H26.8402V11.5793Z" fill="#00DC06"/>
<path d="M42.2645 0.979365V2.83707C40.9681 1.37275 39.4299 0.629672 37.3425 0.629672C33.7608 0.629672 31.9151 2.61852 31.2998 4.76035C31.0581 5.54715 30.9922 7.05518 30.9922 9.28444C30.9922 11.3826 31.0142 13.3058 31.7393 14.7701C32.772 16.8246 35.255 17.9829 37.3425 17.9829C39.364 17.9829 41.0779 17.1961 42.2645 15.8411V16.8901C42.2645 18.114 41.847 18.9227 41.056 19.5565C40.2649 20.1903 39.2761 20.5837 37.8918 20.5837C36.6393 20.5837 35.4528 19.9062 34.7716 19.4254L32.2227 21.9606C33.8707 23.2938 35.8263 24.1898 37.9577 24.2117C40.0012 24.2554 42.0008 23.5998 43.6049 22.3103C45.121 21.1301 46.0878 18.879 46.0878 16.5186V0.979365H42.2645ZM42.2645 9.28444C42.2645 10.5739 42.2425 11.5355 42.1326 12.0382C41.8909 13.1091 40.6604 14.5297 38.4192 14.5297C37.8479 14.5297 34.9913 14.2019 34.6617 11.7322C34.5738 10.9236 34.5299 10.0931 34.5519 9.28444C34.5519 7.36116 34.6398 6.74919 34.7276 6.26838C34.9254 5.30673 36.1999 3.86428 38.4192 3.86428C41.1219 3.86428 42.0008 5.70013 42.1326 6.42137C42.2425 7.36115 42.2865 8.32279 42.2645 9.28444Z" fill="#00DC06"/>
</svg>
