<svg width="49" height="25" viewBox="0 0 49 25" fill="none" xmlns="http://www.w3.org/2000/svg">
<path fill-rule="evenodd" clip-rule="evenodd" d="M0.356445 24.2137H24.6853L48.4945 0.629284H0.356445V24.2137" fill="url(#paint0_linear_66_370)"/>
<path fill-rule="evenodd" clip-rule="evenodd" d="M28.9258 5.34613H24.1716L24.1875 16.4203L20.0477 5.34194H15.9428L12.4089 14.5938C12.0331 12.2396 9.57559 11.4272 7.64194 10.8188C6.36501 10.4126 5.00976 9.81512 5.02352 9.15475C5.0341 8.61283 5.74851 8.11022 7.16832 8.18517C8.12085 8.23601 8.96226 8.312 10.6361 9.11282L12.2819 6.27221C10.7557 5.50284 8.64528 5.017 6.91484 5.01542H6.90425C4.88646 5.01542 3.20629 5.66269 2.16485 6.72923C1.43881 7.47344 1.04721 8.41997 1.03133 9.46659C1.00487 10.9068 1.53776 11.9278 2.65752 12.7438C3.60371 13.4303 4.81396 13.8758 5.88027 14.2029C7.19531 14.6064 8.26956 14.9576 8.25633 15.7049C8.24574 15.9775 8.14202 16.2322 7.94411 16.4376C7.61601 16.773 7.11328 16.8988 6.4174 16.9125C5.07485 16.9408 4.07998 16.7316 2.49453 15.8035L1.03027 18.6808C2.61413 19.5728 4.29536 20.0204 6.20573 20.0204L6.63543 20.0172C8.29813 19.9873 9.64756 19.5927 10.7197 18.7384C10.7811 18.6897 10.8361 18.6404 10.8933 18.5906L10.7133 19.5088L14.7246 19.4963L15.4443 17.6713C16.201 17.9271 17.0615 18.0686 17.9749 18.0686C18.8649 18.0686 19.7021 17.9344 20.4446 17.6934L20.9462 19.4963L28.1432 19.5031L28.1607 15.3428H29.6921C33.3938 15.3428 35.582 13.477 35.582 10.3481C35.5808 6.8634 33.4536 5.34561 28.9259 5.34561L28.9258 5.34613ZM17.9748 14.8124C17.4218 14.8124 16.9032 14.717 16.4571 14.5493L17.9579 9.856H17.987L19.4634 14.5624C19.0189 14.7196 18.5125 14.8124 17.9743 14.8124H17.9748ZM29.2042 12.1159H28.1596V8.33349H29.2047C30.5965 8.33349 31.7078 8.7926 31.7078 10.2003C31.7066 11.6573 30.5965 12.1159 29.2047 12.1159" fill="white"/>
<defs>
<linearGradient id="paint0_linear_66_370" x1="24.4255" y1="0.629284" x2="24.4255" y2="24.2142" gradientUnits="userSpaceOnUse">
<stop stop-color="#00AEEF"/>
<stop offset="0.212" stop-color="#0097DC"/>
<stop offset="0.519" stop-color="#007CC5"/>
<stop offset="0.792" stop-color="#006CB8"/>
<stop offset="1" stop-color="#0066B3"/>
</linearGradient>
</defs>
</svg>
