<svg width="85" height="25" viewBox="0 0 85 25" fill="none" xmlns="http://www.w3.org/2000/svg">
<g clip-path="url(#clip0_66_358)">
<path d="M18.9208 5.01449C18.9046 4.89604 18.8012 4.83032 18.7155 4.82316C18.6304 4.81601 16.9629 4.79064 16.9629 4.79064C16.9629 4.79064 15.5683 3.43441 15.4305 3.29644C15.2928 3.15848 15.0238 3.20012 14.9191 3.23136C14.9178 3.23201 14.6573 3.31271 14.2186 3.44872C14.1452 3.21054 14.0373 2.91769 13.8833 2.62353C13.3868 1.6747 12.6597 1.17295 11.7811 1.17165C11.7798 1.17165 11.7791 1.17165 11.7778 1.17165C11.7167 1.17165 11.6563 1.17751 11.5952 1.18271C11.5692 1.15147 11.5432 1.12089 11.516 1.09095C11.1332 0.680961 10.6426 0.481172 10.0545 0.498743C8.91985 0.531282 7.78981 1.35191 6.87354 2.80966C6.22889 3.83528 5.73826 5.12384 5.5992 6.12147C4.29628 6.5256 3.3852 6.80802 3.36506 6.81455C2.70743 7.02148 2.68663 7.04166 2.60085 7.66253C2.53717 8.13171 0.816406 21.4571 0.816406 21.4571L15.2369 23.9548L21.487 22.3987C21.487 22.3987 18.937 5.13295 18.9208 5.01449ZM13.4966 3.67259C13.1646 3.77541 12.787 3.89255 12.3776 4.01946C12.3692 3.44417 12.3009 2.64371 12.0332 1.95193C12.8942 2.11528 13.3179 3.09079 13.4966 3.67259ZM11.6232 4.25373C10.8674 4.488 10.0428 4.74376 9.21553 5.00019C9.44816 4.10796 9.88941 3.21965 10.4314 2.6372C10.6328 2.42049 10.9148 2.17905 11.2488 2.04109C11.5627 2.69707 11.631 3.62573 11.6232 4.25373ZM10.0772 1.25495C10.3436 1.24909 10.5678 1.30766 10.7595 1.43391C10.4528 1.59335 10.1565 1.82243 9.87837 2.12113C9.15768 2.89556 8.60532 4.09755 8.38503 5.25724C7.69815 5.47003 7.02622 5.67896 6.40757 5.87029C6.79815 4.04484 8.32588 1.30571 10.0772 1.25495Z" fill="#95BF47"/>
<path d="M18.7178 4.82355C18.6327 4.81639 16.9652 4.79102 16.9652 4.79102C16.9652 4.79102 15.5707 3.43478 15.4329 3.29682C15.3816 3.24541 15.3121 3.21873 15.2393 3.20767L15.2399 23.9539L21.4894 22.3985C21.4894 22.3985 18.9394 5.13334 18.9232 5.01488C18.9069 4.89642 18.803 4.8307 18.7178 4.82355Z" fill="#5E8E3E"/>
<path d="M11.7732 8.04165L11.0474 10.7612C11.0474 10.7612 10.2377 10.3922 9.2779 10.4528C7.87033 10.5419 7.85538 11.4309 7.86971 11.6541C7.94638 12.8704 11.1416 13.1359 11.321 15.985C11.462 18.2263 10.1337 19.7596 8.21996 19.8806C5.92278 20.0257 4.6582 18.6688 4.6582 18.6688L5.14494 16.5955C5.14494 16.5955 6.41794 17.5573 7.43689 17.4929C8.10234 17.4506 8.34016 16.9085 8.31611 16.5252C8.21605 14.9386 5.6141 15.0323 5.44971 12.4253C5.31128 10.2315 6.75004 8.00846 9.92446 7.80802C11.1475 7.72928 11.7732 8.04165 11.7732 8.04165Z" fill="white"/>
<path d="M29.7168 13.7367C28.9981 13.3462 28.6288 13.017 28.6288 12.5645C28.6288 11.9888 29.1418 11.6189 29.943 11.6189C30.8756 11.6189 31.7083 12.0094 31.7083 12.0094L32.3651 9.99427C32.3651 9.99427 31.7612 9.52114 29.9836 9.52114C27.5098 9.52114 25.7954 10.9399 25.7954 12.9344C25.7954 14.0652 26.5959 14.9289 27.6639 15.5453C28.5263 16.0385 28.8344 16.3883 28.8344 16.9021C28.8344 17.4366 28.4032 17.8684 27.6027 17.8684C26.4096 17.8684 25.283 17.2513 25.283 17.2513L24.585 19.2665C24.585 19.2665 25.6259 19.9655 27.3771 19.9655C29.923 19.9655 31.7503 18.7113 31.7503 16.4496C31.7496 15.2374 30.826 14.3738 29.7168 13.7367Z" fill="black"/>
<path d="M39.8629 9.50104C38.6104 9.50104 37.6249 10.0975 36.8657 11.0018L36.8244 10.9811L37.9124 5.28611H35.079L32.3281 19.7808H35.1615L36.1058 14.8262C36.4751 12.955 37.4399 11.8041 38.3436 11.8041C38.9797 11.8041 39.2266 12.2359 39.2266 12.853C39.2266 13.2435 39.1854 13.7166 39.1035 14.1071L38.0361 19.7815H40.8697L41.978 13.9219C42.1013 13.3048 42.1837 12.5651 42.1837 12.0713C42.1825 10.4673 41.3409 9.50104 39.8629 9.50104Z" fill="black"/>
<path d="M48.584 9.50134C45.1756 9.50134 42.918 12.5854 42.918 16.0187C42.918 18.2185 44.2726 19.9864 46.8187 19.9864C50.1651 19.9864 52.4234 16.985 52.4234 13.4691C52.4234 11.4339 51.2324 9.50134 48.584 9.50134ZM47.188 17.8079C46.223 17.8079 45.8123 16.9856 45.8123 15.9574C45.8123 14.3333 46.6543 11.6811 48.194 11.6811C49.2 11.6811 49.528 12.5447 49.528 13.3877C49.528 15.135 48.6871 17.8079 47.188 17.8079Z" fill="black"/>
<path d="M59.6725 9.50134C57.76 9.50134 56.6747 11.1873 56.6747 11.1873H56.6341L56.7984 9.66593H54.2937C54.1708 10.6942 53.9443 12.2562 53.7191 13.4284L51.748 23.8108H54.5815L55.3611 19.6165H55.4231C55.4231 19.6165 56.0044 19.9864 57.0862 19.9864C60.4118 19.9864 62.5879 16.5738 62.5879 13.1192C62.5879 11.208 61.7458 9.50134 59.6725 9.50134ZM56.9624 17.8486C56.2269 17.8486 55.7917 17.4374 55.7917 17.4374L56.264 14.7852C56.5927 13.0172 57.5164 11.8451 58.5021 11.8451C59.3645 11.8451 59.6311 12.6467 59.6311 13.4078C59.6311 15.2377 58.5431 17.8486 56.9624 17.8486Z" fill="black"/>
<path d="M66.6344 5.43014C65.7314 5.43014 65.0127 6.14985 65.0127 7.0748C65.0127 7.91781 65.5464 8.49356 66.347 8.49356H66.388C67.2711 8.49356 68.0304 7.89712 68.0511 6.84891C68.0511 6.02654 67.4967 5.43014 66.6344 5.43014Z" fill="black"/>
<path d="M62.6709 19.7805H65.5035L67.434 9.72728H64.5799L62.6709 19.7805Z" fill="black"/>
<path d="M74.6393 9.70722H72.6682L72.7705 9.23409C72.9348 8.26781 73.5099 7.40416 74.4542 7.40416C74.9582 7.40416 75.3572 7.54811 75.3572 7.54811L75.9115 5.3277C75.9115 5.3277 75.4188 5.08113 74.3714 5.08113C73.3654 5.08113 72.3602 5.36899 71.6001 6.02673C70.6351 6.84909 70.1834 8.04126 69.9578 9.23409L69.8762 9.70722H68.5617L68.1511 11.8457H69.4655L67.9668 19.7818H70.8002L72.2989 11.8457H74.2493L74.6393 9.70722Z" fill="black"/>
<path d="M81.4526 9.72756C81.4526 9.72756 79.6815 14.1961 78.8862 16.6354H78.8449C78.791 15.8499 78.1469 9.72756 78.1469 9.72756H75.1698L76.8746 18.9584C76.916 19.1637 76.8953 19.2877 76.8129 19.4316C76.4838 20.0687 75.9299 20.6857 75.2728 21.1382C74.7392 21.5287 74.1438 21.7753 73.6719 21.9399L74.4519 24.3455C75.0269 24.2223 76.2172 23.7491 77.2232 22.8035C78.5169 21.5907 79.7072 19.7195 80.9389 17.1698L84.4086 9.7269H81.4526V9.72756Z" fill="black"/>
</g>
<defs>
<clipPath id="clip0_66_358">
<rect x="0.816406" y="0.497677" width="83.9327" height="23.848" rx="4.02629" fill="white"/>
</clipPath>
</defs>
</svg>
