<svg width="119" height="31" viewBox="0 0 119 31" fill="none" xmlns="http://www.w3.org/2000/svg">
<path d="M37.7441 24.0599L39.1795 20.5748C40.7525 21.7773 42.7975 22.4091 44.8424 22.4091C46.3367 22.4091 47.3002 21.7977 47.3002 20.8806C47.2609 18.333 38.2554 20.3099 38.1767 13.89C38.1374 10.6291 40.9492 8.10188 44.9014 8.10188C47.2609 8.10188 49.6204 8.7133 51.2917 10.0788L49.9547 13.625C48.421 12.606 46.5137 11.8927 44.7047 11.8927C43.466 11.8927 42.6598 12.5041 42.6598 13.2786C42.6991 15.8058 51.7833 14.4199 51.8816 20.5545C51.8816 23.8969 49.1485 26.2203 45.2553 26.2203C42.3845 26.261 39.7497 25.5477 37.7441 24.0599ZM94.8643 19.3316C94.1171 20.6971 92.7407 21.5327 91.2463 21.5327C88.9458 21.5327 87.0778 19.5966 87.0778 17.212C87.0778 14.8275 88.9458 12.8913 91.2463 12.8913C92.7407 12.8913 94.1367 13.7269 94.8643 15.0924L98.8558 12.7894C97.3614 10.0177 94.5103 8.14264 91.2463 8.14264C86.429 8.14264 82.5161 12.1984 82.5161 17.212C82.5161 22.2257 86.429 26.2814 91.2463 26.2814C94.5103 26.2814 97.3614 24.4064 98.8558 21.6346L94.8643 19.3316ZM54.4771 25.8942H59.4714V0.581414H54.4771V25.8942ZM101.373 0.581414V25.8942H106.367V18.3126L112.285 25.8942H118.656L111.145 16.8859L118.106 8.46873H112.01L106.367 15.4593V0.561035H101.373V0.581414ZM74.828 8.48911V10.5476C74.0021 9.12091 71.9965 8.14264 69.873 8.14264C65.5079 8.14264 62.0472 12.1576 62.0472 17.1917C62.0472 22.2257 65.4882 26.2814 69.873 26.2814C71.9965 26.2814 74.0021 25.2828 74.828 23.8765V25.935H79.8223V8.50949H74.828V8.48911ZM74.828 19.352C74.1201 20.5952 72.6061 21.5124 70.9348 21.5124C68.6342 21.5124 66.7663 19.5762 66.7663 17.1917C66.7663 14.8071 68.6342 12.871 70.9348 12.871C72.6061 12.871 74.1201 13.8288 74.828 15.1128V19.352Z" fill="black"/>
<path d="M11.3959 0.0310059C9.78352 0.0310059 8.46612 1.39651 8.46612 3.06772C8.46612 4.73894 9.78352 6.10444 11.3959 6.10444H14.3256V3.06772C14.3256 1.39651 13.0279 0.0310059 11.3959 0.0310059ZM11.3959 8.12213H3.60943C1.99709 8.12213 0.679688 9.48764 0.679688 11.1588C0.679688 12.8301 1.99709 14.1956 3.60943 14.1956H11.4155C13.0279 14.1956 14.3453 12.8301 14.3453 11.1588C14.3256 9.48764 13.0279 8.12213 11.3959 8.12213Z" fill="#36C5F0"/>
<path d="M29.938 11.159C29.938 9.48776 28.6206 8.12225 27.0083 8.12225C25.396 8.12225 24.0785 9.48776 24.0785 11.159V14.1957H27.0083C28.6206 14.2161 29.938 12.8506 29.938 11.159ZM22.1319 11.159V3.04746C22.1319 1.37625 20.8145 0.0107422 19.2022 0.0107422C17.5899 0.0107422 16.2725 1.37625 16.2725 3.04746V11.159C16.2725 12.8302 17.5899 14.1957 19.2022 14.1957C20.8342 14.2161 22.1319 12.8506 22.1319 11.159Z" fill="#2EB67D"/>
<path d="M19.2022 30.4188C20.8145 30.4188 22.1319 29.0533 22.1319 27.3821C22.1319 25.7109 20.8145 24.3454 19.2022 24.3454H16.2725V27.3821C16.2725 29.0533 17.5899 30.4188 19.2022 30.4188ZM19.2022 22.3073H27.0083C28.6206 22.3073 29.938 20.9418 29.938 19.2706C29.938 17.5994 28.6206 16.2339 27.0083 16.2339H19.2022C17.5899 16.2339 16.2725 17.5994 16.2725 19.2706C16.2725 20.9418 17.5899 22.3073 19.2022 22.3073Z" fill="#ECB22E"/>
<path d="M0.679688 19.2706C0.679688 20.9418 1.99709 22.3073 3.60943 22.3073C5.22177 22.3073 6.53917 20.9418 6.53917 19.2706V16.2339H3.60943C1.97743 16.2339 0.679688 17.5994 0.679688 19.2706ZM8.48578 19.2706V27.3821C8.48578 29.0533 9.80318 30.4188 11.4155 30.4188C13.0279 30.4188 14.3453 29.0533 14.3453 27.3821V19.2706C14.3453 17.5994 13.0279 16.2339 11.4155 16.2339C9.78352 16.2339 8.48578 17.5994 8.48578 19.2706Z" fill="#E01E5A"/>
</svg>
